<svg xmlns="http://www.w3.org/2000/svg" data-name="Layer 1" viewBox="0 0 1159 771"><g data-name="background 3" fill="#000000" class="color000 svgShape"><path fill="#ffffff" d="M358.57 304.85h94.22v16.44h-94.22z" transform="rotate(-70.69 405.658 313.068)" class="colorfff svgShape"/><path fill="#252362" d="m381 355.44 17.44 6.11 31.84-90.85-17.45-6.11ZM427.71 272l-30.48 87-13.58-4.77 30.48-87Z" class="color252362 svgShape"/><path fill="#252362" d="M375.43 304.85h94.22v16.44h-94.22z" transform="rotate(-70.69 422.515 313.07)" class="color252362 svgShape"/><path fill="#f07258" d="M437.37 265.96h16.44v94.22h-16.44z" class="colorf07258 svgShape"/><path fill="#252362" d="M436.29 361.27h18.61v-96.39h-18.61Zm2.17-94.22h14.27v92.05h-14.27ZM903.86 593.09H255.14a1.53 1.53 0 0 0 0 3.06h648.72a1.53 1.53 0 0 0 0-3.06ZM310.99 652.14h153.27v2.32H310.99zM736.67 629.41h155.22v2.32H736.67zM434.67 684.52h66.47v2.32h-66.47z" class="color252362 svgShape"/><path fill="#ffffff" d="M698.77 129.13H868.9v241.55H698.77z" class="colorfff svgShape"/><path fill="#252362" d="M697.61 371.85h172.46V128H697.61Zm2.33-241.56h167.8v239.23h-167.8Z" class="color252362 svgShape"/><path fill="#ffffff" d="M707.19 143.94h153.29v164.04H707.19z" class="colorfff svgShape"/><path fill="#252362" d="M860.49 143h-153.3a.89.89 0 0 0-.89.9V308a.89.89 0 0 0 .89.9h153.3a.9.9 0 0 0 .9-.9V144a.9.9 0 0 0-.9-1Zm-.9 164h-151.5V144.84h151.5Z" class="color252362 svgShape"/><path fill="#ffffff" d="M707.19 318.14h153.29v43.26H707.19z" class="colorfff svgShape"/><path fill="#252362" d="M860.49 317.24h-153.3a.89.89 0 0 0-.89.9v43.26a.89.89 0 0 0 .89.89h153.3a.9.9 0 0 0 .9-.89v-43.26a.9.9 0 0 0-.9-.9Zm-.9 43.26h-151.5V319h151.5Z" class="color252362 svgShape"/><path fill="#ffffff" d="M801.84 267.33h44.71v40.65h-44.71z" class="colorfff svgShape"/><path fill="#252362" d="M846.55 266.43h-44.71a.9.9 0 0 0-.9.9V308a.9.9 0 0 0 .9.9h44.71a.9.9 0 0 0 .9-.9v-40.67a.9.9 0 0 0-.9-.9Zm-.9 40.65h-42.91v-38.85h42.91Z" class="color252362 svgShape"/><path fill="#ffffff" d="M768.16 280.68s-12.19.58-12.19 0v-9.87h-10.45V258l-7-10.45-31.36-.86V308h79v-74.9h-18Z" class="colorfff svgShape"/><path fill="#252362" d="M786.16 232.17h-18a.9.9 0 0 0-.9.9v46.76c-4.29.19-8.81.28-10.39.16v-9.18a.91.91 0 0 0-.9-.9h-9.55V258a.9.9 0 0 0-.16-.5l-7-10.45a.92.92 0 0 0-.73-.4l-31.35-.86a.89.89 0 0 0-.92.9V308a.89.89 0 0 0 .89.9h79a.9.9 0 0 0 .9-.9v-74.9a.9.9 0 0 0-.89-.93Zm-.89 74.91h-77.18v-59.43l30 .82 6.56 9.84v12.5a.9.9 0 0 0 .9.9h9.55v9a1 1 0 0 0 .3.69c.3.29.82.78 12.84.21a.9.9 0 0 0 .85-.9V234h16.21Z" class="color252362 svgShape"/><path fill="#ffffff" d="M801.84 330.62h-15.68v-12.48h-78.97v43.25h139.36v-43.25h-44.71v12.48z" class="colorfff svgShape"/><path fill="#252362" d="M846.55 317.24h-44.71a.9.9 0 0 0-.9.9v11.58h-13.88v-11.58a.9.9 0 0 0-.9-.9h-79a.89.89 0 0 0-.89.9v43.26a.89.89 0 0 0 .89.89h139.39a.89.89 0 0 0 .9-.89v-43.26a.9.9 0 0 0-.9-.9Zm-.9 43.26H708.09V319h77.18v11.59a.89.89 0 0 0 .89.9h15.68a.9.9 0 0 0 .9-.9V319h42.91Z" class="color252362 svgShape"/><path fill="#77cbd8" d="M746.97 274.01h4.65v11.61h-4.65z" class="color77cbd8 svgShape"/><path fill="#252362" d="M751.61 272.84H747a1.16 1.16 0 0 0-1.16 1.17v11.61a1.16 1.16 0 0 0 1.16 1.16h4.64a1.16 1.16 0 0 0 1.17-1.16V274a1.17 1.17 0 0 0-1.2-1.16Zm-1.16 11.62h-2.32v-9.29h2.32Z" class="color252362 svgShape"/><path fill="#77cbd8" d="M835.81 271.68h4.65v11.61h-4.65z" class="color77cbd8 svgShape"/><path fill="#252362" d="M840.45 270.52h-4.64a1.16 1.16 0 0 0-1.16 1.16v11.62a1.16 1.16 0 0 0 1.16 1.16h4.64a1.16 1.16 0 0 0 1.17-1.16v-11.62a1.16 1.16 0 0 0-1.17-1.16Zm-1.16 11.61H837v-9.28h2.32Z" class="color252362 svgShape"/><path fill="#77cbd8" d="M774.84 322.2h4.65v11.61h-4.65z" class="color77cbd8 svgShape"/><path fill="#252362" d="M779.49 321h-4.65a1.16 1.16 0 0 0-1.16 1.16v11.61a1.16 1.16 0 0 0 1.16 1.17h4.65a1.16 1.16 0 0 0 1.16-1.17V322.2a1.16 1.16 0 0 0-1.16-1.2Zm-1.17 11.61H776v-9.29h2.32Z" class="color252362 svgShape"/><path fill="#ffffff" d="M747 294.91c2.84-13.08-15.48-3.88-16.24-3.5 9.82-5.8-9.31-13.92-9.31-13.92s4.06-10.45-2.9-16.26-11.33 0-11.33 0V308h58.62c1.07-12.24-18.84-13.09-18.84-13.09Z" class="colorfff svgShape"/><path fill="#252362" d="M748 294.08c.42-2.76-.14-4.76-1.66-5.94-2.82-2.19-8.21-.78-12.13.74a4 4 0 0 0 .19-1.5c-.32-4.75-9.06-9.09-11.89-10.38.83-2.68 2.85-11.21-3.45-16.46-2.52-2.1-5-3-7.46-2.74a8 8 0 0 0-5.15 2.89.9.9 0 0 0-.18.54V308a.89.89 0 0 0 .89.9h58.62a.9.9 0 0 0 .9-.81 9.75 9.75 0 0 0-2.4-7.54c-4.28-5.01-13.21-6.2-16.28-6.47Zm-39.94 13v-45.52a6.36 6.36 0 0 1 3.77-2c1.92-.21 4 .57 6.08 2.34 6.38 5.32 2.68 15.15 2.64 15.25a.9.9 0 0 0 .49 1.15c3.13 1.33 11.32 5.57 11.56 9.18.08 1.11-.72 2.17-2.35 3.14a.89.89 0 0 0-.33 1.2.91.91 0 0 0 1.19.37c4-2 11.4-4.77 14.13-2.65 1.1.86 1.38 2.59.82 5.16a.93.93 0 0 0 .17.74.89.89 0 0 0 .67.35c.11 0 11.35.55 16 5.89a7.79 7.79 0 0 1 2 5.38Z" class="color252362 svgShape"/><path fill="#ffffff" d="M772.52 343.69c6.39-7-6.39-10.46-6.39-10.46 9.64-5.39 5.2-11.56 1.13-15.09h-60.07v43.26h63.23c4.69-1.22 8.85-3 11.39-5.52 9.29-9.29-9.29-12.19-9.29-12.19Z" class="colorfff svgShape"/><path fill="#252362" d="M774.14 343.08a5.15 5.15 0 0 0 .88-4.42c-.84-2.92-4.51-4.77-6.8-5.66 2.78-1.91 4.31-4.06 4.55-6.43.3-2.9-1.4-6.05-4.92-9.11a.94.94 0 0 0-.59-.22h-60.07a.89.89 0 0 0-.89.9v43.26a.89.89 0 0 0 .89.89h63.23a.91.91 0 0 0 .23 0c5.41-1.4 9.38-3.33 11.79-5.75s3.34-4.77 2.64-6.9c-1.3-4.01-7.93-5.89-10.94-6.56Zm7 12.16c-2.17 2.17-5.82 3.94-10.86 5.26h-62.19V319h58.83c2.07 1.86 4.35 4.57 4.06 7.36-.22 2.18-2 4.22-5.29 6.06a.88.88 0 0 0-.45.89.9.9 0 0 0 .65.76c1.8.49 6.63 2.35 7.41 5.06.34 1.18-.14 2.5-1.44 3.92a.88.88 0 0 0-.19.9.9.9 0 0 0 .71.59c2.69.42 9.9 2.25 11 5.6.46 1.47-.28 3.18-2.21 5.1Z" class="color252362 svgShape"/><path fill="#252362" d="M746.68 334.63c.08-3.16-.84-5.5-2.75-7-4-3.06-10.91-1.23-12.94-.6a6.3 6.3 0 0 0-5.18-2.59c-4.41.23-7.85 5.79-8 6a.82.82 0 0 0 .27 1.13.83.83 0 0 0 1.13-.27s3.14-5.06 6.68-5.25c1.47-.07 2.87.74 4.16 2.42a.83.83 0 0 0 .93.27c.08 0 8.06-2.83 11.94.17 1.64 1.26 2.33 3.46 2.06 6.53a.81.81 0 0 0 .26.67.84.84 0 0 0 .68.22c2.21-.33 5.65-.26 6.35.93.4.68-.07 1.94-1.32 3.56a.83.83 0 0 0 .15 1.15.8.8 0 0 0 .5.17.81.81 0 0 0 .65-.32c1.76-2.28 2.23-4 1.43-5.39-1.2-2.03-5.1-1.97-7-1.8Z" class="color252362 svgShape"/><path fill="#ffffff" d="M350.38 595.77h11.61l30.2-42.39h-25.55l-16.26 42.39z" class="colorfff svgShape"/><path fill="#252362" d="M392.19 552.42h-25.55a1 1 0 0 0-.9.62l-16.26 42.38a1 1 0 0 0 .1.9 1 1 0 0 0 .8.42H362a1 1 0 0 0 .79-.41L393 553.94a1 1 0 0 0-.79-1.52Zm-30.7 42.38h-9.7l15.51-40.45h23Z" class="color252362 svgShape"/><path fill="#ffffff" d="m515.29 553.38 30.19 42.39h11.61l-16.25-42.39h-25.55z" class="colorfff svgShape"/><path fill="#252362" d="M541.74 553a1 1 0 0 0-.9-.62h-25.55a1 1 0 0 0-.79 1.52l30.19 42.39a1 1 0 0 0 .79.41h11.61a1 1 0 0 0 .8-.42 1 1 0 0 0 .11-.9Zm4.26 41.8-28.82-40.45h23l15.52 40.45Z" class="color252362 svgShape"/><path fill="#ffffff" d="M358.97 358.28h189.29v202.65H358.97z" class="colorfff svgShape"/><path fill="#252362" d="M548.27 357.32H359a1 1 0 0 0-1 1v202.61a1 1 0 0 0 1 1h189.3a1 1 0 0 0 1-1V358.28a1 1 0 0 0-1.03-.96ZM547.3 560H359.94V359.25H547.3Z" class="color252362 svgShape"/><path fill="#252362" d="M548.27 407.81H359a1 1 0 0 0 0 2h189.3a1 1 0 0 0 0-2ZM548.27 457.74H359a1 1 0 0 0 0 2h189.3a1 1 0 0 0 0-2ZM548.27 507.68H359a1 1 0 0 0 0 2h189.3a1 1 0 0 0 0-2ZM426.33 381.51h54.58v6.39h-54.58z" class="color252362 svgShape"/><path fill="#252362" d="M426.06 388.16h55.12v-6.92h-55.12Zm.54-6.38h54v5.85h-54ZM426.45 430.86h54.58v6.39h-54.58z" class="color252362 svgShape"/><path fill="#252362" d="M426.18 437.52h55.12v-6.92h-55.12Zm.54-6.39h54V437h-54ZM426.56 480.22h54.58v6.39h-54.58z" class="color252362 svgShape"/><path fill="#252362" d="M426.29 486.88h55.12V480h-55.12Zm.54-6.39h54.05v5.85h-54.05ZM426.68 529.58h54.58v6.39h-54.58z" class="color252362 svgShape"/><path fill="#252362" d="M426.41 536.23h55.12v-6.92h-55.12Zm.54-6.38h54v5.84H427Z" class="color252362 svgShape"/></g><g data-name="man 3" fill="#000000" class="color000 svgShape"><rect width="304.36" height="231.1" x="280.82" y="26.32" fill="#ffffff" rx="13.82" class="colorfff svgShape"/><path fill="#252362" d="M571.35 24.58H294.64a15.59 15.59 0 0 0-15.57 15.57V243.6a15.59 15.59 0 0 0 15.57 15.57h276.71a15.58 15.58 0 0 0 15.57-15.57V40.15a15.58 15.58 0 0 0-15.57-15.57Zm12.08 219a12.09 12.09 0 0 1-12.08 12.08H294.64a12.09 12.09 0 0 1-12.08-12.08V40.15a12.09 12.09 0 0 1 12.08-12.08h276.71a12.09 12.09 0 0 1 12.08 12.08Z" class="color252362 svgShape"/><path fill="#ffffff" d="M548 109.62c-1.61-1-4.3.49-6.07 1.28a22.47 22.47 0 0 1-10.37 1.72c1 .75 7.81 5.91 11.18 4.12.25-.14.93-.59 2.29-1.51a17 17 0 0 0 3.26-2.76c.49-.55.77-.93.75-1.41a2.07 2.07 0 0 0-1.04-1.44Z" class="colorfff svgShape"/><path fill="#252362" d="M548.26 109.17c-1.65-1-4 0-5.85.91l-.72.33a22.23 22.23 0 0 1-10.14 1.68.53.53 0 0 0-.34 1c1.39 1.07 5.29 3.87 8.62 4.48a4.79 4.79 0 0 0 3.12-.31c.29-.15.93-.59 2.35-1.54a18 18 0 0 0 3.36-2.85 2.11 2.11 0 0 0-.4-3.65Zm-.39 2.94a16.74 16.74 0 0 1-3.17 2.68c-1.29.88-2 1.36-2.24 1.48-2 1.08-6-.82-9.26-3.09a22.36 22.36 0 0 0 8.92-1.8l.74-.34c1.55-.72 3.67-1.71 4.83-1a1.57 1.57 0 0 1 .79 1c.01.3-.14.55-.61 1.07Z" class="color252362 svgShape"/><path fill="#ffffff" d="M569.63 131.24c-4-1-18.06-3.86-18.06-3.86 14 1.91 17.78 1.11 18.19-.23a2.35 2.35 0 0 0-.41-1.63c-1.2-1.87-4.44-1.73-5.93-1.7a85 85 0 0 1-14.17-1.07 55.48 55.48 0 0 0 9.47-.35c1.36-.18 2.73-.43 3.13-1.37a1.65 1.65 0 0 0-.07-1.43c-.73-1.26-3.18-.75-7.77-.94a52.78 52.78 0 0 1-3.54-.27 71.6 71.6 0 0 0-23-4c5.67 5.79 14 13.06 24.21 18.19 3.38 1.69 9.5 1.45 15.47 2.77 3.72.79 6.51-3.09 2.48-4.11Z" class="colorfff svgShape"/><path fill="#252362" d="M569.76 130.72c-1.56-.39-4.67-1.07-7.88-1.75 6.67.34 8.08-.64 8.39-1.66a2.8 2.8 0 0 0-.47-2.08c-1.33-2.06-4.65-2-6.25-1.94h-.14c-1.93 0-4 0-6.28-.18.55 0 1.1-.11 1.66-.19 1.52-.2 3-.49 3.55-1.68a2.2 2.2 0 0 0-.1-1.91c-.68-1.16-2.24-1.16-4.83-1.15-1 0-2.08 0-3.37-.05s-2.33-.14-3.45-.26a71.86 71.86 0 0 0-23.07-4 .54.54 0 0 0-.49.32.52.52 0 0 0 .11.58A92.3 92.3 0 0 0 551.48 133a13.75 13.75 0 0 0 3.68 1.12c1.42.26 3 .44 4.7.63a66.81 66.81 0 0 1 7.21 1.07c2.5.55 4.64-.8 5-2.36.25-.97-.24-2.21-2.31-2.74Zm1.29 2.52c-.22.93-1.79 2-3.75 1.57a70.45 70.45 0 0 0-7.32-1.09c-3.29-.37-6.13-.68-8-1.64a90.63 90.63 0 0 1-23.14-17.15c2 0 4.07.2 6.07.43a70.7 70.7 0 0 1 15.41 3.53h.12c1.17.13 2.37.22 3.58.27s2.44 0 3.43 0c2.13 0 3.53 0 3.9.63a1.1 1.1 0 0 1 0 .95c-.29.68-1.55.9-2.71 1.05a55.45 55.45 0 0 1-9.37.35.53.53 0 0 0-.56.48.55.55 0 0 0 .45.58 86.63 86.63 0 0 0 14.27 1.07h.14c1.4 0 4.32-.1 5.33 1.45a1.93 1.93 0 0 1 .35 1.19c-.16.51-1.9 2-17.61-.13a.53.53 0 0 0-.18 1c.14 0 14.07 2.85 18 3.85.54.26 1.81.68 1.59 1.61Z" class="color252362 svgShape"/><path fill="#ffffff" d="M555.67 132.15c-9.39-3.25-9.1-13.1-20-18.44-8.59-4.21-10.35 4.92-11 5.94l-9.39 8.74L527.2 141l10.8-13.39s10.79 7.26 14.33 8.56c4.57 1.69 11.46 3.12 12.94.8a1.8 1.8 0 0 0 .27-1.23c-.37-2.25-5.8-2.19-9.87-3.59Z" class="colorfff svgShape"/><path fill="#252362" d="M560.2 132.71a32.28 32.28 0 0 1-4.36-1.07c-4.52-1.56-6.67-4.65-9.16-8.22s-5.19-7.45-10.77-10.19c-2.52-1.23-4.74-1.48-6.6-.73-3 1.19-4.18 4.56-4.77 6.18-.09.25-.19.52-.25.65L515 128a.5.5 0 0 0-.17.37.49.49 0 0 0 .14.38l11.87 12.66a.56.56 0 0 0 .29.16h.12a.49.49 0 0 0 .39-.19l10.51-13.06c2 1.35 10.83 7.16 14 8.35 4.2 1.55 11.78 3.42 13.58.58a2.39 2.39 0 0 0 .35-1.6c-.32-1.83-2.9-2.35-5.88-2.94Zm-35.48-13.06Zm40.11 17c-1.14 1.8-7.15.9-12.31-1-3.43-1.27-14.1-8.43-14.21-8.5a.53.53 0 0 0-.71.1l-10.43 13-11.09-11.83 9-8.37a.38.38 0 0 0 .09-.12 5 5 0 0 0 .36-.88c.54-1.47 1.65-4.54 4.18-5.56 1.56-.63 3.5-.39 5.73.71 5.33 2.61 7.89 6.29 10.37 9.84s4.83 6.94 9.68 8.62a36 36 0 0 0 4.5 1.1c2.49.5 4.85 1 5 2.08a1.26 1.26 0 0 1-.16.84ZM442.59 35.48s-2.62-11.34-15.7-4.36c-1.08-.55-5.73-2.77-10.46-.87-4.08 1.63-5.84 5.34-7 7.85-5.14 11.26-3.2 29.36 7 34a13.87 13.87 0 0 0 7.78.93c8.58-1.35 15.73-10.13 18.12-22.23 0 0 18.57-1.38 11.6-11s-11.34-4.32-11.34-4.32Z" class="color252362 svgShape"/><path fill="#252362" d="M446.08 33.58a5.05 5.05 0 0 0-3.25 1 9.48 9.48 0 0 0-4.76-5.5c-3-1.36-6.73-.86-11.18 1.47-1.88-.92-6.22-2.55-10.64-.78s-6.15 5.75-7.25 8.13c-5.33 11.68-3 30 7.21 34.64a13.74 13.74 0 0 0 5.66 1.16 14.48 14.48 0 0 0 2.39-.19c8.72-1.37 15.94-10.09 18.45-22.26 1.94-.18 10.83-1.27 12.83-5.6.82-1.77.4-3.82-1.25-6.09-2.8-3.88-5.57-5.89-8.21-5.98Zm8.62 11.67c-2 4.26-12.3 5.08-12.4 5.09h-.36l-.07.36c-2.37 12-9.33 20.53-17.74 21.85a13.42 13.42 0 0 1-7.51-.9c-9.78-4.47-11.88-22.09-6.74-33.37 1-2.25 2.74-6 6.72-7.61a10.32 10.32 0 0 1 3.83-.72 14.29 14.29 0 0 1 6.25 1.58l.22.11.22-.12c4.26-2.27 7.81-2.8 10.55-1.56 3.48 1.58 4.45 5.57 4.45 5.61l.22.93.61-.73a4 4 0 0 1 3.05-1.23c2.31.07 4.9 2 7.5 5.58 1.5 1.97 1.86 3.7 1.2 5.13Z" class="color252362 svgShape"/><path fill="#ffffff" d="M330.53 103.94c-2.62-4.36-1.75-3.49-4.36-3.49s6.1 15.7 6.1 15.7-8.72-11.34-10.46-13.08-2.62-.87-3.59.63 9.69 14.19 9.69 14.19-10.46-8.72-11.78-10.53-3.05-.8-3.05.94 11.42 12.12 11.42 12.12-11.42-8.63-9.51-4.74 19 16.17 19 16.17c9.6 7.84 17.45-4.36 17.45-4.36l-11.84-10.43s-6.46-8.76-9.07-13.12Z" class="colorfff svgShape"/><path fill="#252362" d="M340.21 116.5c-.62-.84-6.54-8.91-9-13-.31-.53-.58-1-.8-1.36-1.35-2.28-1.59-2.7-3.26-2.57h-1a1.21 1.21 0 0 0-1.09.61c-.67 1.13.62 4.64 2.38 8.4-2.14-2.71-4.28-5.36-5.07-6.15a3.19 3.19 0 0 0-2.5-1.2 3.59 3.59 0 0 0-2.36 2c-.26.4-.93 1.43 4.29 8.36a52.2 52.2 0 0 1-5-4.73 2.55 2.55 0 0 0-2.84-1.2 2.66 2.66 0 0 0-1.7 2.62c0 1 2.17 3.51 4.85 6.22-2.05-1-2.5-.62-2.76-.41-.49.41-.53 1-.1 1.93 1.93 3.94 17.4 15.12 19.27 16.46a11.16 11.16 0 0 0 7.09 2.8 9.61 9.61 0 0 0 1.51-.12c5.91-.93 9.86-7 10-7.25a.83.83 0 0 0-.15-1.06Zm1.65 17.06a9.15 9.15 0 0 1-7.33-2.35c-4.49-3.22-16.11-12-18.48-15.39a60.91 60.91 0 0 1 8 5.29.82.82 0 0 0 1.12-.13.81.81 0 0 0-.08-1.13c-5.23-4.77-10.81-10.37-11.14-11.56a1 1 0 0 1 .55-1c.29-.09.67.13 1 .6 1.33 1.84 10.84 9.78 11.91 10.68a.82.82 0 0 0 1.16-1.16C324 112 319.15 105.45 319 104c.25-.39.72-1.07 1.08-1.11s.68.24 1.17.73c1.68 1.68 10.3 12.89 10.39 13a.82.82 0 0 0 1.37-.9c-3.23-5.81-6.5-12.75-6.51-14.48h.82a3.42 3.42 0 0 1 .54 0A9 9 0 0 1 329 103l.81 1.36c2.61 4.35 8.85 12.83 9.12 13.18a.49.49 0 0 0 .12.13l11.3 9.94c-1.09 1.47-4.35 5.29-8.49 5.95Z" class="color252362 svgShape"/><path fill="#77cbd8" d="m286.28 69.64 14.13 59.06c24-11.45 43.28-10.35 43.28-10.35l-14.27-55.69c-8.42-5.14-43.14 6.98-43.14 6.98Z" class="color77cbd8 svgShape"/><path fill="#252362" d="M330.61 62.36a1.27 1.27 0 0 0-.55-.75c-8.63-5.29-40.57 5.61-44.18 6.87a1.24 1.24 0 0 0-.79 1.45L299.22 129a1.22 1.22 0 0 0 1.72.82c23.36-11.17 42.49-10.25 42.68-10.24a1.22 1.22 0 0 0 1.26-1.53Zm11.49 54.73c-5.11 0-21.24.8-40.85 9.86l-13.52-56.51c10-3.41 33.79-10.27 40.63-7l13.74 53.61Z" class="color252362 svgShape"/><path fill="#77cbd8" d="m329.42 62.66 14.27 55.69s21.51-13.73 41.72-10.93L370.55 53.3s-23.55-6.76-41.13 9.36Z" class="color77cbd8 svgShape"/><path fill="#252362" d="M371.73 53a1.22 1.22 0 0 0-.84-.85c-.24-.07-24.41-6.76-42.3 9.64a1.23 1.23 0 0 0-.36 1.2l14.28 55.69a1.23 1.23 0 0 0 .73.84 1.19 1.19 0 0 0 .45.08 1.21 1.21 0 0 0 .66-.19c.21-.13 21.35-13.44 40.89-10.75a1.23 1.23 0 0 0 1.35-1.54Zm-27.26 63.48-13.68-53.4c15.19-13.41 34.94-9.66 38.77-8.77L383.74 106c-17.05-1.58-34.24 7.52-39.27 10.45Z" class="color252362 svgShape"/><path fill="#ffffff" d="M342.83 51a33.2 33.2 0 0 0-13.13 11.83 48.63 48.63 0 0 0-16.7-4.1c-6.94-.42-12.52.8-19.35 2.3a113 113 0 0 0-11.74 3.23l15.93 58.63c4.64-3 16.93-9.89 32.69-8.06a46.67 46.67 0 0 1 13.47 3.69 45.58 45.58 0 0 1 15-10.75 46.85 46.85 0 0 1 28-2.87q-7.2-26.9-14.35-53.78c-2.09-.95-15.88-6.98-29.82-.12Z" class="colorfff svgShape"/><path fill="#252362" d="M373.57 50.88a1 1 0 0 0-.52-.62c-3.76-1.71-17.06-6.79-30.64-.12a34.1 34.1 0 0 0-13.07 11.51A49.59 49.59 0 0 0 313 57.78c-7.06-.42-12.87.85-19.61 2.33a116.1 116.1 0 0 0-11.83 3.25 1 1 0 0 0-.62 1.15l15.94 58.62a.94.94 0 0 0 .57.64 1 1 0 0 0 .34.06.92.92 0 0 0 .51-.15c5.76-3.67 17.58-9.59 32.07-7.91a45.37 45.37 0 0 1 13.18 3.62 1 1 0 0 0 1.08-.23 44.51 44.51 0 0 1 14.75-10.53 46.18 46.18 0 0 1 27.34-2.8 1 1 0 0 0 .88-.28.94.94 0 0 0 .22-.89Zm-14.91 56a46.12 46.12 0 0 0-14.92 10.49 47.16 47.16 0 0 0-13.11-3.5c-14.21-1.65-25.92 3.7-32.22 7.52l-15.36-56.51c3.52-1.14 7.15-2.13 10.8-2.92 6.86-1.51 12.28-2.69 19.08-2.29a48 48 0 0 1 16.39 4 .94.94 0 0 0 1.17-.36 32.32 32.32 0 0 1 12.76-11.5c12.38-6.08 24.57-1.81 28.6 0l13.8 51.9a48 48 0 0 0-26.99 3.19Z" class="color252362 svgShape"/><path fill="#252362" d="M321.87 69c-1.79.42-3.81.91-6.26-.25-2.82-1.32-9.82-1.08-10.11-1.07a.79.79 0 0 0-.47.19c-.83.74-3.36 2.63-5 2.46a1.5 1.5 0 0 1-1.09-.62 2.89 2.89 0 0 0-2-1.17c-2.85-.37-6.72 2.63-7.15 3a.76.76 0 0 0-.12 1.05.77.77 0 0 0 .58.28.75.75 0 0 0 .47-.17c1-.82 4.14-2.9 6-2.65a1.39 1.39 0 0 1 1 .57 2.93 2.93 0 0 0 2.13 1.21c2.34.24 5.14-1.94 6-2.64 2.11-.06 7.19 0 9.17.94a10.13 10.13 0 0 0 7.23.34.74.74 0 0 0-.34-1.44ZM363 57.94c-1.61.47-4 1.17-8.66 0-2.64-.68-4.44-.66-5.66.06a4.61 4.61 0 0 0-1.88 3.2c-.28 1.11-.49 1.81-1.18 2.08a63.67 63.67 0 0 1-9.32 2.22.75.75 0 0 0 .12 1.48h.13a63.62 63.62 0 0 0 9.62-2.31c1.43-.56 1.77-1.91 2.07-3.1.25-1 .46-1.84 1.2-2.28s2.36-.46 4.53.1c5 1.29 7.68.52 9.45 0 1.34-.38 1.64-.44 2.19.22a.75.75 0 1 0 1.14-1c-1.16-1.41-2.34-1.07-3.75-.67ZM368.1 66.94l-20.25 4.85-12.46 1.55a.74.74 0 0 0 .09 1.48h.1l12.49-1.56h.08l20.29-4.85a.75.75 0 0 0 .55-.9.73.73 0 0 0-.89-.57ZM325.74 81c-.07 0-7.11-.35-10.34-2.25-3.58-2.11-10.62 1.27-11.51 1.72l-9.56 2.23a.75.75 0 0 0 .17 1.47h.17l9.65-2.26a.58.58 0 0 0 .17-.06c2-1 7.63-3.3 10.15-1.81 3.56 2.1 10.73 2.45 11 2.46a.73.73 0 0 0 .78-.7.75.75 0 0 0-.68-.8Z" class="color252362 svgShape"/><path fill="#77cbd8" d="M348.48 100.52a54.9 54.9 0 0 1 23.9-5.72l-18-13.33Z" class="color77cbd8 svgShape"/><path fill="#252362" d="M354.83 80.91a.71.71 0 0 0-.63-.11.67.67 0 0 0-.45.46l-5.93 19a.71.71 0 0 0 .21.74.69.69 0 0 0 .45.16.64.64 0 0 0 .31-.07A53.83 53.83 0 0 1 360.05 97a54.51 54.51 0 0 1 12.34-1.54.7.7 0 0 0 .61-.46.71.71 0 0 0-.25-.78Zm4.89 14.78a54.69 54.69 0 0 0-10.1 3.52l5.16-16.6 15.57 11.55a56.07 56.07 0 0 0-10.63 1.53Z" class="color252362 svgShape"/><path fill="#252362" d="M354.87 81.94a.74.74 0 1 0-1.38.56l1 2.58a.74.74 0 0 0 .69.46 1 1 0 0 0 .28-.05.75.75 0 0 0 .41-1ZM357.11 87.52a.73.73 0 0 0-1-.42.74.74 0 0 0-.41 1l1.21 3a.72.72 0 0 0 .68.46.87.87 0 0 0 .28 0 .74.74 0 0 0 .41-1ZM359.53 93.51a.74.74 0 1 0-1.38.55l1 2.58a.75.75 0 0 0 .69.46.66.66 0 0 0 .28 0 .74.74 0 0 0 .41-1ZM326.74 108a27.13 27.13 0 0 0-3.74-1l-23.85-13.74-.27-.94a1 1 0 0 0-1.18-.64.94.94 0 0 0-.64 1.17l5.43 18.72a1 1 0 0 0 .56.62 1 1 0 0 0 .35.06.89.89 0 0 0 .48-.13 26.67 26.67 0 0 1 15-3.82 25.72 25.72 0 0 1 7.25 1.49 1 1 0 0 0 1.21-.57.94.94 0 0 0-.6-1.22Z" class="color252362 svgShape"/><path fill="#252362" d="m304.05 94.54-4.8-2.81a.74.74 0 0 0-1 .27.73.73 0 0 0 .27 1l4.8 2.81a.69.69 0 0 0 .37.1.74.74 0 0 0 .38-1.38ZM313.65 100.16l-4.8-2.81a.75.75 0 0 0-1 .27.73.73 0 0 0 .27 1l4.8 2.81a.7.7 0 0 0 .37.11.75.75 0 0 0 .38-1.39ZM323.25 105.78l-4.8-2.81a.75.75 0 0 0-1 .27.73.73 0 0 0 .27 1l4.8 2.82a.79.79 0 0 0 .37.1.73.73 0 0 0 .64-.37.75.75 0 0 0-.28-1.01ZM329.81 61.12a.74.74 0 0 0-1.44.37l14.6 57a.74.74 0 0 0 .72.56h.19a.75.75 0 0 0 .53-.91ZM460.47 105.2c-15.26-16.6-55.91-13.58-68.9 5.11-2.72 3.92-4.21 8.5-3.49 37.46.47 18.82 1.54 34.35 2.43 45.12h82.83c-2-22.07-3.72-40.35-5-53.63-2.28-23.06-2.96-28.71-7.87-34.06Z" class="color252362 svgShape"/><path fill="#252362" d="M469.15 139.17c-2.29-23.32-3-29-8.07-34.53-7.25-7.9-20.55-12-35.57-11s-28.41 7.23-34.62 16.17c-3 4.33-4.35 9.49-3.64 38 .38 15.11 1.2 30.31 2.43 45.17l.07.77h84.51l-.09-.91c-1.61-18.01-3.3-36.05-5.02-53.67Zm-77.87 52.89c-1.2-14.59-2-29.49-2.36-44.31-.72-29 .78-33.28 3.34-37 5.93-8.54 18.72-14.47 33.36-15.46s27.32 2.91 34.23 10.44c4.69 5.1 5.4 10.69 7.64 33.57 1.69 17.31 3.35 35 4.94 52.72Z" class="color252362 svgShape"/><path fill="#252362" d="m511.92 122.25-19.19 16.57A74.76 74.76 0 0 1 477 124c-5.74-7.3-7.05-11.93-13.09-17.44a42.57 42.57 0 0 0-14.82-8.73q3 17.88 6.1 35.76c2.81 6.83 9.55 20.19 23.55 27.91a33.94 33.94 0 0 0 12.26 4.36c10.65 1.46 19-3.09 26.16-7A72.73 72.73 0 0 0 539 140.57a36.71 36.71 0 0 0-4.79-6.43c-7.76-8.28-17.39-10.94-22.29-11.89Z" class="color252362 svgShape"/><path fill="#252362" d="M534.78 133.56a41.74 41.74 0 0 0-22.7-12.14l-.4-.07-19 16.4a74.45 74.45 0 0 1-15-14.27 90.52 90.52 0 0 1-5.25-7.56 44.08 44.08 0 0 0-7.93-10A43.32 43.32 0 0 0 449.41 97l-1.35-.47 6.34 37.16.05.18c3.68 8.93 10.81 21.1 23.92 28.33a34.68 34.68 0 0 0 12.5 4.45 29.67 29.67 0 0 0 4.13.35c9 0 16.43-4 22.54-7.36a73.34 73.34 0 0 0 22.05-18.52l.37-.46-.3-.5a37.89 37.89 0 0 0-4.88-6.6Zm-18 24.58c-7.16 3.89-15.27 8.31-25.65 6.88a33 33 0 0 1-11.91-4.26c-12.64-7-19.56-18.73-23.14-27.4l-5.84-34.23a41.14 41.14 0 0 1 13.17 8.05 42.72 42.72 0 0 1 7.65 9.65 91.14 91.14 0 0 0 5.34 7.69 76.49 76.49 0 0 0 15.87 15l.54.38 19.38-16.73a39.87 39.87 0 0 1 21.38 11.55 36.66 36.66 0 0 1 4.39 5.78 71.59 71.59 0 0 1-21.21 17.64Z" class="color252362 svgShape"/><path fill="#ffffff" d="M442.2 49.75c-.86-1-3.71-4.25-7.92-4.44-3.15-.14-7.43 1.42-7.43 2.73a25.71 25.71 0 0 0-1.44 3.83 26.16 26.16 0 0 0-1 8c-2.12-3.9-6-5.39-8.45-4.23s-2.74 5-2.75 5.18a8 8 0 0 0 4.26 7.11v32.28a9 9 0 0 0 12.53 8.36 11.93 11.93 0 0 0 3.71-2.69 9 9 0 0 0 2.49-6.23v-17a9.89 9.89 0 0 0 2.87-.09 11.24 11.24 0 0 0 6-3.41 10.81 10.81 0 0 0 2.37-6.15c.53-4.72-1.4-7.17-3.29-13.63a59.45 59.45 0 0 1-1.95-9.62Z" class="colorfff svgShape"/><path fill="#252362" d="M444.94 59.18a59.14 59.14 0 0 1-1.94-9.53.8.8 0 0 0-.18-.42c-1.38-1.69-4.33-4.56-8.51-4.74-2.7-.11-6.28.92-7.63 2.22a2 2 0 0 0-.65 1.12 28.57 28.57 0 0 0-1.42 3.81 26.87 26.87 0 0 0-1 5.71c-2.48-2.75-5.84-3.49-8-2.44-3 1.41-3.2 5.44-3.21 5.89a8.8 8.8 0 0 0 4.26 7.6v31.82a9.92 9.92 0 0 0 4.57 8.37 9.64 9.64 0 0 0 5.25 1.57 9.47 9.47 0 0 0 3.9-.84 12.86 12.86 0 0 0 4-2.87 9.74 9.74 0 0 0 2.72-6.8V83.53a10.67 10.67 0 0 0 2.19-.16 12.11 12.11 0 0 0 6.48-3.69 11.67 11.67 0 0 0 2.54-6.55c.38-3.42-.46-5.71-1.62-8.89a55.68 55.68 0 0 1-1.75-5.06ZM446.63 73a10 10 0 0 1-2.16 5.66 10.47 10.47 0 0 1-5.47 3.09 9 9 0 0 1-2.64.08.88.88 0 0 0-.64.2.85.85 0 0 0-.27.62v17a8.1 8.1 0 0 1-2.26 5.66 11.3 11.3 0 0 1-3.45 2.51 7.85 7.85 0 0 1-7.59-.6 8.31 8.31 0 0 1-3.82-7V67.94a.84.84 0 0 0-.41-.71 7.24 7.24 0 0 1-3.92-6.37s.15-3.46 2.28-4.47a3.37 3.37 0 0 1 1.44-.3c2 0 4.43 1.41 5.94 4.18a.82.82 0 0 0 .94.4.8.8 0 0 0 .6-.81 25.66 25.66 0 0 1 1-7.77 24.62 24.62 0 0 1 1.39-3.7.63.63 0 0 0 .07-.3c.22-.62 3.55-2.09 6.59-2 3.4.15 5.89 2.46 7.16 4a61.67 61.67 0 0 0 1.95 9.55c.61 2.06 1.21 3.71 1.74 5.17 1.12 3.07 1.9 5.1 1.53 8.19Z" class="color252362 svgShape"/><path fill="#252362" d="M427.13 78.91a49.32 49.32 0 0 0 9.1 8.91v-5.31c-4-.11-7.17-1.31-9.1-3.6Z" class="color252362 svgShape"/><path fill="#252362" d="m427.49 78.61-.73.6a49.46 49.46 0 0 0 9.2 9l.75.51v-6.67h-.47c-3.92-.13-6.95-1.31-8.75-3.44Zm8.26 8.29a43.42 43.42 0 0 1-5.56-5.16 15.43 15.43 0 0 0 5.56 1.26ZM439.18 55.85l-1.33.54c0 .08 3.28 8 3.74 9.36a.28.28 0 0 1 0 .26 2.36 2.36 0 0 1-1.33.68l.28 1.42a3.73 3.73 0 0 0 2.29-1.38 1.72 1.72 0 0 0 .14-1.44c-.49-1.42-3.66-9.12-3.79-9.44Z" class="color252362 svgShape"/><path fill="#ffffff" d="M346.22 117.89a13.05 13.05 0 0 1-4.5-5.35c-1-2.27-1-4.28-2.14-4.61-.93-.27-2.12.57-2.79 1.45-1.66 2.22.71 4.54.63 10.59a24.25 24.25 0 0 0 .08 3.15 22 22 0 0 0 .88 4.37c.13.25 1.75 3.11 4.67 3.31s5.41-2.68 6.05-5.2a7.51 7.51 0 0 0-2.88-7.71Z" class="colorfff svgShape"/><path fill="#252362" d="M346.71 117.23a12.4 12.4 0 0 1-4.24-5 17.32 17.32 0 0 1-.73-2.17c-.38-1.32-.73-2.57-1.94-2.91s-2.84.65-3.66 1.76c-1.14 1.52-.78 3.06-.32 5a23.22 23.22 0 0 1 .78 6.07v.36a20.37 20.37 0 0 0 .09 2.88 22.58 22.58 0 0 0 .9 4.53l.06.15c.2.36 2 3.51 5.35 3.74h.37c3.27 0 5.79-2.94 6.53-5.83a8.31 8.31 0 0 0-3.19-8.58Zm1.6 8.16c-.52 2-2.48 4.77-5.2 4.59-2.31-.15-3.73-2.39-4-2.82a21.36 21.36 0 0 1-.81-4.11 20.55 20.55 0 0 1-.08-2.69V120a24.77 24.77 0 0 0-.82-6.47c-.45-1.89-.62-2.77 0-3.63s1.45-1.3 1.91-1.16.55.91.8 1.77a17.68 17.68 0 0 0 .81 2.38 14 14 0 0 0 4.75 5.67 6.66 6.66 0 0 1 2.64 6.83Z" class="color252362 svgShape"/><path fill="#252362" d="M391.57 110a71.53 71.53 0 0 0-8.72 11.34c-3.3 4.87-8.19 11.78-14.82 20.06l-13.09-20.06L327 134.46a197 197 0 0 0 21 28.78c9.92 11.3 13.53 12.75 16.57 13.08 10.12 1.12 18.58-9.69 25.29-17.44a76.62 76.62 0 0 0 16.57-33.14l-2.62-25.29a60.75 60.75 0 0 0-12.24 9.55Z" class="color252362 svgShape"/><path fill="#252362" d="M403.35 99.73a61.21 61.21 0 0 0-12.35 9.72 65.31 65.31 0 0 0-8 10.21l-.84 1.25c-4.28 6.32-9 12.74-14.06 19.09l-12.84-19.69-29.43 13.79.48.8a199.7 199.7 0 0 0 21 28.9c10.3 11.73 14 13 17.11 13.36a13.86 13.86 0 0 0 1.56.09c9.17 0 16.84-8.93 23.06-16.18l1.41-1.64a76.75 76.75 0 0 0 16.75-33.5v-.14l-2.77-26.74Zm-14.16 58.6-1.41 1.67c-6.31 7.35-14.17 16.51-23.15 15.51-2.69-.29-6.14-1.53-16-12.8a197.3 197.3 0 0 1-20.36-27.85l26.4-12.37L368 142.88l.72-.91c5.36-6.68 10.36-13.45 14.87-20.12l.84-1.25a63.47 63.47 0 0 1 7.79-10 59.48 59.48 0 0 1 10.9-8.76l2.46 23.82a74.91 74.91 0 0 1-16.39 32.67Z" class="color252362 svgShape"/><path fill="#ffffff" d="M387 130.51c.25 12.89.9 36.49.91 36.73l1.74-.05c0-.23-.65-23.83-.91-36.72ZM465.72 123.08c0 .23 2.38 23.6 4.22 42.28l1.74-.17c-1.85-18.68-4.2-42-4.23-42.28ZM492.88 137.56c0 .05 3.18 5-.09 14.05l1.64.59c3.59-9.89.05-15.38-.1-15.61ZM367.16 139.77c0 .1.83 9.53-.85 16.28l1.69.43c1.76-7 .93-16.47.89-16.86ZM388.12 117.81l1.38 1.07c13.17-17 21-15.84 21.09-15.83l.35-1.71c-.36-.07-8.84-1.61-22.82 16.47ZM459.6 139.76c0 .34 2.61 34.07 2.61 41.79H464c0-7.79-2.51-40.53-2.61-41.92ZM457.85 124.87h1.74v6.98h-1.74zM419.29 125.29a3.7 3.7 0 0 0-3.25-2.94 3.22 3.22 0 0 0-3.48 2.2 6.81 6.81 0 0 0-.36 3.65 7.19 7.19 0 0 1-5.08-2.94l-.72.48.72-.48-.72.48-.73.48a9.08 9.08 0 0 0 7 3.74 10 10 0 0 0 1.07 2c1.38 2 3.29 3.37 4.86 3.37v-1.74c-.82 0-2.26-.9-3.42-2.61a8.65 8.65 0 0 1-.69-1.22 10.53 10.53 0 0 0 1.83-.6c3-1.28 3.08-3.16 2.97-3.87Zm-5.34 2.8a5.05 5.05 0 0 1 .23-2.9 1.52 1.52 0 0 1 1.45-1.12h.2a2 2 0 0 1 1.74 1.46c.1.71-.6 1.45-1.92 2a9.13 9.13 0 0 1-1.65.56ZM444 99.59l-.29 1.72c.11 0 10.24 1.78 16.94 9.31l1.3-1.16c-7.06-7.98-17.47-9.8-17.95-9.87ZM419.84 167.92a6.43 6.43 0 0 0 3.81-2.39c3.2-4 2.41-6.84 1.65-8.18a5.81 5.81 0 0 0-5.77-2.75 5.2 5.2 0 0 0-4.39 4.07 10.79 10.79 0 0 0 .43 7.08c-7-2.5-15.38-12.54-15.48-12.66l-1.34 1.11c.44.54 10.31 12.38 18.29 13.73l.1.1c1.37 1.4 3.77 2.81 7.81 2.81a23.51 23.51 0 0 0 5.19-.64l-.39-1.7c-4.13.95-7.57.74-9.91-.58Zm-1.92-1.63a8.3 8.3 0 0 1-1.08-7.2 3.39 3.39 0 0 1 2.93-2.76 4 4 0 0 1 4 1.88c.94 1.65.4 3.86-1.49 6.23a4.64 4.64 0 0 1-3.78 1.87ZM527.17 145c-5.67 4.11-16.21 11.77-32 14.8l.32 1.71c16.16-3.11 26.91-10.91 32.68-15.1a20.91 20.91 0 0 1 3.62-2.37.31.31 0 0 1-.22 0l.78-1.56c-.97-.57-2.12.26-5.18 2.52Z" class="colorfff svgShape"/><path fill="#ffffff" d="M280.82 243.6a13.83 13.83 0 0 0 13.82 13.83h276.71a13.83 13.83 0 0 0 13.82-13.83v-63.79H280.82Z" class="colorfff svgShape"/><path fill="#252362" d="M585.17 178.46H280.82a1.35 1.35 0 0 0-1.35 1.35v63.79a15.18 15.18 0 0 0 15.17 15.17h276.71a15.18 15.18 0 0 0 15.17-15.17v-63.79a1.35 1.35 0 0 0-1.35-1.35Zm-1.34 65.14a12.5 12.5 0 0 1-12.48 12.48H294.64a12.49 12.49 0 0 1-12.47-12.48v-62.44h301.66Z" class="color252362 svgShape"/><path fill="#77cbd8" d="m433 199.89-33.58-7-7 44.48a59.29 59.29 0 0 1 40.12 0 97 97 0 0 1 37.5 0q-4.14-22.25-8.29-44.48Z" class="color77cbd8 svgShape"/><path fill="#252362" d="M462.46 192.76a.72.72 0 0 0-.31-.45.64.64 0 0 0-.54-.09L433 199.17l-33.42-7a.67.67 0 0 0-.53.11.71.71 0 0 0-.3.46l-7 44.48a.68.68 0 0 0 .24.64.66.66 0 0 0 .44.16.67.67 0 0 0 .24 0 58.56 58.56 0 0 1 39.64 0 .67.67 0 0 0 .37 0 96.75 96.75 0 0 1 37.24 0 .69.69 0 0 0 .62-.19.67.67 0 0 0 .19-.62Zm-7.2 42.17a98 98 0 0 0-22.65 1.72 60 60 0 0 0-19.23-3.47h-.89a59.91 59.91 0 0 0-19.18 3.15l6.69-42.61 32.86 6.85a.65.65 0 0 0 .31 0l28.07-6.82 8 42.75a98.8 98.8 0 0 0-13.98-1.57Z" class="color252362 svgShape"/><path fill="#ffffff" d="M432.56 196.38v38.37s21.8-9.59 41 0l-4.85-41.86s-22.2-10.46-36.15 3.49Z" class="colorfff svgShape"/><path fill="#252362" d="M469.1 192c-.23-.11-23-10.59-37.21 3.67a1 1 0 0 0-.28.67v38.37a1 1 0 0 0 1.33.87c.21-.1 21.63-9.3 40.18 0a.94.94 0 0 0 .43.1 1 1 0 0 0 .54-.17.94.94 0 0 0 .4-.89l-4.85-41.86a.93.93 0 0 0-.54-.76Zm-35.59 41.31v-36.53c12.22-11.83 31.09-4.6 34.31-3.24l4.59 39.63c-16.41-7.34-33.97-1.7-38.9.18Z" class="color252362 svgShape"/><path fill="#ffffff" d="m395.93 189.4-7 45.35c24.41-15.7 43.6 0 43.6 0v-38.37c-13.05-13.08-36.6-6.98-36.6-6.98Z" class="colorfff svgShape"/><path fill="#252362" d="M395.69 188.49a.93.93 0 0 0-.69.77l-7 45.35a1 1 0 0 0 .42.94 1 1 0 0 0 1 0c9.87-6.35 20-8.29 30.13-5.79a34.47 34.47 0 0 1 12.45 5.73 1 1 0 0 0 1 .12 1 1 0 0 0 .54-.86v-38.37a1 1 0 0 0-.28-.67c-13.34-13.31-36.58-7.48-37.57-7.22Zm35.92 44.42a37.74 37.74 0 0 0-11.47-5 36.62 36.62 0 0 0-9-1.11 41 41 0 0 0-21 6l6.57-42.69c3.69-.81 23.39-4.48 34.84 6.6Z" class="color252362 svgShape"/><path fill="#252362" d="M392.56 234.07a.75.75 0 0 0-.39 1 .76.76 0 0 0 1 .38c.24-.1 23.75-10.15 37.2.77a.75.75 0 0 0 .47.17.74.74 0 0 0 .46-1.32c-14.16-11.51-37.74-1.43-38.74-1ZM468.55 234.92c-10.5-3.5-35-1-36.07-.91a.76.76 0 0 0-.66.82.74.74 0 0 0 .82.66c.25 0 25.25-2.56 35.44.84a1 1 0 0 0 .24 0 .74.74 0 0 0 .23-1.45ZM466.9 225.37c-.36-.19-9.16-4.44-25.81-.06a.76.76 0 0 0-.53.91.75.75 0 0 0 .72.55h.19c16-4.22 24.65-.11 24.77-.05a.74.74 0 0 0 1-.34.73.73 0 0 0-.34-1.01ZM425.06 225.38c-11.5-6.2-25.32-1.13-25.9-.92a.75.75 0 0 0-.43 1 .73.73 0 0 0 .95.43c.14 0 13.78-5 24.68.83a.74.74 0 0 0 .7-1.3ZM408 200.07a.73.73 0 0 0-1-.35.73.73 0 0 0-.35 1l1.85 4a.75.75 0 0 0 .68.42.7.7 0 0 0 .31-.07.74.74 0 0 0 .36-1ZM405.76 195.25a26.74 26.74 0 0 1 2.78-.13h.46a.74.74 0 1 0 0-1.48h-.47a26.27 26.27 0 0 0-4 .26.78.78 0 0 0-.54.39.76.76 0 0 0 0 .66l.85 1.81a.73.73 0 0 0 .67.42.71.71 0 0 0 .32-.07.73.73 0 0 0 .35-1ZM413.25 195.44a36.89 36.89 0 0 1 4.19.81h.19a.75.75 0 0 0 .18-1.47 37.69 37.69 0 0 0-4.36-.84.74.74 0 1 0-.2 1.47ZM425 197.5c-1-.49-2-.93-3-1.33a.73.73 0 0 0-1 .43.74.74 0 0 0 .42 1c.62.24 1.25.5 1.86.78a.74.74 0 0 0-.07 1.05.73.73 0 0 0 .56.26.74.74 0 0 0 .48-.18l.88-.76a.76.76 0 0 0 .25-.65.74.74 0 0 0-.38-.6ZM413.45 206.9l-1.56 1.36-.15-.3a.73.73 0 0 0-1-.35.74.74 0 0 0-.36 1l.56 1.19a.75.75 0 0 0 .52.41h.15a.74.74 0 0 0 .49-.18l2.3-2a.74.74 0 0 0 .08-1.05.75.75 0 0 0-1.03-.08ZM420.05 201.2l-3.3 2.85a.74.74 0 0 0-.07 1 .73.73 0 0 0 .56.26.74.74 0 0 0 .48-.18l3.3-2.85a.74.74 0 0 0 .08-1.05.75.75 0 0 0-1.05-.03ZM442.78 203.43a.75.75 0 0 0 .72-.77l-.16-4.36a.73.73 0 0 0-.77-.71.75.75 0 0 0-.72.77l.16 4.35a.76.76 0 0 0 .77.72ZM461.22 207.65a.75.75 0 0 0-.69.79v.28h-2.49a.74.74 0 1 0 0 1.48h3.29a.74.74 0 0 0 .54-.23.76.76 0 0 0 .2-.56l-.07-1.06a.76.76 0 0 0-.78-.7ZM460 199.74l.29 4.35a.74.74 0 0 0 .74.7.73.73 0 0 0 .69-.78l-.29-4.36a.74.74 0 0 0-1.48.1ZM445 208.72h-1.23l-.06-1.7a.75.75 0 1 0-1.49 0l.09 2.42a.75.75 0 0 0 .74.71h2a.74.74 0 1 0 0-1.48ZM451.45 196.19a.74.74 0 0 0-.79-.69 31.52 31.52 0 0 0-4.43.62.74.74 0 0 0 .16 1.47h.17a29.85 29.85 0 0 1 4.21-.59.73.73 0 0 0 .68-.81ZM459.43 197a.75.75 0 0 0 .05-1.49c-1-.07-2.57-.16-4.4-.18a.75.75 0 0 0-.75.74.74.74 0 0 0 .73.75c1.8 0 3.34.1 4.31.17ZM453.69 208.72h-4.36a.74.74 0 1 0 0 1.48h4.36a.74.74 0 1 0 0-1.48Z" class="color252362 svgShape"/><path fill="#252362" d="M395.61 220.13a.74.74 0 0 0 .64 1.34c16-7.56 27.91.72 28 .8a.69.69 0 0 0 .43.14.77.77 0 0 0 .61-.31.74.74 0 0 0-.18-1c-.11-.1-12.73-8.92-29.5-.97ZM468.62 221c-15.83-7-31-.06-31.14 0a.75.75 0 0 0-.36 1 .74.74 0 0 0 1 .35c.14-.07 14.72-6.74 29.9 0a.8.8 0 0 0 .3.06.73.73 0 0 0 .68-.41.74.74 0 0 0-.38-1Z" class="color252362 svgShape"/><path fill="#ffffff" d="M328.82 225.5a4.85 4.85 0 0 1 1.37 1.53c1.35 2.39.07 5.08-.1 5.43l32.91 3.16 8.23-31-3.16-7Z" class="colorfff svgShape"/><path fill="#252362" d="M368.93 197.25a1 1 0 0 0-.62-.52 1 1 0 0 0-.79.14l-39.24 27.85a1 1 0 0 0 0 1.54 3.78 3.78 0 0 1 1.1 1.23 5.18 5.18 0 0 1-.12 4.55.94.94 0 0 0 .76 1.36l32.91 3.17h.07a.94.94 0 0 0 .92-.7l8.23-31a1 1 0 0 0 0-.63Zm-6.64 37.35-30.87-3a6.54 6.54 0 0 0-.41-5.07 5.45 5.45 0 0 0-.68-1l37.35-26.51 2.55 5.61Z" class="color252362 svgShape"/><path fill="#252362" d="m328.19 226.13 31.02 2.53 8.86-31.01-29.75-1.27-10.13 29.75z" class="color252362 svgShape"/><path fill="#252362" d="m327 226.88 32.79 2.68 9.34-32.71-31.45-1.34Zm40-28.44-8.37 29.32-29.25-2.38 9.57-28.13Z" class="color252362 svgShape"/><path fill="#ffffff" d="M326 214a4 4 0 0 1 1.15 1.29 5.23 5.23 0 0 1-.08 4.59l27.79 2.67 6.95-26.19-2.67-5.88Z" class="colorfff svgShape"/><path fill="#252362" d="M359.84 190.14a.8.8 0 0 0-1.19-.32l-33.14 23.52a.8.8 0 0 0-.34.64.81.81 0 0 0 .32.65 3.16 3.16 0 0 1 .93 1 4.39 4.39 0 0 1-.1 3.85.78.78 0 0 0 0 .74.82.82 0 0 0 .62.41l27.8 2.67h.07a.79.79 0 0 0 .77-.59l6.95-26.19a.83.83 0 0 0 0-.54Zm-5.61 31.54-26.07-2.51a5.57 5.57 0 0 0-.34-4.28 5.27 5.27 0 0 0-.58-.82l31.54-22.38 2.15 4.73Z" class="color252362 svgShape"/><path fill="#252362" d="m325.43 214.53 26.2 2.13 7.48-26.19-25.12-1.07-8.56 25.13z" class="color252362 svgShape"/><path fill="#252362" d="m324.47 215.16 27.68 2.26L360 189.8l-26.56-1.13Zm33.7-24-7.07 24.74-24.7-2 8.09-23.75Z" class="color252362 svgShape"/><path fill="#ffffff" d="M541.57 220a5.87 5.87 0 0 1 1.09-2.17l-53.49-20-1.51 9 18.9 33.06 36.78-13.67c-.34-.34-2.59-3.05-1.77-6.22Z" class="colorfff svgShape"/><path fill="#252362" d="M542.65 220.3a4.84 4.84 0 0 1 .89-1.75 1.11 1.11 0 0 0-.48-1.75l-53.5-20a1.1 1.1 0 0 0-.95.08 1.13 1.13 0 0 0-.55.79l-1.51 8.94a1.16 1.16 0 0 0 .14.75l18.89 33.06a1.14 1.14 0 0 0 1 .56 1.07 1.07 0 0 0 .39-.07l36.78-13.66a1.16 1.16 0 0 0 .7-.78 1.12 1.12 0 0 0-.25-1c-.39-.41-2.2-2.65-1.55-5.17Zm-35.59 18.2-18.22-31.88 1.21-7.21 50.92 19a6.74 6.74 0 0 0-.49 1.32 7.76 7.76 0 0 0 1.09 5.94Z" class="color252362 svgShape"/><path fill="#252362" d="m489.17 197.88 19.62 32.87 34.79-12.37-20.68-31.02-33.73 10.52z" class="color252362 svgShape"/><path fill="#252362" d="m487.66 197.3 20.69 34.7 36.78-13.06-21.82-32.72Zm21.57 32.23-18.55-31.07 31.8-9.92L542 217.87Z" class="color252362 svgShape"/><path fill="#f07258" d="M554.65 41.15a9.6 9.6 0 1 0 9.59 9.59 9.59 9.59 0 0 0-9.59-9.59Z" class="colorf07258 svgShape"/><path fill="#252362" d="M554.65 39.59a11.15 11.15 0 1 0 11.15 11.15 11.17 11.17 0 0 0-11.15-11.15Zm0 19.19a8 8 0 1 1 8-8 8.05 8.05 0 0 1-8 8Z" class="color252362 svgShape"/><path fill="#ffffff" d="M497.28 215.57c-6 6.52 4.74 25.82 20.09 26.67s99-50.54 99-50.54L602.25 147s-98.96 62.06-104.97 68.57Z" class="colorfff svgShape"/><path fill="#252362" d="M603.38 146.67a1.19 1.19 0 0 0-1.75-.64c-4 2.54-99.17 62.19-105.21 68.75-2.45 2.66-2.68 7.09-.62 12.17 3.06 7.52 11.09 15.89 21.51 16.47h.41c16.51 0 95.9-48.64 99.3-50.73a1.18 1.18 0 0 0 .51-1.36Zm-85.58 94.41h-.36c-9-.5-16.59-7.93-19.46-15-1.68-4.13-1.62-7.76.16-9.69 4.61-5 68.93-45.89 103.45-67.54L615 191.18c-8.45 5.15-82.27 49.9-97.2 49.9Z" class="color252362 svgShape"/><path fill="#ffffff" d="M518.75 214.58c-6.66-3.05-17.21 1.28-17.68 1.48-2.92 1.23-8.56 3.6-11.47 8.9-3.64 6.59-.78 14 5.07 28.68 6 14.93 9.41 23.51 16.15 24.33 4.37.53 9.43-2.28 12-6.56 3.31-5.45 1.38-11.26 1.08-12.11 8.1-21.92 3.86-40.6-5.15-44.72Z" class="colorfff svgShape"/><path fill="#252362" d="M519.24 213.51c-7.17-3.28-18.16 1.27-18.63 1.47-2.9 1.22-8.93 3.76-12 9.41-4 7.21-.79 15.2 5 29.69 6.23 15.57 9.66 24.15 17.1 25.06.4 0 .8.07 1.2.07 4.48 0 9.36-2.88 12-7.19a15.72 15.72 0 0 0 1.32-12.7c8.26-22.83 3.37-41.53-5.99-45.81Zm3.58 45.38a1.22 1.22 0 0 0 0 .8c.35 1 2 6.27-1 11.11-2.36 3.89-7 6.47-10.88 6-6-.74-9.49-9.34-15.2-23.6-5.94-14.86-8.43-21.69-5.13-27.68 2.71-4.93 8-7.17 10.9-8.38a34.92 34.92 0 0 1 11.52-2.47 12.57 12.57 0 0 1 5.21 1c8.52 3.86 12.38 22.17 4.58 43.22Z" class="color252362 svgShape"/><path fill="#ffffff" d="M784.24 223.72c-15.93-29.65-48.65-57.91-59.55-51.08-4.31 2.7-3.9 10.09-3.33 20.3 1.86 33.52 22.91 56.31 32.19 67 4.79 5.51 24 27.53 33.82 22.85 9.42-4.47 5.72-31 5.31-33.87a76.39 76.39 0 0 0-8.44-25.2Z" class="colorfff svgShape"/><path fill="#252362" d="M785.27 223.17C772.52 199.43 748 175.05 732.69 171c-3.55-.94-6.45-.73-8.62.63-4.9 3.08-4.48 10.75-3.89 21.37 1.82 32.6 21.75 55.4 31.33 66.35l1.15 1.32c13.83 15.89 24.45 23.9 31.68 23.9a8.12 8.12 0 0 0 3.54-.76c9.89-4.7 6.7-30.06 6-35.1a76.85 76.85 0 0 0-8.61-25.54Zm1.6 58.53c-3.38 1.6-12.1.81-32.44-22.56l-1.15-1.33c-9.41-10.75-29-33.14-30.75-64.93-.55-9.82-.94-16.91 2.79-19.24a6.19 6.19 0 0 1 3.36-.86 13.51 13.51 0 0 1 3.41.5c14.73 3.9 38.62 27.74 51.11 51a74.53 74.53 0 0 1 8.32 24.78c1.55 10.57 2.32 29.33-4.65 32.64Z" class="color252362 svgShape"/><path fill="#ffffff" d="M706.61 640.5h32.08v64.65h-32.08z" class="colorfff svgShape"/><path fill="#252362" d="M738.69 639.2h-32.08a1.3 1.3 0 0 0-1.3 1.3v64.64a1.3 1.3 0 0 0 1.3 1.3h32.08a1.3 1.3 0 0 0 1.3-1.3V640.5a1.3 1.3 0 0 0-1.3-1.3Zm-1.3 64.64h-29.48v-62h29.48Z" class="color252362 svgShape"/><path fill="#f07258" d="m752.3 730.9-5.83-4.9-7.78-25.51-4.86.24c.27-.72 2.27-6.39-.49-9.24-.92-.95-2.2-1.39-7.29-1.45-8.37-.11-12.56-.16-14.58 1.94-3.23 3.37-2.09 9.19-1.72 10.81l-3.14.25-5.83 23.45-6.78 5.39c-.53 1.78-1.05 3.56-1.58 5.34-.77 2.59-1.54 5.19-2.3 7.78h67.56c-1-2.6-2-5.19-2.95-7.78Z" class="colorf07258 svgShape"/><path fill="#252362" d="m757.28 740-1.73-4.57-1.92-5.05-.13-.35-5.8-4.83-8-26.17-4 .2c.6-2.48 1-6.27-1.4-8.71-1.38-1.42-3.16-1.82-8.31-1.89-8.77-.11-13.17-.16-15.61 2.39-2.91 3-2.82 7.62-2.39 10.5l-2.58.21-6 24-6.67 5.27-4.56 15.38h71.53l-.71-1.88c-.59-1.5-1.15-2.99-1.72-4.5ZM692 743.58l3.22-10.87 6.83-5.36 5.7-22.93 3.76-.31-.36-1.6c-.45-2-1.22-6.82 1.36-9.51 1.59-1.65 5.83-1.6 13.54-1.5 5 .06 5.78.5 6.28 1 1.73 1.79.93 5.72.18 7.76l-.75 2 5.91-.3 7.57 24.86 5.88 4.9c.59 1.56 1.18 3.13 1.78 4.69l1.73 4.58 1 2.55Z" class="color252362 svgShape"/><path fill="#ffffff" d="M692.39 737.22c-.77 2.59-1.54 5.19-2.3 7.78h67.56c-1-2.6-2-5.19-2.95-7.78Z" class="colorfff svgShape"/><path fill="#252362" d="m757.16 740.06-1.25-3.3a1.3 1.3 0 0 0-1.21-.84h-62.31a1.31 1.31 0 0 0-1.25.93l-2.3 7.78a1.29 1.29 0 0 0 1.25 1.67h67.56a1.3 1.3 0 0 0 1.07-.56 1.28 1.28 0 0 0 .14-1.2q-.86-2.25-1.7-4.48Zm-65.33 3.64 1.53-5.18h60.44l.93 2.46c.35.91.69 1.81 1 2.72ZM733.74 708.28a36.41 36.41 0 0 0-21.24 0 1.3 1.3 0 1 0 .86 2.46 30.58 30.58 0 0 1 6.16-1.23H727a30.24 30.24 0 0 1 5.92 1.24 1.34 1.34 0 0 0 .4.06 1.28 1.28 0 0 0 1.23-.91 1.3 1.3 0 0 0-.81-1.62ZM733.74 713.63a36.32 36.32 0 0 0-21.24 0 1.3 1.3 0 1 0 .86 2.45 31.45 31.45 0 0 1 6.17-1.23H727a31 31 0 0 1 6 1.25 1.09 1.09 0 0 0 .4.07 1.3 1.3 0 0 0 .39-2.54ZM733.74 719a36.51 36.51 0 0 0-21.24 0 1.3 1.3 0 1 0 .86 2.46 30.59 30.59 0 0 1 6.17-1.23H727a30.24 30.24 0 0 1 5.92 1.24 1.34 1.34 0 0 0 .4.06 1.28 1.28 0 0 0 1.23-.9 1.31 1.31 0 0 0-.81-1.63Z" class="color252362 svgShape"/><path fill="#ffffff" d="M575.13 640.5h32.08v64.65h-32.08z" class="colorfff svgShape"/><path fill="#252362" d="M607.21 639.2h-32.08a1.3 1.3 0 0 0-1.3 1.3v64.64a1.3 1.3 0 0 0 1.3 1.3h32.08a1.3 1.3 0 0 0 1.3-1.3V640.5a1.3 1.3 0 0 0-1.3-1.3Zm-1.3 64.64h-29.48v-62h29.48Z" class="color252362 svgShape"/><path fill="#f07258" d="M620.82 730.9c-2-1.61-3.89-3.24-5.84-4.86l-7.77-25.51-4.86.24c.26-.72 2.27-6.39-.49-9.24-.93-.95-2.2-1.39-7.29-1.45-8.38-.08-12.57-.16-14.57 1.92-3.24 3.37-2.09 9.19-1.72 10.81l-3.14.25-5.84 23.45-6.8 5.35-1.59 5.34c-.76 2.59-1.53 5.19-2.3 7.78h67.56q-1.47-3.9-2.95-7.78-1.22-3.13-2.4-6.3Z" class="colorf07258 svgShape"/><path fill="#252362" d="m622.15 730.4-.14-.35-5.79-4.83-8-26.17-4 .2c.59-2.48 1-6.27-1.41-8.71-1.38-1.42-3.16-1.82-8.3-1.89-8.77-.11-13.18-.16-15.62 2.39-2.9 3-2.81 7.62-2.38 10.5l-2.59.21-6 24-6.66 5.25-4.56 15.38h71.52l-4.18-11Zm-61.64 13.18 3.21-10.87 6.84-5.36 5.7-22.93 3.76-.31-.37-1.6c-.45-2-1.21-6.82 1.36-9.51 1.59-1.65 5.83-1.6 13.54-1.5 5 .06 5.78.5 6.29 1 1.73 1.79.92 5.72.17 7.76l-.74 2 5.9-.3 7.58 24.86 5.87 4.9q.89 2.32 1.76 4.65l2.72 7.17Z" class="color252362 svgShape"/><path fill="#ffffff" d="M560.9 737.22c-.76 2.59-1.53 5.19-2.3 7.78h67.56q-1.47-3.9-2.95-7.78Z" class="colorfff svgShape"/><path fill="#252362" d="M624.43 736.76a1.31 1.31 0 0 0-1.22-.84H560.9a1.3 1.3 0 0 0-1.24.93l-2.31 7.78a1.32 1.32 0 0 0 .21 1.15 1.28 1.28 0 0 0 1 .52h67.56a1.3 1.3 0 0 0 1.22-1.76Zm-64.09 6.94 1.54-5.18h60.44l2 5.18ZM602.25 708.28a36.37 36.37 0 0 0-21.23 0 1.3 1.3 0 0 0 .85 2.46 30.79 30.79 0 0 1 6.17-1.23h7.5a30.33 30.33 0 0 1 5.93 1.24 1.32 1.32 0 0 0 .39.06 1.3 1.3 0 0 0 .39-2.54ZM602.25 713.63a36.28 36.28 0 0 0-21.23 0 1.3 1.3 0 0 0 .85 2.45 31.67 31.67 0 0 1 6.17-1.23h7.5a31.08 31.08 0 0 1 5.93 1.24 1.07 1.07 0 0 0 .39.07 1.31 1.31 0 0 0 1.24-.91 1.29 1.29 0 0 0-.85-1.62ZM602.25 719a36.47 36.47 0 0 0-21.25 0 1.3 1.3 0 0 0 .85 2.46 30.79 30.79 0 0 1 6.17-1.23h7.5a30.33 30.33 0 0 1 5.93 1.24 1.32 1.32 0 0 0 .39.06 1.3 1.3 0 0 0 .39-2.54ZM576 314.62l-27 354a181.72 181.72 0 0 0 93.63 4.89q-.27-57.51 2-119.57c1.82-48.29 4.81-94.55 8.65-138.64l19.64 264.35a217 217 0 0 0 58.41-1.51 219.86 219.86 0 0 0 35.31-8.82s-29.87-341-45.82-376.07S576 314.62 576 314.62Z" class="color252362 svgShape"/><path fill="#252362" d="M721.46 293c-6.79-14.93-33.45-15.9-79.25-2.88A596 596 0 0 0 575.7 314l-.41.17-27 354.45v.58l.55.17a182.59 182.59 0 0 0 94 4.91l.58-.12v-.6c-.19-39.68.47-79.9 2-119.55 1.62-43 4.27-86.48 7.87-129.42l19 255.78.61.07a218.31 218.31 0 0 0 94-10.37l.55-.19-.06-.57c-1.27-13.98-30.11-341.57-45.93-376.31Zm9.72 384.46a216.52 216.52 0 0 1-57.6 1.58L654 415.25h-1.46c-4 45.94-6.92 92.59-8.66 138.67-1.49 39.47-2.15 79.5-2 119a180.95 180.95 0 0 1-92.13-4.81l26.93-353c8-3.44 128.4-54.63 143.43-21.56 15.41 33.89 44.31 359.38 45.71 375.25a219 219 0 0 1-34.64 8.61Z" class="color252362 svgShape"/><path fill="#77cbd8" d="M745.41 175.63c-17-15.51-22.75-21.17-31.29-25.68-14.29-7.54-26.71-9.36-37.93-11-11.59-1.69-35-4.86-62.13 3.63-10.24 3.19-17.78 7.38-33 15.45a373.63 373.63 0 0 0-41.53 25.6s.41 37.94 19.59 60.88c0 0 13.89-6 28.67-12.91l-17 79.57A189.28 189.28 0 0 0 732 309.49q-2.79-16.74-5.36-34.05-3.6-24.4-6.42-47.88a82.59 82.59 0 0 0 30.06 30.91 159.95 159.95 0 0 0 34.26-42 418.2 418.2 0 0 0-39.13-40.84Z" class="color77cbd8 svgShape"/><path fill="#252362" d="m746.43 174.51-4.81-4.4c-13.4-12.27-18.94-17.35-26.79-21.49-14.52-7.67-27.22-9.53-38.42-11.17-10.4-1.53-34.73-5.09-62.8 3.67-9.61 3-16.87 6.85-30 13.84l-3.26 1.73a375.68 375.68 0 0 0-41.7 25.7 1.53 1.53 0 0 0-.64 1.25c0 1.57.64 38.74 19.95 61.83a1.53 1.53 0 0 0 1.76.42c.13-.06 12.38-5.33 26-11.65l-16.32 76.61a1.53 1.53 0 0 0 .86 1.69 193 193 0 0 0 79.62 17.31q4.43 0 8.84-.21a190.17 190.17 0 0 0 74-18.79 1.52 1.52 0 0 0 .83-1.61c-1.88-11.27-3.68-22.72-5.35-34-2-13.55-3.87-27.29-5.57-40.94a84.14 84.14 0 0 0 26.94 25.49 1.51 1.51 0 0 0 1.76-.16 161.24 161.24 0 0 0 34.59-42.37 1.53 1.53 0 0 0-.16-1.71 422.91 422.91 0 0 0-39.33-41.04Zm22.82 61.92a159 159 0 0 1-19.18 20.17 81.06 81.06 0 0 1-28.57-29.78 1.51 1.51 0 0 0-2.82.92c1.92 15.93 4.08 32.05 6.43 47.92 1.61 10.95 3.35 22 5.17 33a187.14 187.14 0 0 1-71.77 18 189.61 189.61 0 0 1-86-16.33l16.69-78.39a1.51 1.51 0 0 0-.54-1.49 1.53 1.53 0 0 0-1.59-.19c-12.23 5.74-24.07 10.88-27.53 12.4-16.45-20.51-18.31-52.85-18.51-58.27a371.05 371.05 0 0 1 40.71-25l3.26-1.73c13-6.9 20.17-10.7 29.51-13.62 27.41-8.56 51.27-5.06 61.46-3.57 11 1.61 23.38 3.43 37.45 10.85 7.5 4 13 9 26.16 21.05l4.81 4.41a419 419 0 0 1 38.28 39.91 159 159 0 0 1-13.42 19.74Z" class="color252362 svgShape"/><path fill="#252362" d="M709.61 244.13a1.22 1.22 0 0 0-1 1.42c0 .09 1.64 9.76-4.24 21.62-5.45 11-18.64 26.18-50.55 36.14a1.22 1.22 0 0 0 .36 2.38 1.13 1.13 0 0 0 .36-.06c32.85-10.24 46.46-26.07 52.09-37.54 6.16-12.55 4.45-22.56 4.37-23a1.22 1.22 0 0 0-1.39-.96Z" class="color252362 svgShape"/><path fill="#252362" d="M710.41 253.45a1.22 1.22 0 0 0-1.71.23c-.14.19-15.21 19-75.9 23.26a1.22 1.22 0 0 0 .09 2.43h.11c62-4.37 77-23.37 77.65-24.22a1.22 1.22 0 0 0-.24-1.7Z" class="color252362 svgShape"/><path fill="#ffffff" d="M792.76 261.59c-3.65-5.7-10.46-7.41-13.39-8.1-19.85-4.69-58.4 4.88-60.28 5.36-11.5 2.91-24.1 6.24-37.64 10q2.56 12.64 5.14 25.29a335.84 335.84 0 0 0 55.47 1.3c8.42-.5 39.59-2.69 48.47-14.93 1.48-2 5.29-7.28 4.31-13.53a14.42 14.42 0 0 0-2.08-5.39Z" class="colorfff svgShape"/><path fill="#252362" d="M793.75 261c-4-6.22-11.34-8-14.11-8.62-20.29-4.79-59.2 5-60.84 5.37-12.54 3.18-25.21 6.55-37.67 10a1.18 1.18 0 0 0-.84 1.36l5.15 25.29a1.19 1.19 0 0 0 1 .94 342.42 342.42 0 0 0 35.86 1.89q10 0 19.8-.59c14.9-.89 41.12-4.08 49.35-15.41 1.53-2.1 5.58-7.67 4.52-14.4a15.68 15.68 0 0 0-2.22-5.83Zm-4.17 18.87c-5.68 7.78-22.58 12.91-47.58 14.41a337.25 337.25 0 0 1-54.42-1.21l-4.75-23.37a1652 1652 0 0 1 36.55-9.71c1.63-.41 40-10 59.73-5.36 2.52.6 9.2 2.17 12.67 7.59a13.48 13.48 0 0 1 1.91 4.95c.89 5.77-2.69 10.83-4.11 12.66Z" class="color252362 svgShape"/><path fill="#ffffff" d="m664.34 95-36.18 3.58 1.18 39.55-12.29 3.62c3.64 11.59 13.73 20.51 25.67 21.7 14.85 1.49 29.25-9.31 32.65-24.64l-11-1.73q-.03-21.08-.03-42.08Z" class="colorfff svgShape"/><path fill="#252362" d="m665.86 93.3-39.27 3.89 1.19 39.81-11.16 3.29-1.49.44.47 1.47c3.89 12.4 14.73 21.54 27 22.77 1 .09 1.93.14 2.89.14 14.59 0 28-10.91 31.39-26l.36-1.58-11.37-1.78Zm7.63 46.7c-3.83 13.73-17 23.24-30.62 21.88-10.55-1.06-20-8.69-23.87-19.18l10.77-3.17 1.12-.34-1.17-39.3 33.1-3.27v41.7Z" class="color252362 svgShape"/><path fill="#ffffff" d="M619.28 56.2s-19.34 66 9.57 71.07 27.53-52.38 27.53-52.38c8.22-30.7-37.1-18.69-37.1-18.69Z" class="colorfff svgShape"/><path fill="#252362" d="M655 57.82c-9.88-9.9-35-3.37-36.12-3.09l-.83.22-.24.82c-.54 1.86-13.19 45.74-1.4 64.69a17.36 17.36 0 0 0 12.17 8.31 21.34 21.34 0 0 0 3.75.34 17.36 17.36 0 0 0 11.67-4.36c14.2-12.24 14-46.31 13.9-49.68 1.98-7.54 1-13.34-2.9-17.25Zm-.1 16.67-.06.21v.22c0 .36.69 35.86-12.85 47.53a14.79 14.79 0 0 1-12.9 3.32 14.26 14.26 0 0 1-10.09-6.92c-10.22-16.43-.19-55.18 1.51-61.38 4.37-1 24.62-5.25 32.35 2.5 3.14 3.12 3.79 8.03 2.05 14.52Z" class="color252362 svgShape"/><path fill="#252362" d="M669.17 44.84c-2.45-1.69-11.41-7.41-23.07-6.6-6.55.46-6.47 2.46-12.06 2.3-9.4-.28-11.17-6-18.48-5.77-6.56.23-13.74 5.1-16.56 12.35A19.39 19.39 0 0 0 600.86 65c3.09 4.45 7.9 5.07 14.5 8.37 17.79 8.9 22.72 3.39 32.12 9.39 1 .63 10.31 5.62 13.07 15.18 1.46 5.08.16 8.22 2.3 20.17.32 1.78.62 3.24.84 4.24.75-1.69 17.92-40.29 17.92-56.09a27.19 27.19 0 0 0-1.61-9.11c-2.68-6.7-7.93-10.32-10.83-12.31Z" class="color252362 svgShape"/><path fill="#ffffff" d="M656.16 89.18s-1.89 11.54 1.31 10.61 14.36-10.56 10.31-17.91-11.62 7.3-11.62 7.3Z" class="colorfff svgShape"/><path fill="#252362" d="M636.46 102.88a8.44 8.44 0 0 1-5.2-.32c-3.37-1.59-4.15-4.38-6.59-6.46-2-1.67-5.55-3.12-12.66-1.59a95 95 0 0 0-1.54 18.32c.12 8.24.18 12.36 2.18 15.36 6.39 9.54 29.28 9.91 39.05-1.21 3.17-3.6 4.17-10.14 6.15-23.21a307.45 307.45 0 0 0 2.95-33.58L647.28 66s-.45 35.05-10.82 36.88ZM712.65 174.89a1.51 1.51 0 0 0-3 0c-.19 10.71 9.15 55 9.54 56.89a1.52 1.52 0 0 0 1.48 1.2 1.73 1.73 0 0 0 .32 0 1.52 1.52 0 0 0 1.16-1.8c-.15-.53-9.68-45.91-9.5-56.29ZM592.44 178.8a1.53 1.53 0 0 0-1.57 1.46L589.05 235a1.5 1.5 0 0 0 1.46 1.56 1.51 1.51 0 0 0 1.51-1.46l1.83-54.77a1.53 1.53 0 0 0-1.41-1.53Z" class="color252362 svgShape"/><path fill="#252362" d="M666.17 232.89a5.85 5.85 0 0 0-5.3-5.23l-128.79-11.47a5.86 5.86 0 0 0-6.35 6.31l6.55 79.55a5.86 5.86 0 0 0 5.31 5.35L668.07 319h.53a5.84 5.84 0 0 0 5.81-6.45Z" class="color252362 svgShape"/><path fill="#ffffff" d="M649.52 268.43s-6.3-.72-9.2 1.94a2.11 2.11 0 0 0-.82 1.49c.07 1.25 2.1 2.05 3 2.39 4.69 1.87 17.83 2.84 21.18 3.07-6.09.12-11.12.05-14.68 0-10.35-.27-16.89-1-18.27 2.05-1.5 3.37 1.87 4.87 5.16 4.72s26.46 1.3 26.46 1.3a140.9 140.9 0 0 1-16.51 1.2c-4.38.05-8.95-.13-10.74 2.64a2.81 2.81 0 0 0-.52 2.34c.73 1.94 5.11 1.8 10.25 1.82 3.62 0 8.8.14 15.19.57-3.88.56-7 .94-9.17 1.18-5.49.62-8.33.79-9.23 2.7a3 3 0 0 0-.08 2.28c1.19 2.67 7.69 2.25 11.33 1.94 20.49-1.74 30.74-2.61 33.76-7.87 5.5-9.6-4.4-24.17-5.21-25.33-15.35.28-26.13.23-31.9-.43Z" class="colorfff svgShape"/><path fill="#252362" d="M681.38 267.64c-16.62.35-26.4.23-31.71-.38-.28 0-6.86-.74-10.12 2.25a3.12 3.12 0 0 0-1.2 2.42c.11 2 2.62 3 3.69 3.42.52.2 1.14.4 1.83.59-8-.28-12.79-.33-14.23 2.91a4 4 0 0 0 .16 4.08c1.25 1.84 4 2.38 6.13 2.29.91 0 3.44 0 6.6.2-3.51.11-6.79.59-8.44 3.13a3.68 3.68 0 0 0-.63 3.4c1 2.55 4.84 2.56 10.2 2.58h2.07c-2.73.43-4.39 1.07-5.19 2.75a4.21 4.21 0 0 0-.1 3.27c1 2.24 4.22 2.86 8 2.86 1.47 0 3-.1 4.57-.23 20.87-1.77 31.34-2.66 34.67-8.46 5.82-10.14-4.11-24.93-5.26-26.58a1.17 1.17 0 0 0-1.04-.5Zm4.19 25.92c-2.71 4.73-13.41 5.64-32.84 7.29-7.65.65-9.75-.32-10.16-1.25a1.82 1.82 0 0 1 .07-1.3c.56-1.17 3-1.44 7.12-1.9l1.18-.13c3-.35 6.12-.74 9.21-1.19a1.17 1.17 0 0 0-.09-2.33c-5.16-.35-10.29-.54-15.26-.57h-1.15c-3.22 0-7.62 0-8-1.05 0-.1-.11-.48.41-1.29 1.33-2 5.15-2.07 8.84-2.1h.94a140.08 140.08 0 0 0 16.65-1.21 1.18 1.18 0 0 0-.08-2.34c-.9-.05-21.07-1.31-25.94-1.31h-.65c-1.84.08-3.52-.44-4.08-1.27-.11-.17-.46-.67 0-1.8.85-1.91 6.16-1.73 12.88-1.49l4.28.13c4.84.13 9.8.14 14.73.05a1.18 1.18 0 0 0 .06-2.35c-4.85-.33-16.58-1.3-20.83-3-2.1-.83-2.21-1.31-2.21-1.36s0-.17.43-.56c2-1.88 6.67-1.82 8.27-1.64 5.36.61 15 .74 31.38.41 1.83 2.75 9.54 15.37 4.84 23.56Z" class="color252362 svgShape"/><path fill="#ffffff" d="M546.86 263.37c-3.54-.36-8.53-.92-14.56-1.8 3.35.19 16.5.88 21.4-.38.89-.24 3-.78 3.23-2a2.09 2.09 0 0 0-.63-1.58c-2.54-3-8.88-3.08-8.88-3.08-2.69-.19-7-.52-12.33-1-17.21-1.52-19.26-2.27-22.8-.6-7.63 3.6-12.88 14-10.22 20.45.53 1.29 1.38 2.41 3.45 4.13 6.73 5.57 12.47 5.88 34.39 9.93 4.24.78 10.05 1.88 11.49-.51a3 3 0 0 0 .21-2.27c-.66-2-3.45-2.53-8.82-3.83-2.1-.52-5.17-1.29-8.95-2.33 6.4.38 11.55.92 15.14 1.35 5.1.62 9.43 1.31 10.4-.52a2.82 2.82 0 0 0-.22-2.39c-1.43-3-6-3.37-10.33-4a139 139 0 0 1-16.23-3.27s23.17 1.48 26.42 2 6.78-.5 5.71-4c-.97-3.2-7.56-3.27-17.87-4.3Z" class="colorfff svgShape"/><path fill="#252362" d="M552.1 262.68a17.3 17.3 0 0 0 1.89-.36c1.12-.29 3.74-1 4.09-2.93a3.17 3.17 0 0 0-.88-2.55c-2.78-3.28-9.12-3.48-9.73-3.49-4.06-.3-8.19-.63-12.27-1-3.69-.32-6.72-.62-9.15-.86-9.26-.9-11.19-1.09-14.27.37-8.24 3.89-13.69 15-10.79 22a11.62 11.62 0 0 0 3.78 4.58c6 5 11.2 5.92 26.57 8.67 2.5.45 5.27.94 8.36 1.51h.13a43.68 43.68 0 0 0 7.41.94c2.3 0 4.24-.49 5.17-2a4.14 4.14 0 0 0 .31-3.24c-.58-1.78-2.14-2.62-4.8-3.39l.92.11 1.13.14c5.33.65 9.17 1.13 10.45-1.27a3.7 3.7 0 0 0-.2-3.46c-1.32-2.72-4.51-3.62-8-4.17 3.14.25 5.67.49 6.57.64 2.11.36 4.89.16 6.36-1.5a4 4 0 0 0 .68-4c-1-3.42-5.83-4.01-13.73-4.74Zm11.32 7.15c-.66.75-2.39 1.06-4.2.74-3.28-.56-25.6-2-26.54-2.05a1.18 1.18 0 0 0-.38 2.31 141.19 141.19 0 0 0 16.37 3.29l.92.13c3.67.49 7.45 1 8.51 3.19.42.87.29 1.24.25 1.33-.52 1-4.9.44-8.09 0l-1.14-.14a252.85 252.85 0 0 0-15.21-1.35 1.18 1.18 0 0 0-.38 2.31c3 .83 6.05 1.61 9 2.33l1.16.28c4 1 6.42 1.55 6.82 2.77a1.83 1.83 0 0 1-.09 1.3c-1 1.67-6.95.57-10.14 0h-.13c-3.1-.57-5.88-1.07-8.38-1.51-14.91-2.68-19.94-3.58-25.48-8.17-2-1.67-2.69-2.64-3.11-3.67-2.43-5.85 2.53-15.58 9.63-18.94 2.42-1.14 4-1 13-.15 2.44.24 5.47.54 9.17.87 4.11.36 8.26.7 12.35 1h.07c1.61 0 6.2.54 8 2.66.37.44.36.6.36.61s-.18.51-2.37 1.08c-4.42 1.14-16.18.62-21 .35a1.15 1.15 0 0 0-1.23 1.05 1.16 1.16 0 0 0 1 1.28c4.87.71 9.79 1.32 14.62 1.81l4.26.4c6.7.61 12 1.1 12.6 3.1.36 1.18-.08 1.64-.22 1.79ZM737.19 176a1.51 1.51 0 0 0-2.14 2.14c.26.26 26 26 34.8 36.58a1.51 1.51 0 0 0 2.32-1.94c-8.91-10.62-34.72-36.5-34.98-36.78ZM730 169.94c-2.06-1.66-9-8.29-9.07-8.36a1.51 1.51 0 1 0-2.09 2.18c.29.28 7.1 6.8 9.27 8.54a1.52 1.52 0 0 0 .94.33 1.51 1.51 0 0 0 1-2.69ZM587 164.74c-11.08 4.36-37.69 21.16-38.82 21.88a1.51 1.51 0 0 0 .81 2.79 1.5 1.5 0 0 0 .81-.24c.27-.17 27.49-17.36 38.31-21.61a1.52 1.52 0 0 0-1.11-2.82ZM606.56 158.78c-9 2.32-12 4.46-12.13 4.55a1.51 1.51 0 0 0 .89 2.73 1.48 1.48 0 0 0 .87-.28s2.84-1.93 11.12-4.07a1.51 1.51 0 1 0-.75-2.93ZM692.09 213.5a4.3 4.3 0 0 0-.62.11 85.27 85.27 0 0 1 .58-12.93 1.52 1.52 0 0 0-3-.36 82.85 82.85 0 0 0-.51 15.25c-1 1.29-1.91 3.36-2.2 6.68a1.5 1.5 0 0 0 1.37 1.64 1.52 1.52 0 0 0 1.64-1.37 15.87 15.87 0 0 1 .23-1.68 5.44 5.44 0 0 0 1.87 2.74 3.38 3.38 0 0 0 1.89.58 4.46 4.46 0 0 0 2.11-.59c2.9-1.59 3.32-4.11 2.75-5.94a6 6 0 0 0-6.11-4.13Zm1.9 7.41c-.61.33-.79.21-.86.17-.69-.47-1.16-2.08-1.43-4.35a2.09 2.09 0 0 1 .72-.23 3 3 0 0 1 2.88 2c.3.97-.14 1.77-1.3 2.41ZM581.11 215.22c-5.68-1.6-8.43-6-9.76-10a12.47 12.47 0 0 0 7.21-2.89c3.63-2.82 3.66-4.94 3-6.22-1.22-2.55-5.83-3.2-9.4-2.34-2.93.7-4.58 2.29-4.53 4.37a27.71 27.71 0 0 0 .39 4.11c-4-1.48-6.66-5.51-6.69-5.55a1.22 1.22 0 1 0-2 1.32c.16.24 3.73 5.7 9.37 6.95 1.61 5.6 5.23 10.76 11.76 12.59a1.26 1.26 0 0 0 .33.05 1.22 1.22 0 0 0 .33-2.39Zm-11-17.13c0-1 1.36-1.64 2.67-2 2.91-.7 6.14 0 6.63 1 .23.48-.24 1.62-2.34 3.25a9.75 9.75 0 0 1-6.38 2.37 25.54 25.54 0 0 1-.59-4.62Z" class="color252362 svgShape"/><path fill="#ffffff" d="M660.87 328c.09 7.71.07 15.52-.08 23.19-.28 15-.85 19.72-4.06 21.88-2 1.32-4.68 1.59-8.11.82l.34-45.7h-2.26l-.35 47.46.84.22a19.22 19.22 0 0 0 4.95.72 10.32 10.32 0 0 0 5.86-1.69c4.26-2.88 4.77-8.79 5.06-23.72.14-7.7.17-15.52.07-23.26ZM573.23 353.91l-.64 2.17a25.7 25.7 0 0 0 7.22 1.06c8.63 0 17.27-4.52 25.34-13.33a81.91 81.91 0 0 0 12.28-17.95l-2-1c-.22.39-17.68 36.31-42.2 29.05ZM703.54 340.54a52.29 52.29 0 0 1-5.54-18.29l-2.25.16a53.4 53.4 0 0 0 5.72 19.11c4.65 8.9 14 19.73 32.34 20.84l.14-2.26c-13.8-.84-24.04-7.42-30.41-19.56ZM550.81 647.19l-.55 2.19c1.87.47 33.46 8.24 61.65 8.24 11.79 0 23-1.36 31.18-5.19l-1-2c-26.96 12.57-90.64-3.08-91.28-3.24ZM671.42 655.35l-.51 2.21c.23.05 13.49 3 35.46 3a267 267 0 0 0 60.5-7.13l-.51-2.2c-55.5 12.98-94.55 4.21-94.94 4.12ZM628.88 560.79l2.25.28c3.76-30.1 7.57-99.71 7.6-100.41l-2.26-.12c-.03.7-3.84 70.23-7.59 100.25ZM628.87 572.33h2.26v13.68h-2.26zM727.69 418.23c.1.58 9.87 58.93 9.87 102.41h2.26c0-43.67-9.8-102.2-9.9-102.79ZM737.56 531.29h2.26v16.72h-2.26zM586 393.4a9.71 9.71 0 0 0-4-7.41c-2.94-2.31-4.87-1.62-5.76-1-2.34 1.61-2.83 6.17-1.22 11.35a24.29 24.29 0 0 0 4.41 8.17 45.45 45.45 0 0 1-5 5.88l1.56 1.64a44.58 44.58 0 0 0 5-5.81 21.48 21.48 0 0 0 15.51 6.12v-2.26a19.28 19.28 0 0 1-14.2-5.77c2.14-3.31 3.9-7.19 3.7-10.91Zm-5.22 9.11a22.07 22.07 0 0 1-3.56-6.86c-1.37-4.42-.9-7.95.34-8.81a1.17 1.17 0 0 1 .68-.19 4.57 4.57 0 0 1 2.4 1.12 7.44 7.44 0 0 1 3.1 5.74c.17 2.96-1.21 6.18-2.94 9ZM681.05 640.63c-6.17-5.37-9.16-13.26-8.87-23.43.12-4.39 1.1-7 2.84-7.63 1-.35 2.35-.05 3.91.77 1.08 14.44 4.76 22.22 11 23.15 2.89.43 4.17-.68 4.73-1.69 2-3.52-2.05-11-6.64-16.49a33.23 33.23 0 0 0-6.86-6.3 178.23 178.23 0 0 1 .94-29.71l-2.3-.3a204.61 204.61 0 0 0-1.15 26q0 1.44.12 2.82a6.35 6.35 0 0 0-4.49-.34c-2.75 1-4.21 4.22-4.37 9.71-.3 10.88 3 19.36 9.65 25.2 6.45 5.62 14.9 7.54 21.85 7.54a34.82 34.82 0 0 0 5.54-.43l-.37-2.24c-6.96 1.11-17.83.09-25.53-6.63Zm5.19-23.87c5.09 6.08 7.42 12.11 6.4 13.93-.32.57-1.13.75-2.43.56-5.41-.81-7.91-9.2-8.86-19.31a32.85 32.85 0 0 1 4.89 4.82ZM562.75 547.9c-.62 6.71-6.07 65.64-5.3 70.21l2.23-.37c-.61-3.62 3.64-51.49 5.33-69.63Z" class="colorfff svgShape"/><path fill="#ffffff" d="M554.38 529.77h19v2.26h-19z" transform="rotate(-88.05 563.855 530.906)" class="colorfff svgShape"/></g></svg>