<svg xmlns="http://www.w3.org/2000/svg" width="774.983" height="440.64" viewBox="0 0 774.983 440.64">
  <g id="Group_20170" data-name="Group 20170" transform="translate(-184.517 -478.86)">
    <g id="Webinar-pana" transform="translate(161.787 433.332)">
      <g id="freepik--background-complete--inject-100" transform="translate(29.651 45.528)">
        <g id="Group_7369" data-name="Group 7369" opacity="0.33">
          <path id="Path_33827" data-name="Path 33827" d="M586.329,202.63H742.872l-25.5,18.4v36.255a7.559,7.559,0,0,1-7.559,7.559H586.329a7.559,7.559,0,0,1-7.559-7.559v-47.1A7.559,7.559,0,0,1,586.329,202.63Z" transform="translate(25.189 -30.033)" fill="#f5f5f5"/>
          <path id="Path_33828" data-name="Path 33828" d="M591.59,225.945c0,.154,23.61.275,52.734.275s52.734-.121,52.734-.275-23.609-.275-52.734-.275S591.59,225.791,591.59,225.945Z" transform="translate(26.454 -27.761)" fill="#e0e0e0"/>
          <path id="Path_33829" data-name="Path 33829" d="M591.59,238.595c0,.154,23.61.275,52.734.275s52.734-.121,52.734-.275-23.609-.275-52.734-.275S591.59,238.452,591.59,238.595Z" transform="translate(26.454 -26.513)" fill="#e0e0e0"/>
        </g>
        <g id="Group_7365" data-name="Group 7365" opacity="0.33">
          <rect id="Rectangle_10231" data-name="Rectangle 10231" width="7.328" height="24.543" transform="translate(366.437 39.004)" fill="#e0e0e0"/>
          <rect id="Rectangle_10232" data-name="Rectangle 10232" width="7.328" height="28.092" transform="translate(305.243 35.455)" fill="#e0e0e0"/>
          <rect id="Rectangle_10233" data-name="Rectangle 10233" width="7.328" height="33.948" transform="translate(320.547 29.599)" fill="#e0e0e0"/>
          <rect id="Rectangle_10234" data-name="Rectangle 10234" width="7.328" height="32.091" transform="translate(335.84 31.456)" fill="#e0e0e0"/>
          <rect id="Rectangle_10235" data-name="Rectangle 10235" width="7.328" height="42.945" transform="translate(351.133 20.602)" fill="#e0e0e0"/>
          <rect id="Rectangle_10236" data-name="Rectangle 10236" width="7.328" height="42.737" transform="translate(381.729 20.81)" fill="#e0e0e0"/>
          <rect id="Rectangle_10237" data-name="Rectangle 10237" width="7.328" height="28.696" transform="translate(397.033 34.851)" fill="#e0e0e0"/>
          <rect id="Rectangle_10238" data-name="Rectangle 10238" width="7.328" height="40.858" transform="translate(412.326 22.689)" fill="#e0e0e0"/>
          <rect id="Rectangle_10239" data-name="Rectangle 10239" width="7.328" height="50.053" transform="translate(427.63 13.494)" fill="#e0e0e0"/>
          <rect id="Rectangle_10240" data-name="Rectangle 10240" width="7.328" height="41.067" transform="translate(442.923 22.48)" fill="#e0e0e0"/>
        </g>
        <g id="Group_7367" data-name="Group 7367" opacity="0.33">
          <path id="Path_33830" data-name="Path 33830" d="M620.065,106.8l60.578-9.261A61.3,61.3,0,1,1,626.811,45.9Z" transform="translate(23.215 -45.528)" fill="#ebebeb"/>
          <path id="Path_33831" data-name="Path 33831" d="M633.11,46l-7.35,46.955L671.9,84.3S665.08,58.019,633.11,46Z" transform="translate(29.824 -45.481)" fill="#e0e0e0"/>
        </g>
        <g id="Group_7366" data-name="Group 7366" opacity="0.33">
          <path id="Path_33832" data-name="Path 33832" d="M51.48,207.73A30.036,30.036,0,1,1,82,237.393,30.036,30.036,0,0,1,51.48,207.73Zm44.4-.725a14.4,14.4,0,1,0-4.039,10.27A14.359,14.359,0,0,0,95.876,207Z" transform="translate(-26.816 -32.529)" fill="#f5f5f5"/>
          <path id="Path_33833" data-name="Path 33833" d="M51.48,207.753A30.146,30.146,0,0,1,81.033,177.09l.253,15.743a14.436,14.436,0,0,0,.428,28.861L82,237.416a30.135,30.135,0,0,1-30.52-29.663Z" transform="translate(-26.816 -32.552)" fill="#e0e0e0"/>
          <path id="Path_33834" data-name="Path 33834" d="M75.93,174.881a34.343,34.343,0,0,1,35.156,34.2l-18.347.286c-.143-9.305-7.229-15.161-16.479-15.007Z" transform="translate(-24.404 -32.771)" fill="#ebebeb"/>
        </g>
        <rect id="Rectangle_10241" data-name="Rectangle 10241" width="38.188" height="45.395" transform="translate(181.636 281.152)" fill="#f5f5f5"/>
        <path id="Path_33835" data-name="Path 33835" d="M234,303.047H191.35V298.74H234a2.2,2.2,0,0,1,2.2,2.2h0a2.2,2.2,0,0,1-2.2,2.109Z" transform="translate(-13.021 -20.554)" fill="#e0e0e0"/>
        <path id="Path_33836" data-name="Path 33836" d="M234,345.737H191.35V341.43H234a2.2,2.2,0,0,1,2.2,2.2h0a2.2,2.2,0,0,1-2.2,2.109Z" transform="translate(-13.021 -16.344)" fill="#e0e0e0"/>
        <rect id="Rectangle_10243" data-name="Rectangle 10243" width="20.391" height="51.207" transform="translate(149.007 278.186)" fill="#ebebeb"/>
        <path id="Path_33837" data-name="Path 33837" d="M232.434,308.291c0,.132-8.262.231-18.457.231s-18.457-.1-18.457-.231,8.262-.231,18.457-.231S232.434,308.17,232.434,308.291Z" transform="translate(-12.609 -19.635)" fill="#e0e0e0"/>
        <path id="Path_33838" data-name="Path 33838" d="M232.434,314.491c0,.121-8.262.22-18.457.22s-18.457-.1-18.457-.22,8.262-.231,18.457-.231S232.434,314.359,232.434,314.491Z" transform="translate(-12.609 -19.023)" fill="#e0e0e0"/>
        <path id="Path_33839" data-name="Path 33839" d="M232.434,322.121c0,.121-8.262.22-18.457.22s-18.457-.1-18.457-.22,8.262-.231,18.457-.231S232.434,322.011,232.434,322.121Z" transform="translate(-12.609 -18.271)" fill="#e0e0e0"/>
        <path id="Path_33840" data-name="Path 33840" d="M232.434,329.74c0,.132-8.262.231-18.457.231s-18.457-.1-18.457-.231,8.262-.22,18.457-.22S232.434,329.619,232.434,329.74Z" transform="translate(-12.609 -17.518)" fill="#e0e0e0"/>
        <path id="Path_33841" data-name="Path 33841" d="M232.434,337.37c0,.132-8.262.231-18.457.231s-18.457-.1-18.457-.231,8.262-.22,18.457-.22S232.434,337.249,232.434,337.37Z" transform="translate(-12.609 -16.766)" fill="#e0e0e0"/>
        <g id="Group_7370" data-name="Group 7370">
          <rect id="Rectangle_10242" data-name="Rectangle 10242" width="172.561" height="51.207" transform="translate(10.404 278.186)" fill="#e0e0e0"/>
          <rect id="Rectangle_10244" data-name="Rectangle 10244" width="20.391" height="51.207" transform="translate(26.807 278.757)" fill="#ebebeb"/>
          <rect id="Rectangle_10245" data-name="Rectangle 10245" width="77.629" height="9.217" transform="translate(60.413 299.236)" fill="#ebebeb"/>
        </g>
        <rect id="Rectangle_10246" data-name="Rectangle 10246" width="38.771" height="27.663" transform="translate(180.669 330.404)" fill="#fafafa"/>
        <path id="Path_33842" data-name="Path 33842" d="M192.78,347.36h41.671a1,1,0,0,0,1-1h0a1.011,1.011,0,0,0-1-1.011H192.78Z" transform="translate(-12.88 -15.957)" fill="#f5f5f5"/>
        <path id="Path_33843" data-name="Path 33843" d="M192.78,370.53h42.209a.461.461,0,0,1,.461.461v1.1a.461.461,0,0,1-.461.461H192.78V370.53Z" transform="translate(-12.88 -13.474)" fill="#f5f5f5"/>
        <path id="Path_33844" data-name="Path 33844" d="M232.212,351.071c0,.121-8.591.231-19.171.231s-19.171-.11-19.171-.231,8.58-.231,19.171-.231S232.212,350.95,232.212,351.071Z" transform="translate(-12.772 -15.416)" fill="#e0e0e0"/>
        <path id="Path_33845" data-name="Path 33845" d="M232.212,355.83c0,.132-8.591.231-19.171.231s-19.171-.1-19.171-.231,8.58-.22,19.171-.22S232.212,355.709,232.212,355.83Z" transform="translate(-12.772 -14.945)" fill="#e0e0e0"/>
        <path id="Path_33846" data-name="Path 33846" d="M232.212,360.6c0,.121-8.591.22-19.171.22s-19.171-.1-19.171-.22,8.58-.231,19.171-.231S232.212,360.469,232.212,360.6Z" transform="translate(-12.772 -14.476)" fill="#e0e0e0"/>
        <path id="Path_33847" data-name="Path 33847" d="M232.212,365.361c0,.121-8.591.22-19.171.22s-19.171-.1-19.171-.22,8.58-.231,19.171-.231S232.212,365.229,232.212,365.361Z" transform="translate(-12.772 -14.006)" fill="#e0e0e0"/>
        <rect id="Rectangle_10248" data-name="Rectangle 10248" width="39.573" height="74.981" transform="translate(185.745 361.704)" fill="#ebebeb"/>
        <path id="Path_33848" data-name="Path 33848" d="M241.226,446.823H193.48V441.55h47.746a2.648,2.648,0,0,1,2.637,2.637h0a2.637,2.637,0,0,1-2.637,2.637Z" transform="translate(-12.811 -6.469)" fill="#e0e0e0"/>
        <path id="Path_33849" data-name="Path 33849" d="M193.48,372.36h49.175a1.209,1.209,0,0,1,1.208,1.209v2.856a1.208,1.208,0,0,1-1.208,1.208H193.48V372.36Z" transform="translate(-12.811 -13.293)" fill="#e0e0e0"/>
        <path id="Path_33850" data-name="Path 33850" d="M237.671,383.92c0,.132-8.855.231-19.775.231s-19.775-.1-19.775-.231,8.855-.22,19.775-.22S237.671,383.8,237.671,383.92Z" transform="translate(-12.353 -12.175)" fill="#e0e0e0"/>
        <path id="Path_33851" data-name="Path 33851" d="M237.671,392.681c0,.121-8.855.22-19.775.22s-19.775-.1-19.775-.22,8.855-.231,19.775-.231S237.671,392.549,237.671,392.681Z" transform="translate(-12.353 -11.312)" fill="#e0e0e0"/>
        <path id="Path_33852" data-name="Path 33852" d="M237.671,401.431c0,.121-8.855.231-19.775.231s-19.775-.11-19.775-.231,8.855-.231,19.775-.231S237.671,401.31,237.671,401.431Z" transform="translate(-12.353 -10.449)" fill="#e0e0e0"/>
        <path id="Path_33853" data-name="Path 33853" d="M237.671,410.18c0,.132-8.855.231-19.775.231s-19.775-.1-19.775-.231,8.855-.22,19.775-.22S237.671,410.059,237.671,410.18Z" transform="translate(-12.353 -9.585)" fill="#e0e0e0"/>
        <path id="Path_33854" data-name="Path 33854" d="M237.671,418.941c0,.121-8.855.22-19.775.22s-19.775-.1-19.775-.22,8.855-.231,19.775-.231S237.671,418.809,237.671,418.941Z" transform="translate(-12.353 -8.722)" fill="#e0e0e0"/>
        <path id="Path_33855" data-name="Path 33855" d="M237.671,427.691c0,.121-8.855.231-19.775.231s-19.775-.11-19.775-.231,8.855-.231,19.775-.231S237.671,427.57,237.671,427.691Z" transform="translate(-12.353 -7.859)" fill="#e0e0e0"/>
        <path id="Path_33856" data-name="Path 33856" d="M237.671,436.44c0,.132-8.855.231-19.775.231s-19.775-.1-19.775-.231,8.855-.22,19.775-.22S237.671,436.319,237.671,436.44Z" transform="translate(-12.353 -6.995)" fill="#e0e0e0"/>
        <path id="Path_33857" data-name="Path 33857" d="M88.312,415.352v4.526c0,5.493-2.725,8.558-7.976,8.558s-7.976-3.109-7.976-8.558v-17.7c0-5.493,2.725-8.569,7.976-8.569s7.976,3.12,7.976,8.569v3.3H83.258v-3.636c0-2.439-1.1-3.362-2.769-3.362s-2.78.923-2.78,3.362v18.38c0,2.439,1.1,3.3,2.78,3.3s2.769-.868,2.769-3.3v-4.867Z" transform="translate(-24.756 -11.197)" fill="#ebebeb"/>
        <g id="Group_7372" data-name="Group 7372">
          <rect id="Rectangle_10249" data-name="Rectangle 10249" width="185.745" height="81.298" transform="translate(0 359.067)" fill="#e0e0e0"/>
          <path id="Path_33858" data-name="Path 33858" d="M89.45,402.179c0-5.493,2.867-8.569,8.119-8.569s8.119,3.12,8.119,8.569v17.7c0,5.493-2.867,8.558-8.119,8.558s-8.119-3.109-8.119-8.558Zm5.35,18.039c0,2.439,1.1,3.362,2.769,3.362s2.769-.923,2.769-3.362v-18.38c0-2.439-1.1-3.362-2.769-3.362s-2.769.923-2.769,3.362Z" transform="translate(-23.071 -11.197)" fill="#ebebeb"/>
          <path id="Path_33859" data-name="Path 33859" d="M107.37,394h5.35v29.18h8.789v4.878H107.37Z" transform="translate(-21.304 -11.159)" fill="#ebebeb"/>
          <path id="Path_33860" data-name="Path 33860" d="M122,402.179c0-5.493,2.867-8.569,8.119-8.569s8.13,3.12,8.13,8.569v17.7c0,5.493-2.867,8.558-8.13,8.558S122,425.327,122,419.878Zm5.35,18.039c0,2.439,1.1,3.362,2.769,3.362s2.78-.923,2.78-3.362v-18.38c0-2.439-1.1-3.362-2.78-3.362s-2.769.923-2.769,3.362Z" transform="translate(-19.86 -11.197)" fill="#ebebeb"/>
        </g>
        <path id="Path_33861" data-name="Path 33861" d="M145.04,394v26.268c0,2.428,1.1,3.3,2.769,3.3s2.769-.879,2.769-3.3V394h5.065v25.928c0,5.438-2.725,8.558-7.976,8.558s-7.976-3.12-7.976-8.558V394Z" transform="translate(-18.116 -11.159)" fill="#ebebeb"/>
        <path id="Path_33862" data-name="Path 33862" d="M168.715,428.057a10.316,10.316,0,0,1-.494-4.186v-5.35c0-3.164-1.1-4.329-3.494-4.329H162.87v13.865h-5.35V394h8.075c5.493,0,7.932,2.582,7.932,7.833v2.67c0,3.5-1.1,5.79-3.5,6.91,2.681,1.1,3.549,3.691,3.549,7.24v5.262a9.965,9.965,0,0,0,.593,4.131Zm-5.845-29.18v10.448h2.1c1.989,0,3.208-.868,3.208-3.592v-3.362c0-2.428-.824-3.494-2.725-3.494Z" transform="translate(-16.357 -11.159)" fill="#ebebeb"/>
        <path id="Path_33870" data-name="Path 33870" d="M150.68,361.015a4.68,4.68,0,0,1-4.7,4.944,3.12,3.12,0,0,1-3.164-1.813l-.945,4.8h-1.1l2.252-11.371h1.1l-.264,1.329a4.175,4.175,0,0,1,3.23-1.4,3.362,3.362,0,0,1,3.593,3.5Zm-1.1.066a2.439,2.439,0,0,0-2.736-2.593,3.625,3.625,0,0,0-3.625,3.955,2.417,2.417,0,0,0,2.725,2.582,3.625,3.625,0,0,0,3.6-3.944Z" transform="translate(-18.009 -14.758)" fill="#e0e0e0"/>
        <path id="Path_33871" data-name="Path 33871" d="M159.717,360.543a4.8,4.8,0,0,1-.088.945l-.945,4.724h-1.1l.956-4.735a4.923,4.923,0,0,0,.077-.758c0-1.187-.714-1.868-2.2-1.868a3.23,3.23,0,0,0-3.373,2.911l-.89,4.449h-1.1l2.34-11.722h1.1l-.934,4.658a4.087,4.087,0,0,1,3.175-1.307C158.684,357.808,159.717,358.819,159.717,360.543Z" transform="translate(-16.994 -15.056)" fill="#e0e0e0"/>
        <path id="Path_33872" data-name="Path 33872" d="M169.489,357.57l-6.042,9.382c-1.033,1.582-1.8,2.065-3,2.065a2.692,2.692,0,0,1-1.978-.736l.6-.824a1.945,1.945,0,0,0,1.461.6c.714,0,1.263-.341,1.912-1.351l.593-.879-2.076-8.262h1.1l1.714,7.075,4.537-7.075Z" transform="translate(-16.264 -14.752)" fill="#e0e0e0"/>
        <g id="Group_7368" data-name="Group 7368" opacity="0.33">
          <path id="Path_33873" data-name="Path 33873" d="M206.408,46.79H37.89L65.356,66.565v38.968a8.13,8.13,0,0,0,8.141,8.141H206.43a8.141,8.141,0,0,0,8.141-8.141v-50.6a8.141,8.141,0,0,0-8.163-8.141Z" transform="translate(-28.156 -45.403)" fill="#f5f5f5"/>
          <path id="Path_33874" data-name="Path 33874" d="M195.071,71.887c0,.165-25.411.3-56.755.3s-56.766-.143-56.766-.3,25.411-.3,56.766-.3S195.071,71.722,195.071,71.887Z" transform="translate(-23.851 -42.957)" fill="#e0e0e0"/>
          <path id="Path_33875" data-name="Path 33875" d="M195.071,85.507c0,.165-25.411.3-56.755.3s-56.766-.132-56.766-.3,25.411-.3,56.766-.3S195.071,85.342,195.071,85.507Z" transform="translate(-23.851 -41.614)" fill="#e0e0e0"/>
        </g>
        <g id="Group_7371" data-name="Group 7371">
          <rect id="Rectangle_10247" data-name="Rectangle 10247" width="164.992" height="29.663" transform="translate(16.117 329.393)" fill="#f5f5f5"/>
          <rect id="Rectangle_10281" data-name="Rectangle 10281" width="52" height="8" transform="translate(82.562 340.14)" fill="#e0e0e0"/>
        </g>
      </g>
      <g id="freepik--Table--inject-100" transform="translate(22.73 485.596)">
        <path id="Path_33876" data-name="Path 33876" d="M792.363,446.376c0,.165-172.309.286-384.794.286S22.73,446.54,22.73,446.376s172.265-.286,384.838-.286S792.363,446.222,792.363,446.376Z" transform="translate(-22.73 -446.09)" fill="#263238"/>
      </g>
      <g id="freepik--Plants--inject-100" transform="translate(50.788 300.242)">
        <path id="Path_33877" data-name="Path 33877" d="M661.68,404s-29.125-33.508-40.111-67.016-5.768-29.663-5.768-29.663,14.831,32.563,26.092,48.285,31.377,38.781,31.377,38.781Z" transform="translate(7.583 -274.436)" fill="#3fa72f"/>
        <path id="Path_33878" data-name="Path 33878" d="M663.015,312.079a1.692,1.692,0,0,0-3.153,1.1c1.769,11.777,5.614,39.408,5.493,57.326-.2,23.28,0,32.278,0,32.278H677.44s-2.2-48.12-4.889-62.8C670.64,329.723,666.608,318.3,663.015,312.079Z" transform="translate(12.048 -274.04)" fill="#3fa72f"/>
        <path id="Path_33879" data-name="Path 33879" d="M668.75,399.241a128.538,128.538,0,0,0,9.976-36.189c1-8.569-.791-20.149-3.439-35.607a96.368,96.368,0,0,1-1.527-17.128,2.889,2.889,0,0,1,5.427-1.362c1.461,2.615,5.7,11.536,6.779,17.117,2.933,15.26,6.251,22.9,3.713,37.353s-11.931,36.782-11.931,36.782Z" transform="translate(12.927 -274.41)" fill="#3fa72f"/>
        <path id="Path_33880" data-name="Path 33880" d="M678.68,401.9s31.981-68.719,34.2-78.914,9.745-33.684,10.635-32.355,2.2,13.744-3.549,27.927S689.6,403.991,689.6,403.991H678.68" transform="translate(13.906 -276.073)" fill="#3fa72f"/>
        <path id="Path_33881" data-name="Path 33881" d="M670.554,397.114a7.376,7.376,0,0,1-.9-.615c-.56-.428-1.428-1.033-2.472-1.89a110.636,110.636,0,0,1-8.591-7.592,143.923,143.923,0,0,1-23.2-29.773,194.589,194.589,0,0,1-15.831-34.3c-1.6-4.559-2.78-8.295-3.538-10.9-.4-1.285-.67-2.307-.857-2.988a5.756,5.756,0,0,1-.242-1.1,6.831,6.831,0,0,1,.373,1.022l.978,2.955c.835,2.571,2.076,6.284,3.735,10.811a208.259,208.259,0,0,0,15.974,34.123,149.974,149.974,0,0,0,22.972,29.806c3.417,3.406,6.35,5.988,8.415,7.69,1.022.89,1.857,1.527,2.4,1.988a6.705,6.705,0,0,1,.791.758Z" transform="translate(7.618 -274.359)" fill="#263238"/>
        <path id="Path_33882" data-name="Path 33882" d="M669.476,363.677a12.286,12.286,0,0,1-.286-2.011c-.154-1.428-.352-3.3-.582-5.493-.505-4.658-1.3-11.063-2.428-18.105s-2.395-13.381-3.373-17.952c-.472-2.2-.868-4.021-1.165-5.416a12.265,12.265,0,0,1-.363-2.01,11.724,11.724,0,0,1,.615,1.945c.363,1.263.835,3.1,1.384,5.372,1.1,4.548,2.439,10.887,3.571,17.952s1.846,13.491,2.2,18.16c.2,2.34.319,4.23.374,5.493a9.886,9.886,0,0,1,.055,2.065Z" transform="translate(12.19 -273.893)" fill="#263238"/>
        <path id="Path_33883" data-name="Path 33883" d="M675.849,308.35a5.127,5.127,0,0,1,.374.879c.253.648.571,1.494.967,2.549s.9,2.472,1.373,4.1,1.1,3.428,1.549,5.493l.791,3.23c.275,1.1.461,2.318.7,3.538.527,2.439.846,5.087,1.23,7.866a117.158,117.158,0,0,1-1.3,36.321c-.582,2.747-1.1,5.361-1.791,7.756-.33,1.2-.6,2.373-.956,3.472s-.692,2.2-1.022,3.175c-.615,2.032-1.351,3.8-1.945,5.372s-1.164,2.911-1.659,3.988l-1.1,2.472a4.737,4.737,0,0,1-.439.846,4.855,4.855,0,0,1,.318-.9l1.011-2.527c.461-1.1,1.011-2.428,1.549-4.01s1.263-3.362,1.846-5.394c.308-1.011.637-2.065.978-3.164s.593-2.274.912-3.472c.67-2.395,1.1-5,1.725-7.69a121.562,121.562,0,0,0,1.3-36.134c-.374-2.769-.67-5.405-1.164-7.833-.242-1.219-.418-2.406-.67-3.527s-.505-2.2-.747-3.23c-.428-2.065-1.011-3.889-1.45-5.493s-.868-2.988-1.252-4.109-.626-1.934-.835-2.593a4.936,4.936,0,0,1-.3-.978Z" transform="translate(13.31 -274.321)" fill="#263238"/>
        <path id="Path_33884" data-name="Path 33884" d="M722.674,291.89a.825.825,0,0,1,0,.308,7.3,7.3,0,0,1-.143.89c-.143.78-.319,1.945-.626,3.428a124.836,124.836,0,0,1-3.3,12.371c-1.648,5.164-3.768,11.206-6.361,17.864s-5.581,13.9-8.415,21.61-5.109,15.227-7.2,22.038-4.021,12.964-5.922,18.017a116.073,116.073,0,0,1-5.043,11.755c-.659,1.362-1.253,2.373-1.626,3.076l-.45.78a1.1,1.1,0,0,1-.176.264,1.234,1.234,0,0,1,.11-.3l.4-.813c.341-.725.89-1.758,1.505-3.131,1.285-2.725,3.021-6.724,4.834-11.8s3.735-11.195,5.779-18.029,4.252-14.37,7.141-22.093,5.867-14.974,8.481-21.61,4.845-12.656,6.482-17.787,2.758-9.349,3.45-12.283c.352-1.461.571-2.615.758-3.384.088-.352.154-.637.209-.879a1,1,0,0,1,.11-.3Z" transform="translate(14.374 -275.944)" fill="#263238"/>
        <path id="Path_33885" data-name="Path 33885" d="M629.828,278.138a2.758,2.758,0,0,0-4.537,2.812,78.246,78.246,0,0,0,4.021,10.327c4.395,9.349,17.315,42.846,23.357,61.27s14.557,52.734,14.557,52.734l12.909-2.087s-11.81-56.415-23.291-76.794C647.516,310.109,638.244,286.51,629.828,278.138Z" transform="translate(8.629 -277.376)" fill="#3fa72f"/>
        <path id="Path_33886" data-name="Path 33886" d="M653.41,356.28a7.515,7.515,0,0,1,.67,1.549c.385,1.011.9,2.483,1.483,4.329,1.187,3.68,2.648,8.789,4.109,14.535s2.681,10.92,3.527,14.689c.4,1.78.714,3.3.978,4.471a8.619,8.619,0,0,1,.264,1.659,7.887,7.887,0,0,1-.527-1.593c-.308-1.176-.7-2.659-1.176-4.395l-3.724-14.678c-1.461-5.713-2.845-10.865-3.911-14.568l-1.274-4.395A8.4,8.4,0,0,1,653.41,356.28Z" transform="translate(11.414 -269.594)" fill="#263238"/>
        <path id="Path_33887" data-name="Path 33887" d="M673.574,404.2a1.545,1.545,0,0,1-.066-.341,8.017,8.017,0,0,0-.154-1.022c-.132-.89-.253-2.2-.527-3.911-.473-3.384-1.318-8.273-2.7-14.227a206.437,206.437,0,0,0-6.042-20.621c-2.648-7.69-5.966-15.908-9.734-24.466-7.591-17.084-15.172-32.234-20.16-43.429-2.516-5.592-4.471-10.151-5.757-13.337-.659-1.582-1.1-2.823-1.45-3.669-.143-.4-.264-.7-.363-.967a1.237,1.237,0,0,1-.1-.33,2.681,2.681,0,0,1,.165.308c.1.209.253.56.429.934l1.56,3.625c1.362,3.142,3.384,7.69,5.955,13.184,5.087,11.151,12.744,26.257,20.347,43.363,3.768,8.569,7.075,16.853,9.7,24.532a196.519,196.519,0,0,1,5.922,20.753,144.63,144.63,0,0,1,2.494,14.282c.231,1.7.308,3.032.406,3.933,0,.418.055.747.077,1.022A1.428,1.428,0,0,1,673.574,404.2Z" transform="translate(8.762 -277.326)" fill="#263238"/>
        <path id="Path_33888" data-name="Path 33888" d="M676.464,396.779a14.967,14.967,0,0,1-.439-2.2c-.253-1.516-.593-3.516-1-5.933-.89-5-2.2-11.887-4.2-19.38s-4.12-14.183-5.79-18.973l-1.977-5.647a13.065,13.065,0,0,1-.681-2.109,14.513,14.513,0,0,1,.934,2.01c.549,1.307,1.329,3.219,2.2,5.6a186.884,186.884,0,0,1,6,18.962,198.08,198.08,0,0,1,4.01,19.479c.374,2.516.648,4.559.791,5.976A14.754,14.754,0,0,1,676.464,396.779Z" transform="translate(12.299 -270.949)" fill="#263238"/>
        <rect id="Rectangle_10250" data-name="Rectangle 10250" width="50.383" height="61.38" transform="translate(664.868 123.974)" fill="#ff725e"/>
        <g id="Group_7339" data-name="Group 7339" transform="translate(664.868 123.974)" opacity="0.3">
          <rect id="Rectangle_10251" data-name="Rectangle 10251" width="50.383" height="61.38"/>
        </g>
        <rect id="Rectangle_10252" data-name="Rectangle 10252" width="44.692" height="61.38" transform="translate(654.486 123.974)" fill="#ff725e"/>
        <path id="Path_33889" data-name="Path 33889" d="M92.162,371.171c-8.591-5.493-20.478-5.6-28.828.231C55.4,376.95,51.37,387.035,51.722,396.67s5.043,21.478,13.8,26.565l25.708-.11a34.519,34.519,0,0,0,14.15-25.939C105.763,387.035,100.743,376.664,92.162,371.171Z" transform="translate(-47.931 -268.533)" fill="#3fa72f"/>
        <path id="Path_33890" data-name="Path 33890" d="M77.226,424.115a11.6,11.6,0,0,1-.154-2.2c0-1.582-.11-3.6-.176-6.031-.132-5.087-.33-12.085-.67-19.874s-.758-14.788-1.1-19.874c-.143-2.417-.264-4.395-.363-6.021a11.446,11.446,0,0,1,0-2.2,12.184,12.184,0,0,1,.352,2.2c.176,1.417.385,3.472.626,6.01.461,5.076.967,12.085,1.318,19.874s.45,14.82.428,19.918c0,2.549,0,4.6-.088,6.031A12.083,12.083,0,0,1,77.226,424.115Z" transform="translate(-45.661 -268.446)" fill="#263238"/>
        <path id="Path_33891" data-name="Path 33891" d="M54.634,392.116c0,.22-1.417.3-3.12.154s-3.065-.439-3.054-.659,1.417-.3,3.12-.165S54.656,391.885,54.634,392.116Z" transform="translate(-48.251 -266.132)" fill="#263238"/>
        <path id="Path_33892" data-name="Path 33892" d="M54.974,384.357c-.1.209-1.3-.121-2.692-.747s-2.45-1.285-2.362-1.494,1.3.132,2.692.747S55.062,384.192,54.974,384.357Z" transform="translate(-48.107 -267.052)" fill="#263238"/>
        <path id="Path_33893" data-name="Path 33893" d="M59.031,378.663c-.121.187-1.472-.45-2.878-1.615s-2.3-2.384-2.131-2.527,1.285.758,2.648,1.89S59.152,378.465,59.031,378.663Z" transform="translate(-47.704 -267.796)" fill="#263238"/>
        <path id="Path_33894" data-name="Path 33894" d="M62.869,373.2c-.209.088-.857-.923-1.45-2.263s-.912-2.5-.7-2.6.857.923,1.45,2.274S63.067,373.11,62.869,373.2Z" transform="translate(-47.048 -268.406)" fill="#263238"/>
        <path id="Path_33895" data-name="Path 33895" d="M69.241,369.316c-.209.088-.9-.989-1.373-2.483s-.505-2.791-.286-2.823.626,1.1,1.1,2.571S69.449,369.218,69.241,369.316Z" transform="translate(-46.378 -268.831)" fill="#263238"/>
        <path id="Path_33896" data-name="Path 33896" d="M79.9,364.41c.22.077.088,1-.286,2.065s-.857,1.857-1.1,1.78-.088-.989.286-2.054S79.7,364.334,79.9,364.41Z" transform="translate(-45.297 -268.792)" fill="#263238"/>
        <path id="Path_33897" data-name="Path 33897" d="M87.986,367.823c.154.165-.406.934-1.252,1.714s-1.648,1.274-1.8,1.1.406-.934,1.241-1.714S87.833,367.658,87.986,367.823Z" transform="translate(-44.656 -268.458)" fill="#263238"/>
        <path id="Path_33898" data-name="Path 33898" d="M95.006,372.334c.132.187-.549.868-1.516,1.527s-1.857,1.033-1.989.846.56-.868,1.527-1.527S94.885,372.148,95.006,372.334Z" transform="translate(-44.007 -268.015)" fill="#263238"/>
        <path id="Path_33899" data-name="Path 33899" d="M100.11,379.056c.088.209-.978.868-2.4,1.472s-2.637.923-2.725.714.989-.868,2.406-1.461S100.022,378.847,100.11,379.056Z" transform="translate(-43.662 -267.353)" fill="#263238"/>
        <path id="Path_33900" data-name="Path 33900" d="M102.058,386.409c0,.22-1.1.549-2.45.714s-2.5.132-2.538-.1,1.1-.538,2.439-.714S102.025,386.178,102.058,386.409Z" transform="translate(-43.456 -266.643)" fill="#263238"/>
        <path id="Path_33901" data-name="Path 33901" d="M103.058,395.616c-.088.209-1.252-.1-2.593-.681s-2.373-1.23-2.285-1.439,1.263.1,2.6.681S103.157,395.407,103.058,395.616Z" transform="translate(-43.347 -265.93)" fill="#263238"/>
        <path id="Path_33902" data-name="Path 33902" d="M102.215,403.487c-.077.209-1.549-.143-3.087-1.154s-2.45-2.2-2.3-2.362,1.285.725,2.747,1.67S102.292,403.3,102.215,403.487Z" transform="translate(-43.482 -265.286)" fill="#263238"/>
        <path id="Path_33903" data-name="Path 33903" d="M98.05,410.606c-.132.176-1.307-.505-2.428-1.725s-1.725-2.428-1.549-2.56,1.1.846,2.2,2S98.2,410.43,98.05,410.606Z" transform="translate(-43.755 -264.659)" fill="#263238"/>
        <path id="Path_33904" data-name="Path 33904" d="M59.923,411.054c.1.2-1.1,1.1-2.758,1.89s-3.021,1.351-3.164,1.176,1.1-1.1,2.747-1.9S59.813,410.856,59.923,411.054Z" transform="translate(-47.705 -264.195)" fill="#263238"/>
        <path id="Path_33905" data-name="Path 33905" d="M56.317,404.676c.088.209-.9.857-2.2,1.45s-2.45.912-2.549.7.9-.857,2.2-1.45S56.218,404.467,56.317,404.676Z" transform="translate(-47.944 -264.827)" fill="#263238"/>
        <path id="Path_33906" data-name="Path 33906" d="M53.818,399.014c0,.22-1.187.582-2.725.8s-2.791.209-2.823,0,1.187-.582,2.714-.791S53.785,398.8,53.818,399.014Z" transform="translate(-48.269 -265.394)" fill="#263238"/>
        <path id="Path_33907" data-name="Path 33907" d="M62.247,395.909c.066.22-1.1.769-2.692.945s-2.867-.1-2.845-.319,1.252-.319,2.747-.494S62.181,395.689,62.247,395.909Z" transform="translate(-47.437 -265.695)" fill="#263238"/>
        <path id="Path_33908" data-name="Path 33908" d="M69.16,388.942c.066.209-.879.692-2.2.813s-2.285-.154-2.263-.374,1.011-.319,2.2-.439S69.095,388.722,69.16,388.942Z" transform="translate(-46.649 -266.385)" fill="#263238"/>
        <path id="Path_33909" data-name="Path 33909" d="M70.486,383.478c-.077.22-1.1.055-2.285-.352s-2.087-.912-2.01-1.1,1.1-.055,2.285.363S70.563,383.269,70.486,383.478Z" transform="translate(-46.502 -267.063)" fill="#263238"/>
        <path id="Path_33910" data-name="Path 33910" d="M72.833,377.954c-.154.165-.857-.3-1.362-1.176s-.549-1.7-.33-1.758.593.582,1.1,1.351S73,377.8,72.833,377.954Z" transform="translate(-46.026 -267.746)" fill="#263238"/>
        <path id="Path_33911" data-name="Path 33911" d="M69.91,400.832c.055.22-.824.626-1.978.912a7.392,7.392,0,0,1-1.659.242l-.154-.483c.3,0,.483,0,.527.055s-.088.231-.33.417l-.165-.483a7.694,7.694,0,0,1,1.593-.549C68.889,400.667,69.855,400.612,69.91,400.832Z" transform="translate(-46.509 -265.213)" fill="#263238"/>
        <path id="Path_33912" data-name="Path 33912" d="M71.48,410.736c.077.209-1.1.846-2.527,1.428s-2.736.879-2.812.67,1.1-.857,2.516-1.428S71.414,410.527,71.48,410.736Z" transform="translate(-46.507 -264.229)" fill="#263238"/>
        <path id="Path_33913" data-name="Path 33913" d="M63.426,406.34c.077.209-.681.659-1.681,1s-1.868.45-1.945.231.681-.659,1.681-1S63.316,406.12,63.426,406.34Z" transform="translate(-47.133 -264.668)" fill="#263238"/>
        <path id="Path_33914" data-name="Path 33914" d="M64.184,386.347c0,.22-1.362.088-2.867-.451s-2.615-1.263-2.516-1.461,1.318.165,2.791.681S64.239,386.16,64.184,386.347Z" transform="translate(-47.231 -266.822)" fill="#263238"/>
        <path id="Path_33915" data-name="Path 33915" d="M83.2,384.005c.132.187-.6.89-1.637,1.571s-1.978,1.1-2.109.89.615-.89,1.648-1.571S83.077,383.785,83.2,384.005Z" transform="translate(-45.195 -266.865)" fill="#263238"/>
        <path id="Path_33916" data-name="Path 33916" d="M84.237,393.934c0,.22-.736.571-1.736.78s-1.846.2-1.9,0,.736-.571,1.736-.78S84.182,393.715,84.237,393.934Z" transform="translate(-45.081 -265.896)" fill="#263238"/>
        <path id="Path_33917" data-name="Path 33917" d="M85.541,405.309c-.1.2-1.219-.11-2.494-.7a5.355,5.355,0,0,1-2.2-1.45c0-.209,1.219.11,2.494.7S85.629,405.1,85.541,405.309Z" transform="translate(-45.056 -264.977)" fill="#263238"/>
        <path id="Path_33918" data-name="Path 33918" d="M82.785,416.286c-.176.154-.9-.439-1.615-1.318s-1.1-1.7-.978-1.846.89.45,1.615,1.329S82.961,416.132,82.785,416.286Z" transform="translate(-45.123 -263.99)" fill="#263238"/>
        <path id="Path_33919" data-name="Path 33919" d="M82.252,376.655c.143.176-.341.78-1.165,1.187s-1.582.439-1.637.22.538-.571,1.274-.945S82.142,376.479,82.252,376.655Z" transform="translate(-45.194 -267.59)" fill="#263238"/>
        <path id="Path_33920" data-name="Path 33920" d="M91.828,386.689c.077.209-.879.736-2.2.923s-2.362-.066-2.351-.286,1.022-.363,2.2-.527S91.751,386.48,91.828,386.689Z" transform="translate(-44.422 -266.605)" fill="#263238"/>
        <path id="Path_33921" data-name="Path 33921" d="M89.975,377.686c.1.2-.846.879-2.2,1.307s-2.5.428-2.538.209,1.011-.582,2.285-1S89.865,377.477,89.975,377.686Z" transform="translate(-44.623 -267.489)" fill="#263238"/>
        <path id="Path_33922" data-name="Path 33922" d="M94.088,400.748c0,.22-1.626.363-3.582,0s-3.417-1.1-3.3-1.263a13.334,13.334,0,0,1,3.494.45C92.583,400.264,94.088,400.517,94.088,400.748Z" transform="translate(-44.429 -265.337)" fill="#263238"/>
        <path id="Path_33923" data-name="Path 33923" d="M90.383,414.094c-.132.176-1.329-.527-2.516-1.725s-1.879-2.351-1.736-2.527,1.1.791,2.3,1.956S90.5,413.918,90.383,414.094Z" transform="translate(-44.537 -264.313)" fill="#263238"/>
        <path id="Path_33924" data-name="Path 33924" d="M76.181,367a37.355,37.355,0,0,0-7.2,5.691,35.156,35.156,0,0,0-8.965,19.775,44.824,44.824,0,0,0,.538,12.14,96.207,96.207,0,0,0,2.274,9.745c.791,2.736,1.516,4.933,2,6.46a16.086,16.086,0,0,1,.692,2.395,12.922,12.922,0,0,1-.989-2.285c-.582-1.494-1.4-3.669-2.252-6.4a80.909,80.909,0,0,1-2.461-9.778,43.22,43.22,0,0,1-.615-12.36,34.574,34.574,0,0,1,9.36-20.127,25.434,25.434,0,0,1,5.361-4.153,13.645,13.645,0,0,1,1.648-.857A2.415,2.415,0,0,1,76.181,367Z" transform="translate(-47.209 -268.536)" fill="#263238"/>
        <path id="Path_33925" data-name="Path 33925" d="M85.892,423.771c-.187-.1,1.835-3.208,3.68-8.789a49.866,49.866,0,0,0,2.2-22.665,42.682,42.682,0,0,0-3.494-12.162,28.806,28.806,0,0,0-5.955-8.306,22.1,22.1,0,0,0-5.845-3.691c-1.516-.626-2.428-.78-2.417-.846a2.193,2.193,0,0,1,.67,0,11.651,11.651,0,0,1,1.857.494,20.17,20.17,0,0,1,6.108,3.56,28,28,0,0,1,6.262,8.4,41.955,41.955,0,0,1,3.625,12.3,48.208,48.208,0,0,1-2.472,22.972c-.461,1.417-1.1,2.626-1.505,3.724a19.178,19.178,0,0,1-1.362,2.7A17.579,17.579,0,0,1,85.892,423.771Z" transform="translate(-45.726 -268.508)" fill="#263238"/>
        <path id="Path_33926" data-name="Path 33926" d="M55.89,416.93h45.241l.275,9.053H55.89Z" transform="translate(-47.518 -263.612)" fill="#ff725e"/>
        <path id="Path_33927" data-name="Path 33927" d="M59.39,421.05l2.593,27.641h33.08l2.659-27.334Z" transform="translate(-47.173 -263.206)" fill="#ff725e"/>
        <path id="Path_33928" data-name="Path 33928" d="M101.405,425.306c0,.231-10.184.406-22.753.406s-22.753-.176-22.753-.406,10.184-.406,22.753-.406S101.405,425.076,101.405,425.306Z" transform="translate(-47.517 -262.826)" fill="#263238"/>
        <path id="Path_33929" data-name="Path 33929" d="M96.274,433.177a6.811,6.811,0,0,1-.967,1.736,25.422,25.422,0,0,1-3.516,4.142l-.209.2-.2-.22a65.037,65.037,0,0,0-8.877-7.756h.505l-3.933,3.45-4.647,4.021-.253.231-.264-.22-7.548-6.35.439-.055c-1.56,1.912-2.878,3.5-3.911,4.779a10.458,10.458,0,0,1-1.538,1.67,12.311,12.311,0,0,1,1.263-1.89l3.691-4.933.2-.253.253.2,7.69,6.218H73.95l4.625-4.065,3.944-3.439.242-.209.264.187a58.129,58.129,0,0,1,8.789,8.009H91.4a44.251,44.251,0,0,0,4.878-5.449Z" transform="translate(-46.978 -262.28)" fill="#263238"/>
      </g>
      <g id="freepik--Device--inject-100" transform="translate(132.01 140.276)">
        <rect id="Rectangle_10253" data-name="Rectangle 10253" width="510.928" height="337.872" rx="14.57" transform="translate(16.765)" fill="#455a64"/>
        <path id="Path_33930" data-name="Path 33930" d="M122.244,419.44H675.787v10.008A19.556,19.556,0,0,1,656.232,449H141.756A19.556,19.556,0,0,1,122.2,429.448V419.44Z" transform="translate(-122.2 -103.398)" fill="#455a64"/>
        <path id="Path_33931" data-name="Path 33931" d="M324.15,416.56l6.866,10.931h96.657l6.372-10.931Z" transform="translate(-102.282 -103.682)" fill="#263238"/>
        <path id="Path_33932" data-name="Path 33932" d="M643.993,416.59c0,.187-113.4.33-253.245.33s-253.289-.143-253.289-.33,113.378-.33,253.289-.33S643.993,416.4,643.993,416.59Z" transform="translate(-120.695 -103.711)" fill="#263238"/>
        <rect id="Rectangle_10254" data-name="Rectangle 10254" width="479.661" height="284.523" rx="3.27" transform="translate(31.399 19.424)" fill="#ebebeb"/>
        <path id="Path_33933" data-name="Path 33933" d="M629.971,432.481H150.31l.516-263.671H629.971Z" transform="translate(-119.428 -128.117)" fill="#fff"/>
        <path id="Path_33934" data-name="Path 33934" d="M187.278,159.8a3.834,3.834,0,1,1-3.834-3.8,3.834,3.834,0,0,1,3.834,3.8Z" transform="translate(-116.538 -129.38)" fill="#263238"/>
        <path id="Path_33935" data-name="Path 33935" d="M166.148,159.8a3.834,3.834,0,1,1-3.8-3.8,3.834,3.834,0,0,1,3.8,3.8Z" transform="translate(-118.622 -129.38)" fill="#263238"/>
        <path id="Path_33936" data-name="Path 33936" d="M176.288,159.8a3.823,3.823,0,1,1-1.12-2.714,3.834,3.834,0,0,1,1.12,2.714Z" transform="translate(-117.622 -129.383)" fill="#263238"/>
        <rect id="Rectangle_10255" data-name="Rectangle 10255" width="480.177" height="25.466" transform="translate(30.882 278.898)" fill="#263238"/>
        <path id="Path_33937" data-name="Path 33937" d="M167.192,400.3v.813h-3.823v-.637l2.054-1.956a1.433,1.433,0,0,0,.593-1.1c0-.472-.33-.747-.967-.747a1.45,1.45,0,0,0-1.208.538l-.681-.516a2.417,2.417,0,0,1,1.978-.857c1.1,0,1.857.56,1.857,1.483a2.065,2.065,0,0,1-.868,1.637l-1.384,1.318Z" transform="translate(-118.16 -105.726)" fill="#fff"/>
        <path id="Path_33938" data-name="Path 33938" d="M167.3,397.615a.615.615,0,1,1,.6.615.593.593,0,0,1-.6-.615Zm0,2.823a.615.615,0,1,1,.279.6A.615.615,0,0,1,167.3,400.439Z" transform="translate(-117.752 -105.611)" fill="#fff"/>
        <path id="Path_33939" data-name="Path 33939" d="M170.784,395.922v5.186h-.956v-4.395h-1.1V395.9Z" transform="translate(-117.611 -105.719)" fill="#fff"/>
        <path id="Path_33940" data-name="Path 33940" d="M176.172,399.922h-.923V401.1h-.934v-1.176H171.47V399.3l2.56-3.3h1.033l-2.417,3.2h1.7v-1.044h.9V399.2h.923Z" transform="translate(-117.341 -105.71)" fill="#fff"/>
        <rect id="Rectangle_10256" data-name="Rectangle 10256" width="393.572" height="1.791" transform="translate(67.302 292.136)" fill="#fff"/>
        <rect id="Rectangle_10257" data-name="Rectangle 10257" width="122.991" height="4.79" transform="translate(67.005 290.213)" fill="#ff2000"/>
        <path id="Path_33941" data-name="Path 33941" d="M299.835,399.038a5.988,5.988,0,1,1-5.988-5.988A5.988,5.988,0,0,1,299.835,399.038Z" transform="translate(-105.861 -106.001)" fill="#ff725e"/>
        <path id="Path_33942" data-name="Path 33942" d="M551.089,398.777a1.725,1.725,0,0,1-1.89,1.7c-1.417,0-2.2-.912-2.2-2.582a2.461,2.461,0,0,1,2.549-2.758,2.637,2.637,0,0,1,1.362.341l-.363.725a1.714,1.714,0,0,0-.978-.253c-.978,0-1.593.6-1.593,1.78h0a1.758,1.758,0,0,1,1.384-.538,1.615,1.615,0,0,1,1.725,1.582Zm-.934,0c0-.538-.406-.879-1.033-.879a.945.945,0,0,0-1.1.89c0,.483.385.868,1.1.868a.89.89,0,0,0,1.033-.835Z" transform="translate(-80.305 -105.795)" fill="#fff"/>
        <path id="Path_33943" data-name="Path 33943" d="M551.15,396.893a.615.615,0,1,1,.279.6A.615.615,0,0,1,551.15,396.893Zm0,2.823a.615.615,0,1,1,.279.6.615.615,0,0,1-.279-.6Z" transform="translate(-79.894 -105.69)" fill="#fff"/>
        <path id="Path_33944" data-name="Path 33944" d="M552.82,397.79c0-1.7.934-2.67,2.2-2.67s2.2.967,2.2,2.67-.934,2.67-2.2,2.67S552.82,399.493,552.82,397.79Zm3.362,0c0-1.252-.483-1.824-1.2-1.824s-1.2.571-1.2,1.824.494,1.835,1.2,1.835S556.182,399.042,556.182,397.79Z" transform="translate(-79.729 -105.796)" fill="#fff"/>
        <path id="Path_33945" data-name="Path 33945" d="M557.35,397.79c0-1.7.934-2.67,2.2-2.67s2.2.967,2.2,2.67-.934,2.67-2.2,2.67S557.35,399.493,557.35,397.79Zm3.373,0c0-1.252-.494-1.824-1.208-1.824s-1.187.571-1.187,1.824.483,1.835,1.187,1.835S560.723,399.042,560.723,397.79Z" transform="translate(-79.282 -105.796)" fill="#fff"/>
        <path id="Path_33946" data-name="Path 33946" d="M569.092,397.725h-1.8V392.55h5.175v1.791h-3.373Z" transform="translate(-78.302 -106.05)" fill="#fff"/>
        <path id="Path_33947" data-name="Path 33947" d="M572.465,403.864H567.29V398.7h1.791v3.373h3.384Z" transform="translate(-78.302 -105.443)" fill="#fff"/>
        <path id="Path_33948" data-name="Path 33948" d="M579.964,403.865H574.8v-1.791h3.362V398.69h1.8Z" transform="translate(-77.561 -105.444)" fill="#fff"/>
        <path id="Path_33949" data-name="Path 33949" d="M579.965,397.714h-1.791v-3.373H574.79V392.55h5.175Z" transform="translate(-77.562 -106.05)" fill="#fff"/>
        <path id="Path_33950" data-name="Path 33950" d="M214,183.08H185.718L171.59,207.568l14.128,24.477H214l14.128-24.477Z" transform="translate(-117.329 -126.709)" fill="#ebebeb"/>
        <path id="Path_33951" data-name="Path 33951" d="M186.971,212.168a24.96,24.96,0,0,1-3.45-4.46,8.536,8.536,0,0,1-1.176-5.427,30.137,30.137,0,0,0,.714-3.219c.11-1.516-.527-3.1,0-4.515.835-2.2,3.812-2.56,5.625-4.087,1.406-1.2,2.1-3.131,3.647-4.131a6.866,6.866,0,0,1,4.691-.637,17.3,17.3,0,0,0,4.8.418,32.357,32.357,0,0,0,3.3-.89,4.516,4.516,0,0,1,3.3.231,2.2,2.2,0,0,1,.9,2.933c1.857-.857,4.208.593,4.713,2.56a5.493,5.493,0,0,1-2.076,5.416,12.085,12.085,0,0,1-5.6,2.285c-5.68,1.1-11.832.472-16.721-2.6" transform="translate(-116.274 -126.519)" fill="#263238"/>
        <path id="Path_33952" data-name="Path 33952" d="M212.842,217.811c-.187-3.5-1.165-10.69-2.131-17.183a13.557,13.557,0,0,0-14.282-11.536h-.7c-7.515.945-10.909,7.855-9.756,15.381l2.2,26.971h18.347s-.439-4.735-.439-4.779S213.238,225.062,212.842,217.811Z" transform="translate(-115.932 -126.119)" fill="#ffbe9d"/>
        <path id="Path_33953" data-name="Path 33953" d="M205.1,223.394a17,17,0,0,1-9.635-2.054s2.593,5.065,9.778,3.933Z" transform="translate(-114.974 -122.936)" fill="#eb996e"/>
        <path id="Path_33954" data-name="Path 33954" d="M206.522,205.328a1.022,1.022,0,0,1-.923,1.1.978.978,0,0,1-1.1-.857,1.033,1.033,0,0,1,.923-1.1.978.978,0,0,1,1.1.857Z" transform="translate(-114.083 -124.601)" fill="#263238"/>
        <path id="Path_33955" data-name="Path 33955" d="M207.641,203c-.121.143-.945-.385-2.065-.308s-1.89.692-2.021.56,0-.308.4-.593a2.879,2.879,0,0,1,1.6-.615,2.7,2.7,0,0,1,1.648.418C207.564,202.7,207.7,202.931,207.641,203Z" transform="translate(-114.181 -124.84)" fill="#263238"/>
        <path id="Path_33956" data-name="Path 33956" d="M196.941,206.018a1.1,1.1,0,0,1-.923,1.1,1,1,0,0,1-1.1-.868,1.1,1.1,0,0,1,.923-1.1,1,1,0,0,1,1.1.868Z" transform="translate(-115.028 -124.533)" fill="#263238"/>
        <path id="Path_33957" data-name="Path 33957" d="M197.681,203.858c-.121.143-.945-.385-2.065-.308s-1.89.681-2.021.56,0-.308.4-.593a2.856,2.856,0,0,1,3.3-.209C197.6,203.55,197.736,203.792,197.681,203.858Z" transform="translate(-115.163 -124.756)" fill="#263238"/>
        <path id="Path_33958" data-name="Path 33958" d="M201.592,211.826a7.282,7.282,0,0,1,1.791-.45c.286,0,.549-.121.582-.319a1.45,1.45,0,0,0-.242-.824l-.989-2.109a38.071,38.071,0,0,1-2.274-5.493,37.012,37.012,0,0,1,2.714,5.35c.33.736.648,1.45.956,2.12a1.747,1.747,0,0,1,.22,1.1.747.747,0,0,1-.439.45,2.2,2.2,0,0,1-.483.1A7.207,7.207,0,0,1,201.592,211.826Z" transform="translate(-114.481 -124.781)" fill="#263238"/>
        <path id="Path_33959" data-name="Path 33959" d="M197.757,199.833c-.088.308-1.209.242-2.5.494s-2.329.67-2.527.406.088-.417.494-.747a4.252,4.252,0,0,1,1.835-.78,4.12,4.12,0,0,1,1.989.1C197.538,199.471,197.8,199.69,197.757,199.833Z" transform="translate(-115.251 -125.127)" fill="#263238"/>
        <path id="Path_33960" data-name="Path 33960" d="M207.046,200.1c-.187.264-.967.055-1.89.1s-1.692.286-1.89,0,0-.385.341-.648a2.582,2.582,0,0,1,1.505-.516,2.67,2.67,0,0,1,1.538.406C206.991,199.711,207.123,199.964,207.046,200.1Z" transform="translate(-114.212 -125.137)" fill="#263238"/>
        <path id="Path_33961" data-name="Path 33961" d="M187.215,208.009c-.132,0-5.087-1.1-4.592,3.812s5.856,3.3,5.845,3.186S187.215,208.009,187.215,208.009Z" transform="translate(-116.244 -124.261)" fill="#ffbe9d"/>
        <path id="Path_33962" data-name="Path 33962" d="M186.158,213.194a1.553,1.553,0,0,1-.209.143.868.868,0,0,1-.648.077,2.131,2.131,0,0,1-1.176-1.813,2.747,2.747,0,0,1,.121-1.252.989.989,0,0,1,.582-.736.45.45,0,0,1,.527.187c.088.132.066.242.088.242s.1-.088,0-.3a.56.56,0,0,0-.22-.286.626.626,0,0,0-.494-.077,1.242,1.242,0,0,0-.824.857,2.945,2.945,0,0,0-.154,1.406,2.2,2.2,0,0,0,1.461,2.01.945.945,0,0,0,.78-.209C186.224,213.359,186.224,213.194,186.158,213.194Z" transform="translate(-116.132 -124.117)" fill="#eb996e"/>
        <path id="Path_33963" data-name="Path 33963" d="M210.423,193.961c-.341,1.967-4.34,3.779-7.69,3.68-3.054-.088-4.57-1.6-6.779-2.681-1.406-.681-1.406-.681-3.3-.374-1.538.253-2.34,2.065-3.2,3.373,1.648,3.593.978,7.767.275,11.656a1.934,1.934,0,0,1-.494,1.176,1.582,1.582,0,0,1-2.01-.3,6.174,6.174,0,0,1-1.56-3.142,20.533,20.533,0,0,1-.483-8.053,13.876,13.876,0,0,1,3.3-7.262,13.184,13.184,0,0,1,9-4.1,16.2,16.2,0,0,1,9.591,2.714,9.657,9.657,0,0,1,3.3,3.3" transform="translate(-116.007 -126.231)" fill="#263238"/>
        <path id="Path_33964" data-name="Path 33964" d="M202.516,213.435l-2.527-1.176a.846.846,0,0,0-.461-.11.692.692,0,0,0-.428.3,2.329,2.329,0,0,0-.286,2.571,1.967,1.967,0,0,0,2.373.868,2.692,2.692,0,0,0,1.4-2.373Z" transform="translate(-114.67 -123.842)" fill="#eb996e"/>
        <path id="Path_33965" data-name="Path 33965" d="M201.28,216.111a1.715,1.715,0,0,1-1.483.132,2.351,2.351,0,0,1-1.307-1.1,2.406,2.406,0,0,1-.165-2.065,2.408,2.408,0,0,1,1.044-1.241.7.7,0,0,1,.659,0c.582.319.967.593,1.351.835.736.494,1.176.835,1.1.9s-.549-.143-1.34-.549l-1.351-.7h-.2a2.08,2.08,0,0,0-.308.253,1.911,1.911,0,0,0-.461.725,1.978,1.978,0,0,0,.088,1.6,2.054,2.054,0,0,0,.989.934A6.037,6.037,0,0,0,201.28,216.111Z" transform="translate(-114.708 -123.881)" fill="#263238"/>
        <path id="Path_33966" data-name="Path 33966" d="M201.246,205.845a4.293,4.293,0,0,0-.264-1.23,5.164,5.164,0,0,0-1.9-2.714,4.922,4.922,0,1,0,0,7.9,5.163,5.163,0,0,0,1.9-2.714c.22-.78.209-1.241.264-1.241s0,.121,0,.341a3.856,3.856,0,0,1-.1.956,5.1,5.1,0,0,1-1.857,2.977,5.405,5.405,0,1,1,0-8.536,5.1,5.1,0,0,1,1.857,2.977,3.813,3.813,0,0,1,.1.956C201.279,205.735,201.268,205.845,201.246,205.845Z" transform="translate(-115.455 -124.997)" fill="#263238"/>
        <path id="Path_33967" data-name="Path 33967" d="M212.452,205.393a9.447,9.447,0,0,0-.264-1.2,5,5,0,0,0-1.846-2.637,4.79,4.79,0,1,0,0,7.69,5,5,0,0,0,1.846-2.637c.22-.758.209-1.208.264-1.208s0,.11,0,.33a4.157,4.157,0,0,1-.088.934,5.01,5.01,0,0,1-1.813,2.9,5.273,5.273,0,1,1,0-8.328,5.032,5.032,0,0,1,1.813,2.911,4.056,4.056,0,0,1,.088.934C212.485,205.283,212.474,205.393,212.452,205.393Z" transform="translate(-114.323 -125.028)" fill="#263238"/>
        <path id="Path_33968" data-name="Path 33968" d="M202.588,203.959c-.11.1-.6-.22-1.263-.2s-1.1.341-1.252.242.308-.791,1.241-.813S202.731,203.871,202.588,203.959Z" transform="translate(-114.522 -124.726)" fill="#263238"/>
        <path id="Path_33969" data-name="Path 33969" d="M191.586,204.7c.1.121-.868,1-2.142,1.956a7.371,7.371,0,0,1-2.483,1.494c-.1-.121.868-1,2.142-1.956A7.262,7.262,0,0,1,191.586,204.7Z" transform="translate(-115.813 -124.577)" fill="#263238"/>
        <path id="Path_33970" data-name="Path 33970" d="M289.1,205.166c0,.154-12.711.286-28.389.286s-28.388-.132-28.388-.286,12.711-.286,28.388-.286S289.1,205.012,289.1,205.166Z" transform="translate(-111.339 -124.559)" fill="#263238"/>
        <path id="Path_33971" data-name="Path 33971" d="M262.8,210.577c0,.154-6.746.286-15.073.286s-15.073-.132-15.073-.286,6.746-.3,15.073-.3S262.8,210.412,262.8,210.577Z" transform="translate(-111.307 -124.027)" fill="#263238"/>
      </g>
      <g id="freepik--Character--inject-100" transform="translate(263.174 123.708)">
        <path id="Path_33972" data-name="Path 33972" d="M440,245.09a43.264,43.264,0,0,1,20.391,26.367c5.306,18.984,21.533,68.423,21.533,68.423s9.272,10.909,10.261,18.984-.989,27.619-3.977,31.267a8.382,8.382,0,0,1-7.229,3.043l-39.034-3.7L426.56,286.552Z" transform="translate(-223.345 -104.026)" fill="#327bf9"/>
        <path id="Path_33973" data-name="Path 33973" d="M324.44,244.7s-27.916,8.789-34.87,16.37l22.851,106.3-.406,33.552H444.378c0-1.659,1.186-111.379,1.186-111.379l7.943-43.055-47.01-8.273-9.272-7.295L344.9,233.579l-7.954,7.943Z" transform="translate(-236.856 -105.423)" fill="#327bf9"/>
        <g id="Group_7340" data-name="Group 7340" transform="translate(75.345 229.389)" opacity="0.3">
          <path id="Path_33974" data-name="Path 33974" d="M333.054,327.6c-.406-.9-1-1.879-1.967-2.076-1.593-.33-2.659,1.549-3.2,3.087a140.142,140.142,0,0,1-17.38,33.937l-.341,16.326c7.69-6.493,15.315-13.447,20.237-22.247S337.163,336.784,333.054,327.6Z" transform="translate(-310.17 -325.485)"/>
        </g>
        <path id="Path_33975" data-name="Path 33975" d="M294.3,258.36s-9.2,12.535-13.008,20.72-35.464,76.9-37.353,84.012-6.811,29.454,7.635,34.64h29.74l29.839-60.348,1.527-70.037Z" transform="translate(-241.589 -102.717)" fill="#327bf9"/>
        <path id="Path_33976" data-name="Path 33976" d="M282.713,345.973a13.154,13.154,0,0,0-2.032-1.362,23.069,23.069,0,0,0-6.24-2.263,30.052,30.052,0,0,0-4.548-.637,18.129,18.129,0,0,0-5.262.374,19.412,19.412,0,0,0-10.009,6.284,27.291,27.291,0,0,0-5.669,10.536,52.572,52.572,0,0,0-1.78,9.723c-.286,2.812-.385,5.109-.483,6.68,0,.747-.088,1.351-.11,1.824a2.306,2.306,0,0,1-.088.637,4.8,4.8,0,0,1,0-.637c0-.483,0-1.1,0-1.824,0-1.593.066-3.878.3-6.713a50.723,50.723,0,0,1,1.681-9.888,27.334,27.334,0,0,1,5.746-10.766,19.775,19.775,0,0,1,10.327-6.416,17.961,17.961,0,0,1,5.361-.3,28.92,28.92,0,0,1,4.6.714,21.7,21.7,0,0,1,6.262,2.461,10.993,10.993,0,0,1,1.483,1.1A3.12,3.12,0,0,1,282.713,345.973Z" transform="translate(-241.106 -94.552)" fill="#263238"/>
        <path id="Path_33977" data-name="Path 33977" d="M266.63,334.619a3.868,3.868,0,0,1,1-.154,17.774,17.774,0,0,1,2.758,0,22.967,22.967,0,0,1,4.054.6,24.171,24.171,0,0,1,9.02,4.307,22.486,22.486,0,0,1,3.021,2.769,17.76,17.76,0,0,1,1.7,2.2,3.758,3.758,0,0,1,.505.879c-.088.066-.9-1.1-2.5-2.769a26.972,26.972,0,0,0-3.043-2.626,27.462,27.462,0,0,0-4.219-2.527,28.963,28.963,0,0,0-4.614-1.692,26.371,26.371,0,0,0-3.955-.7C268.069,334.608,266.63,334.728,266.63,334.619Z" transform="translate(-239.119 -95.216)" fill="#263238"/>
        <path id="Path_33978" data-name="Path 33978" d="M294.165,331.694a6.131,6.131,0,0,1-1.373-.1c-.879-.11-2.142-.242-3.724-.362a63.632,63.632,0,0,0-24.313,2.911c-1.505.483-2.714.912-3.538,1.23a6.922,6.922,0,0,1-1.307.428,5.5,5.5,0,0,1,1.219-.637c.8-.385,2-.868,3.494-1.406a56.118,56.118,0,0,1,24.488-2.922c1.571.165,2.845.352,3.713.538A7.211,7.211,0,0,1,294.165,331.694Z" transform="translate(-239.782 -95.598)" fill="#263238"/>
        <path id="Path_33979" data-name="Path 33979" d="M371.681,281.847a1.56,1.56,0,0,1-.308-.363l-.813-1.1-2.988-4.131c-2.56-3.625-6.141-8.679-10.349-14.612l.461-.066c-1.6,4.7-3.373,9.888-5.229,15.381l-.121.341-.308-.2-.615-.4a31.664,31.664,0,0,1-6.471-5.493,38.513,38.513,0,0,1-4.625-6.394,53.91,53.91,0,0,1-5.087-12.272,85.7,85.7,0,0,1-1.923-8.789c-.176-.989-.308-1.791-.417-2.4a3.805,3.805,0,0,0-.143-.6.522.522,0,0,0-.066-.209,16.688,16.688,0,0,1,.846,3.175,86.738,86.738,0,0,0,2.1,8.679,54.261,54.261,0,0,0,5.153,12.151,39.227,39.227,0,0,0,4.581,6.284,31.167,31.167,0,0,0,6.35,5.361l.6.4-.417.154c1.879-5.493,3.658-10.646,5.284-15.381l.165-.483.3.417c4.131,5.988,7.69,11.085,10.184,14.733,1.2,1.78,2.2,3.2,2.867,4.23l.736,1.1a2.594,2.594,0,0,1,.253.483Z" transform="translate(-232.605 -104.474)" fill="#263238"/>
        <g id="Group_7341" data-name="Group 7341" transform="translate(173.245 228.119)" opacity="0.3">
          <path id="Path_33980" data-name="Path 33980" d="M399.555,324.33a60.226,60.226,0,0,0,7.69,35.661c6.152,10.7,15.183,20.248,26.422,25.367.363-10.909-.165-23.763.2-34.673Z" transform="translate(-399.281 -324.33)"/>
        </g>
        <path id="Path_33981" data-name="Path 33981" d="M398.629,313.594s-4.812,1.329-1.209,11.184,4.812,9.25,7.218,18.457,5.207,17.578,9.4,22.829,19.83,15.82,19.83,15.82L447.891,368.7s-2.307-9.888-1.758-16.545,1.956-23.071,1.758-25.917-3.208-9.613-3.208-9.613v-4.658l-7.207-22.17s-4.01-1.8-5.405,4.6l-2.406-6.8s-3.8-.6-4.8,7.207.8,18.622.8,18.622l-2.01,13.612-3,9.217-2.6.4s-3.922-1.1-6.064-8.448S404.034,311.99,398.629,313.594Z" transform="translate(-226.351 -99.834)" fill="#ffbe9d"/>
        <path id="Path_33982" data-name="Path 33982" d="M440.4,345.508a2.847,2.847,0,0,0-.066-.494,13.9,13.9,0,0,1-.1-1.472c-.077-1.34-.176-3.2-.3-5.493-.22-4.779-.516-11.437-.868-19.2l.055.165a2.823,2.823,0,0,0-2.834-.747,4.164,4.164,0,0,0-2.593,1.912c-1.23,1.967-1.3,4.537-1.681,7.009-.758,5.614-1.483,10.986-2.142,15.831-.33,2.439-.681,4.746-1.154,6.888a43.537,43.537,0,0,1-1.747,5.845,47.139,47.139,0,0,0-1.505,4.757,14.8,14.8,0,0,0-.45,3.68,11.7,11.7,0,0,0,.549,3.142,4.856,4.856,0,0,1-.33-.769,8.273,8.273,0,0,1-.439-2.362,14.007,14.007,0,0,1,.363-3.79,42.848,42.848,0,0,1,1.439-4.812,44.856,44.856,0,0,0,1.648-5.812c.45-2.12.791-4.394,1.1-6.855.637-4.878,1.351-10.217,2.1-15.842.176-1.241.308-2.483.527-3.713a9.788,9.788,0,0,1,1.23-3.527,4.724,4.724,0,0,1,2.955-2.131,3.3,3.3,0,0,1,3.373.923l.055.077v.088c.275,7.767.505,14.425.67,19.215,0,2.318.1,4.175.143,5.493v1.472A2.481,2.481,0,0,1,440.4,345.508Z" transform="translate(-223.52 -96.877)" fill="#eb996e"/>
        <path id="Path_33983" data-name="Path 33983" d="M432.259,321.709a5.492,5.492,0,0,1-.593-1.252,33.383,33.383,0,0,1-1.176-3.582,36.963,36.963,0,0,1-1-5.493,15.971,15.971,0,0,1-.066-3.3,7.174,7.174,0,0,1,1.208-3.428,4.922,4.922,0,0,1,2.571-1.934l.209-.055.11.187c2.032,3.582,3.8,6.746,5.032,9.02l1.439,2.692a4.285,4.285,0,0,1,.461,1.011,4.987,4.987,0,0,1-.637-.912l-1.582-2.6c-1.318-2.2-3.153-5.35-5.2-8.921l.319.132a4.395,4.395,0,0,0-2.252,1.714,6.592,6.592,0,0,0-1.1,3.164,15.828,15.828,0,0,0,0,3.23,41.242,41.242,0,0,0,.868,5.493c.351,1.538.736,2.769.989,3.614a6.461,6.461,0,0,1,.4,1.219Z" transform="translate(-223.068 -98.347)" fill="#eb996e"/>
        <path id="Path_33984" data-name="Path 33984" d="M428.994,324.549a5.137,5.137,0,0,1-.132-1.285c0-.945-.088-2.109-.143-3.483-.088-2.944-.187-7.009-.242-11.5a99.541,99.541,0,0,1,.176-11.525,18.114,18.114,0,0,1,.747-3.428,4,4,0,0,1,.516-1.187,32.19,32.19,0,0,0-.868,4.658c-.275,2.911,0,6.976,0,11.47s.088,8.558.077,11.5v3.494A5.9,5.9,0,0,1,428.994,324.549Z" transform="translate(-223.165 -99.385)" fill="#eb996e"/>
        <path id="Path_33985" data-name="Path 33985" d="M418.15,357.287c-.077-.066.8-1.1,1.879-2.977a25.007,25.007,0,0,0,1.637-3.417,28.185,28.185,0,0,0,1.252-4.46,27.691,27.691,0,0,0,.385-4.614,25.567,25.567,0,0,0-.33-3.768c-.362-2.142-.824-3.417-.725-3.45a3.292,3.292,0,0,1,.4.868,15.832,15.832,0,0,1,.725,2.5,21.429,21.429,0,0,1,.461,3.834,22.688,22.688,0,0,1-1.681,9.283,21.46,21.46,0,0,1-1.769,3.428,15.755,15.755,0,0,1-1.549,2.087C418.425,357.067,418.183,357.309,418.15,357.287Z" transform="translate(-224.175 -95.198)" fill="#eb996e"/>
        <path id="Path_33986" data-name="Path 33986" d="M441.543,349l12.162,4.219s11.623-6.009,19.632,0S488.3,375.059,486.1,381.464c0,0-5.493,6.833-9.734,7.833s-20.555-2.966-27.356-4.395-18.534-9.053-18.534-9.053Z" transform="translate(-222.959 -93.777)" fill="#ffbe9d"/>
        <path id="Path_33987" data-name="Path 33987" d="M441.969,367.76a4.88,4.88,0,0,1-.132-1.1c0-.824-.1-1.8-.165-2.944-.132-2.483-.3-5.911-.352-9.712s.055-7.24.275-9.723c.11-1.241.253-2.2.373-2.933a3.658,3.658,0,0,1,.253-1.1c.088,0-.1,1.538-.22,4.021s-.165,5.9-.11,9.69.132,7.064.176,9.7v2.944a3.6,3.6,0,0,1-.1,1.154Z" transform="translate(-221.891 -94.64)" fill="#eb996e"/>
        <path id="Path_33988" data-name="Path 33988" d="M481.391,353.158a38.763,38.763,0,0,0-4.043-3.647,22.269,22.269,0,0,0-24.653-1.351,39.7,39.7,0,0,0-4.394,3.175,6.505,6.505,0,0,1,1-1.1,20.159,20.159,0,0,1,3.219-2.439,21.874,21.874,0,0,1,25.115,1.4,19.3,19.3,0,0,1,2.922,2.779A6.2,6.2,0,0,1,481.391,353.158Z" transform="translate(-221.201 -94.222)" fill="#263238"/>
        <path id="Path_33989" data-name="Path 33989" d="M480.164,343.563a24.292,24.292,0,0,0-5.065-2.79,22.346,22.346,0,0,0-13.689-.406,31.989,31.989,0,0,0-7.086,2.944,33.6,33.6,0,0,0-5.131,3.625c-1.362,1.165-2.406,2.2-3.12,2.889a8.782,8.782,0,0,1-1.154,1.1,7.576,7.576,0,0,1,.989-1.23,37.989,37.989,0,0,1,3.021-3.043,31.559,31.559,0,0,1,5.131-3.768,30.431,30.431,0,0,1,7.2-3.043,21.885,21.885,0,0,1,14,.582A16.24,16.24,0,0,1,479,342.53c.406.3.681.582.89.758A1.208,1.208,0,0,1,480.164,343.563Z" transform="translate(-221.535 -94.768)" fill="#263238"/>
        <path id="Path_33990" data-name="Path 33990" d="M480.47,335.324c0,.11-2.2-.538-5.691-1.011a44.66,44.66,0,0,0-6.229-.4,48.908,48.908,0,0,0-7.613.681,49.832,49.832,0,0,0-7.394,1.956,43.858,43.858,0,0,0-5.724,2.5c-3.153,1.648-4.933,2.988-5,2.889a7.791,7.791,0,0,1,1.219-.967,13.959,13.959,0,0,1,1.505-1.033c.6-.385,1.285-.835,2.076-1.252a42.165,42.165,0,0,1,5.746-2.637,45.243,45.243,0,0,1,7.471-2.021,46.218,46.218,0,0,1,7.69-.648,41.146,41.146,0,0,1,6.3.516c.89.11,1.681.319,2.373.461a17.021,17.021,0,0,1,1.78.461A9.074,9.074,0,0,1,480.47,335.324Z" transform="translate(-221.742 -95.317)" fill="#263238"/>
        <path id="Path_33991" data-name="Path 33991" d="M394.941,237.23a10.1,10.1,0,0,1,.835,3.23,31.092,31.092,0,0,1-.461,9.437,54.1,54.1,0,0,1-1.571,6.592,50.053,50.053,0,0,1-3.186,7.306c-2.626,5.054-5.922,10.558-9.745,16.479l-.439.692V267.948l.428.209-10.316,8.229.088-.132a107.927,107.927,0,0,0-4.482,24.664c-1.011,13.37-.2,26.158.428,37.76s.9,22.071,1.263,30.86.659,15.886.923,20.8c.154,2.439.264,4.329.341,5.647,0,.626.077,1.1.1,1.472a2.692,2.692,0,0,1,0,.505,2.459,2.459,0,0,0-.077-.494c-.077-.33-.088-.846-.154-1.472-.121-1.285-.275-3.186-.439-5.647-.33-4.9-.714-12.008-1.1-20.8s-.857-19.237-1.384-30.849-1.483-24.411-.472-37.826a107.423,107.423,0,0,1,4.6-24.8V276h.066l10.283-8.251.428-.352v12.744l-.45-.143c7.548-11.7,13.689-21.874,14.634-30.1a32.264,32.264,0,0,0,.593-9.36,16.767,16.767,0,0,0-.45-2.439A8.742,8.742,0,0,1,394.941,237.23Z" transform="translate(-229.409 -104.801)" fill="#263238"/>
        <path id="Path_33992" data-name="Path 33992" d="M374.611,366.22h-.352a3.087,3.087,0,1,0,.4,0Z" transform="translate(-228.789 -92.079)" fill="#fff"/>
        <path id="Path_33993" data-name="Path 33993" d="M374.61,327.68h-.352a3.076,3.076,0,1,0,.4,0Z" transform="translate(-228.788 -95.88)" fill="#fff"/>
        <path id="Path_33994" data-name="Path 33994" d="M374.278,293.755a3.1,3.1,0,1,0,.406-6.185h-.406a3.1,3.1,0,1,0,0,6.2Z" transform="translate(-228.807 -99.836)" fill="#fff"/>
        <path id="Path_33995" data-name="Path 33995" d="M332.059,199.5c-3.845-4.274-7.69-8.58-10.536-13.59s-4.482-10.865-3.56-16.479c.549-3.3,1.956-6.482,2.2-9.888.308-4.614-1.626-9.437,0-13.755,2.549-6.768,11.656-7.811,17.172-12.48,4.3-3.636,6.383-9.536,11.107-12.59,4.131-2.681,9.437-2.615,14.282-1.934s9.767,1.923,14.645,1.263c3.472-.461,6.746-1.868,10.14-2.714s7.207-1.1,10.228.7,4.735,6.053,2.747,8.943c5.647-2.6,12.821,1.8,14.37,7.822s-1.549,12.535-6.339,16.479-10.986,5.823-17.084,6.976c-17.292,3.3-36.068,1.417-50.976-7.943" transform="translate(-234.082 -116.69)" fill="#263238"/>
        <path id="Path_33996" data-name="Path 33996" d="M391.853,256.439c-.846-6.592-1.538-12.008-1.582-12.689,0,0,21.885-4.922,20.676-27.048-.582-10.7-3.571-32.629-6.515-52.437a41.264,41.264,0,0,0-43.594-35.156l-2.2.132c-22.906,2.889-33.266,23.961-29.751,46.791l12.371,76.541s5.273,16.93,16.556,19.863L372.1,292.782l2.351-8.789,10.613-9.25a41.814,41.814,0,0,0,5.24-7.789A17.1,17.1,0,0,0,391.853,256.439Z" transform="translate(-233.044 -115.474)" fill="#ffbe9d"/>
        <path id="Path_33997" data-name="Path 33997" d="M387.347,233.733s-13.9,2.065-29.377-6.273c0,0,7.888,15.458,29.817,12Z" transform="translate(-230.11 -105.765)" fill="#eb996e"/>
        <path id="Path_33998" data-name="Path 33998" d="M391.684,178.661a3.175,3.175,0,0,1-2.834,3.395,3.021,3.021,0,0,1-3.439-2.637A3.153,3.153,0,0,1,388.257,176a3.021,3.021,0,0,1,3.428,2.659Z" transform="translate(-227.405 -110.843)" fill="#263238"/>
        <path id="Path_33999" data-name="Path 33999" d="M395.052,171.541c-.362.439-2.878-1.176-6.273-.934s-5.735,2.1-6.174,1.725c-.187-.165.165-.934,1.2-1.8a8.646,8.646,0,0,1,4.9-1.879,8.284,8.284,0,0,1,5.032,1.263C394.832,170.618,395.227,171.344,395.052,171.541Z" transform="translate(-227.685 -111.567)" fill="#263238"/>
        <path id="Path_34000" data-name="Path 34000" d="M362.464,180.75a3.153,3.153,0,0,1-2.834,3.384,3.01,3.01,0,0,1-3.439-2.626,3.175,3.175,0,0,1,2.824-3.395,3.032,3.032,0,0,1,3.45,2.637Z" transform="translate(-230.287 -110.635)" fill="#263238"/>
        <path id="Path_34001" data-name="Path 34001" d="M364.692,174.153c-.374.439-2.878-1.176-6.273-.934s-5.779,2.1-6.174,1.7c-.2-.165.154-.934,1.187-1.8a8.712,8.712,0,0,1,4.911-1.879,8.272,8.272,0,0,1,5.021,1.263C364.461,173.23,364.868,173.956,364.692,174.153Z" transform="translate(-230.68 -111.311)" fill="#263238"/>
        <path id="Path_34002" data-name="Path 34002" d="M376.629,198.613c0-.2,2.065-.7,5.493-1.373.857-.143,1.67-.374,1.78-.967a4.449,4.449,0,0,0-.758-2.538l-3.01-6.438c-4.186-9.163-7.284-16.732-6.91-16.9s4.065,7.13,8.262,16.3l2.9,6.482a5.054,5.054,0,0,1,.681,3.373,2.2,2.2,0,0,1-1.34,1.362,5.909,5.909,0,0,1-1.461.308C378.793,198.646,376.661,198.8,376.629,198.613Z" transform="translate(-228.609 -111.393)" fill="#263238"/>
        <path id="Path_34003" data-name="Path 34003" d="M364.937,161.9c-.275.956-3.691.736-7.69,1.483s-7.108,2.054-7.69,1.263c-.264-.385.242-1.285,1.483-2.274a13.612,13.612,0,0,1,11.678-2.087C364.267,160.78,365.058,161.461,364.937,161.9Z" transform="translate(-230.947 -112.44)" fill="#263238"/>
        <path id="Path_34004" data-name="Path 34004" d="M393.232,162.682c-.538.813-2.933.176-5.757.319s-5.164.868-5.768.1c-.264-.374.066-1.176,1.1-1.978a8.372,8.372,0,0,1,9.283-.33C393.1,161.517,393.474,162.242,393.232,162.682Z" transform="translate(-227.778 -112.463)" fill="#263238"/>
        <path id="Path_34005" data-name="Path 34005" d="M332.786,186.7c-.385-.132-15.491-3.472-14,11.613s17.82,10.162,17.82,9.734S332.786,186.7,332.786,186.7Z" transform="translate(-233.985 -109.825)" fill="#ffbe9d"/>
        <path id="Path_34006" data-name="Path 34006" d="M329.583,202.627c-.077,0-.242.209-.67.45a2.615,2.615,0,0,1-1.956.242c-1.659-.428-3.3-2.823-3.592-5.493a8.79,8.79,0,0,1,.363-3.834,3.065,3.065,0,0,1,1.78-2.2,1.351,1.351,0,0,1,1.626.571c.242.406.176.714.253.725s.3-.275.121-.89a1.714,1.714,0,0,0-.692-.89,2.043,2.043,0,0,0-1.538-.308,3.713,3.713,0,0,0-2.5,2.615,8.91,8.91,0,0,0-.494,4.3c.4,3.032,2.2,5.724,4.471,6.13a2.823,2.823,0,0,0,2.373-.637C329.594,202.99,329.671,202.649,329.583,202.627Z" transform="translate(-233.638 -109.364)" fill="#eb996e"/>
        <path id="Path_34007" data-name="Path 34007" d="M403.534,144c-1.033,6.009-13.184,11.514-23.313,11.217-9.305-.275-13.909-4.889-20.665-8.174-4.285-2.076-4.285-2.076-10.1-1.1-4.691.758-7.13,6.306-9.767,10.261,5.021,10.986,2.988,23.686.857,35.552a6,6,0,0,1-1.527,3.6c-1.692,1.494-4.394.6-6.108-.923-2.67-2.45-3.889-6.075-4.757-9.591a62.051,62.051,0,0,1-1.494-24.532,42.517,42.517,0,0,1,10.2-22.192,40.276,40.276,0,0,1,27.466-12.513,49.438,49.438,0,0,1,29.245,8.306c4,2.626,7.69,5.867,10,10.074" transform="translate(-233.257 -115.813)" fill="#263238"/>
        <path id="Path_34008" data-name="Path 34008" d="M379.434,203.353l-7.69-3.582a2.537,2.537,0,0,0-1.4-.352,2.2,2.2,0,0,0-1.329.9,7.13,7.13,0,0,0-.857,7.855,6.021,6.021,0,0,0,7.218,2.659c2.725-1.1,4.043-4.3,4.263-7.24Z" transform="translate(-229.184 -108.53)" fill="#eb996e"/>
        <path id="Path_34009" data-name="Path 34009" d="M375.7,211.492c0,.066-.363.286-1.1.45a6.658,6.658,0,0,1-3.3-.242,6.867,6.867,0,0,1-3.812-3.175,7.064,7.064,0,0,1-.472-6.064,7.35,7.35,0,0,1,1.78-2.692,7.066,7.066,0,0,1,1.253-.945,1.978,1.978,0,0,1,.89-.275,2.043,2.043,0,0,1,.89.165,13.673,13.673,0,0,1,1.2.681l1.044.648,1.879,1.165c2.274,1.45,3.647,2.417,3.571,2.549s-1.593-.571-3.977-1.846l-1.945-1.1-1.1-.6c-.374-.187-.769-.439-1.1-.571a.813.813,0,0,0-.846.088,5.986,5.986,0,0,0-1.011.8,6.592,6.592,0,0,0-1.494,2.285,6.2,6.2,0,0,0,.33,5.153,6.35,6.35,0,0,0,3.175,2.922,7.745,7.745,0,0,0,2.977.56C375.262,211.481,375.668,211.415,375.7,211.492Z" transform="translate(-229.264 -108.616)" fill="#263238"/>
        <path id="Path_34010" data-name="Path 34010" d="M375.525,180.208a26.858,26.858,0,0,0-.6-3.823A15.579,15.579,0,0,0,354.5,165.651a14.812,14.812,0,0,0-3.922,2.12,14.283,14.283,0,0,0-3.3,3.3,15.381,15.381,0,0,0,0,18.292,14.284,14.284,0,0,0,3.3,3.3,14.812,14.812,0,0,0,3.922,2.12,15.623,15.623,0,0,0,20.424-10.734,27.123,27.123,0,0,0,.6-3.812.842.842,0,0,1,0,.253c0,.2,0,.45,0,.747a6.391,6.391,0,0,1-.088,1.219,12.291,12.291,0,0,1-.3,1.648,15.086,15.086,0,0,1-1.7,4.252,15.9,15.9,0,0,1-19.127,6.921,15.107,15.107,0,0,1-4.054-2.2,14.9,14.9,0,0,1-3.406-3.395,15.93,15.93,0,0,1,0-18.951,14.645,14.645,0,0,1,3.395-3.395,15.107,15.107,0,0,1,4.054-2.2,15.907,15.907,0,0,1,19.127,6.921,15.083,15.083,0,0,1,1.7,4.252,12.289,12.289,0,0,1,.3,1.648,6.4,6.4,0,0,1,.088,1.219v.747a.956.956,0,0,1,.011.286Z" transform="translate(-231.515 -112.004)" fill="#263238"/>
        <path id="Path_34011" data-name="Path 34011" d="M409.69,178.819a27.146,27.146,0,0,0-.582-3.724,15.3,15.3,0,0,0-5.6-8.317,14.887,14.887,0,0,0-6.372-2.8,15.151,15.151,0,0,0-7.932.67,14.765,14.765,0,0,0-3.812,2.054,14.469,14.469,0,0,0-3.186,3.208,15.04,15.04,0,0,0,0,17.82,14.194,14.194,0,0,0,3.186,3.2,14.479,14.479,0,0,0,3.812,2.065,15.26,15.26,0,0,0,7.932.67,14.887,14.887,0,0,0,6.372-2.8,15.3,15.3,0,0,0,5.6-8.317,27.163,27.163,0,0,0,.582-3.724,6.067,6.067,0,0,1,0,.978,7.211,7.211,0,0,1-.088,1.2,11.878,11.878,0,0,1-.286,1.6,15.48,15.48,0,0,1-12.085,11.536,15.589,15.589,0,1,1,0-30.63,15.48,15.48,0,0,1,12.085,11.536,11.877,11.877,0,0,1,.286,1.6,7.207,7.207,0,0,1,.088,1.2,6.068,6.068,0,0,1,0,.978Z" transform="translate(-228.064 -112.099)" fill="#263238"/>
        <path id="Path_34012" data-name="Path 34012" d="M379.693,174.417c-.066.055-.428-.242-1.1-.56a6.229,6.229,0,0,0-2.769-.6,6.01,6.01,0,0,0-2.736.7c-.659.341-1.011.659-1.1.593s.2-.483.857-.945a5.383,5.383,0,0,1,5.911-.1A2.538,2.538,0,0,1,379.693,174.417Z" transform="translate(-228.729 -111.168)" fill="#263238"/>
        <path id="Path_34013" data-name="Path 34013" d="M346.116,176.73a69.459,69.459,0,0,1-6.877,5.493,70.306,70.306,0,0,1-7.229,5.043,66.223,66.223,0,0,1,6.888-5.493,68.285,68.285,0,0,1,7.218-5.043Z" transform="translate(-232.671 -110.768)" fill="#263238"/>
        <g id="Group_7342" data-name="Group 7342" transform="translate(100.183 137.461)" opacity="0.3">
          <path id="Path_34014" data-name="Path 34014" d="M333.022,241.81c-1.527,14.908,4.142,30.652,16.106,39.682.934.714,2.109,1.417,3.219,1.011a3.516,3.516,0,0,0,1.67-1.714,29.136,29.136,0,0,0,3.56-19.16c-1.89,4.988-3.516,9.888-5.427,15.1C341.745,270.4,335.219,256.949,333.022,241.81Z" transform="translate(-332.778 -241.81)"/>
        </g>
        <path id="Path_34015" data-name="Path 34015" d="M369.87,275.836l8.789-3.208,1.45,14.842s9.47-17.259,13.392-25.126,1.9-21.775,1.9-21.775,1.4,12.085-8.086,27.543l-7.163,11.645V267.563Z" transform="translate(-228.937 -104.472)" opacity="0.3"/>
        <g id="Group_7343" data-name="Group 7343" transform="translate(7.984 244.932)" opacity="0.3">
          <path id="Path_34016" data-name="Path 34016" d="M279.776,341.5a23.422,23.422,0,0,0-12.711-1.593,24.466,24.466,0,0,0-12.656,4.79c-3.56,2.867-5.965,7.394-5.493,11.942l.439.055c3.065-8.284,9.152-14.282,17.007-15.04s15.513,2.758,20.874,8.525C286.653,345.87,283.643,343.332,279.776,341.5Z" transform="translate(-248.856 -339.633)"/>
        </g>
        <g id="Group_7344" data-name="Group 7344" transform="translate(228.285 249.04)" opacity="0.3">
          <path id="Path_34017" data-name="Path 34017" d="M481.855,349.555a20.072,20.072,0,0,0-11.338-5.834,25.422,25.422,0,0,0-21.138,6.119l1.67-1.362a26.685,26.685,0,0,1,14.084-3.823,20.336,20.336,0,0,1,13.414,5.361c3.3,3.12,5.262,7.35,7.141,11.47a14.359,14.359,0,0,0-3.834-11.931Z" transform="translate(-449.38 -343.372)"/>
        </g>
        <path id="Path_34018" data-name="Path 34018" d="M427.45,288.992a5.986,5.986,0,0,1,.4-1.2c.341-.868.758-1.934,1.242-3.2,1.1-2.692,2.527-6.4,4.065-10.547s2.867-7.91,3.823-10.635l1.1-3.241a5.734,5.734,0,0,1,.483-1.165,4.557,4.557,0,0,1-.275,1.23c-.209.791-.538,1.912-.967,3.3-.857,2.768-2.131,6.592-3.669,10.712s-3.065,7.855-4.23,10.5c-.571,1.329-1.1,2.4-1.417,3.131A5.041,5.041,0,0,1,427.45,288.992Z" transform="translate(-223.258 -102.653)" fill="#263238"/>
        <path id="Path_34019" data-name="Path 34019" d="M301.813,289.387c-.154,0-1.351-5.2-2.67-11.678s-2.263-11.7-2.142-11.788,1.34,5.2,2.659,11.678S301.967,289.354,301.813,289.387Z" transform="translate(-236.125 -101.971)" fill="#263238"/>
        <path id="Path_34020" data-name="Path 34020" d="M299.851,353.194c.352.176-4.021-34.233-4.021-34.233s2.758-26.114,4.307-27.323v-9.218s4.274-2.582,5.416,1.593c0,0,3.79-3.3,4.395,4.537s.8,15.831.8,15.831l8.426,21.072,1.384.7s1.813-16.479,2.867-18.94,1.78-8.339,5.768-7.449,4.329,4.186,3.615,9.569-1.615,10.986-1.274,14.436,1.912,11.129,1.428,17.215-3.823,12.5-7.317,17.007-10.184,13.832-13.81,16.633C310.661,375.617,299.851,353.194,299.851,353.194Z" transform="translate(-236.239 -100.422)" fill="#ffbe9d"/>
        <path id="Path_34021" data-name="Path 34021" d="M303.722,324.253a6.585,6.585,0,0,1,0-1.472c.066-1.1.165-2.395.275-4,.253-3.373.648-8.031,1.1-13.184.242-2.56.472-5,.681-7.24a12.9,12.9,0,0,0,0-3.109,4.394,4.394,0,0,0-1.1-2.373,4.7,4.7,0,0,0-3.439-1.505,9.745,9.745,0,0,0-1.439.176,1.34,1.34,0,0,1,.352-.176,3.714,3.714,0,0,1,1.1-.231A4.834,4.834,0,0,1,305,292.6a4.7,4.7,0,0,1,1.22,2.582,12.591,12.591,0,0,1,0,3.219c-.2,2.2-.417,4.691-.637,7.251-.472,5.142-.934,9.789-1.3,13.184l-.45,3.988A8.353,8.353,0,0,1,303.722,324.253Z" transform="translate(-235.847 -99.485)" fill="#eb996e"/>
        <path id="Path_34022" data-name="Path 34022" d="M307.923,308.47a11.953,11.953,0,0,0-1.494,2.714,45.537,45.537,0,0,0-1.4,7.427c-.461,2.944-.9,5.6-1.252,7.526a16.476,16.476,0,0,1-.681,3.087,18.35,18.35,0,0,1,.286-3.153c.242-1.934.626-4.6,1.1-7.548s.78-5.636,1.593-7.482a7.194,7.194,0,0,1,1.2-1.989C307.637,308.613,307.9,308.448,307.923,308.47Z" transform="translate(-235.522 -97.775)" fill="#eb996e"/>
        <path id="Path_34023" data-name="Path 34023" d="M304.67,283.39a3.834,3.834,0,0,1,.3,1.1c.154.7.341,1.725.549,3,.417,2.538.879,6.064,1.176,9.987s.352,7.482.308,10.052c0,1.285-.055,2.329-.11,3.043a3.847,3.847,0,0,1-.132,1.1,36.75,36.75,0,0,1-.165-4.153c-.055-2.571-.187-6.108-.472-10.008s-.681-7.427-1-9.976A35.078,35.078,0,0,1,304.67,283.39Z" transform="translate(-235.367 -100.248)" fill="#eb996e"/>
        <path id="Path_34024" data-name="Path 34024" d="M327.254,312.888a3.032,3.032,0,0,1-2.834.242c-1.615-.483-2.362-1.725-2.2-1.78a15.053,15.053,0,0,0,2.384,1.23,16.053,16.053,0,0,0,2.648.308Z" transform="translate(-233.638 -97.491)" fill="#eb996e"/>
        <path id="Path_34025" data-name="Path 34025" d="M304.587,342.87l-22.258,9.36H269.057s-13.118,4.1-15.139,16.4-2.307,18.622,3.461,20.149,22.06,1.692,30.135-.989,29.234-19.775,29.234-19.775l2.032-12.349Z" transform="translate(-240.503 -94.382)" fill="#ffbe9d"/>
        <path id="Path_34026" data-name="Path 34026" d="M305.271,357.065a5.891,5.891,0,0,1-.637-.582,14.149,14.149,0,0,1-1.439-1.846,25.015,25.015,0,0,1-3.109-7.042,41.744,41.744,0,0,1-1.373-7.559,14.282,14.282,0,0,1-.088-3.186,21.443,21.443,0,0,1,.483,3.131,55.97,55.97,0,0,0,1.527,7.46,29.545,29.545,0,0,0,2.9,6.987C304.535,356.087,305.348,356.988,305.271,357.065Z" transform="translate(-235.968 -94.976)" fill="#eb996e"/>
        <path id="Path_34027" data-name="Path 34027" d="M314.4,361.538a23.2,23.2,0,0,0,1.263-4.768,15.381,15.381,0,0,0-2.988-11.184c-1.351-1.89-2.878-3.538-4.164-5.142a24.34,24.34,0,0,1-3.01-4.548,12.008,12.008,0,0,1-1.1-3.516,4.469,4.469,0,0,1,0-1.34,15.711,15.711,0,0,0,1.516,4.669,25.61,25.61,0,0,0,3.065,4.395c1.285,1.56,2.823,3.208,4.208,5.142a16,16,0,0,1,2.779,6.1,15.5,15.5,0,0,1,.143,5.493,14.437,14.437,0,0,1-1.011,3.538c-.176.4-.341.692-.451.89S314.413,361.549,314.4,361.538Z" transform="translate(-235.398 -95.549)" fill="#eb996e"/>
        <path id="Path_34028" data-name="Path 34028" d="M283.18,311.8a111.623,111.623,0,0,1-5.427-9.888,108.925,108.925,0,0,1-4.922-10.14,111.637,111.637,0,0,1,5.427,9.888A110.235,110.235,0,0,1,283.18,311.8Z" transform="translate(-238.508 -99.422)" fill="#fff"/>
        <path id="Path_34029" data-name="Path 34029" d="M315,274.968a68.3,68.3,0,0,1,3.351-8.24,70.778,70.778,0,0,1,3.878-8,70.536,70.536,0,0,1-3.351,8.24,69.654,69.654,0,0,1-3.878,8Z" transform="translate(-234.348 -102.681)" fill="#fff"/>
        <path id="Path_34030" data-name="Path 34030" d="M348,298.236a50.771,50.771,0,0,1-5.054-5.647,51.317,51.317,0,0,1-4.6-6.009,48.919,48.919,0,0,1,5.043,5.647A50.757,50.757,0,0,1,348,298.236Z" transform="translate(-232.046 -99.934)" fill="#fff"/>
        <path id="Path_34031" data-name="Path 34031" d="M339.74,330.759a43.8,43.8,0,0,1,3.8-5.735,41.96,41.96,0,0,1,4.274-5.394,42.975,42.975,0,0,1-3.8,5.735,40.136,40.136,0,0,1-4.274,5.394Z" transform="translate(-231.908 -96.674)" fill="#fff"/>
        <path id="Path_34032" data-name="Path 34032" d="M330.409,377.205a10.911,10.911,0,0,1-1.285-2.2c-.725-1.406-1.659-3.373-2.6-5.581s-1.7-4.263-2.2-5.746a11.1,11.1,0,0,1-.7-2.461,11.371,11.371,0,0,1,1.1,2.318l2.362,5.658c.912,2.1,1.725,4,2.439,5.636a11.391,11.391,0,0,1,.89,2.373Z" transform="translate(-233.498 -92.572)" fill="#fff"/>
        <path id="Path_34033" data-name="Path 34033" d="M359.19,356.44a40.81,40.81,0,0,1-6.669-1,39.723,39.723,0,0,1-6.592-1.56,79.617,79.617,0,0,1,13.184,2.56Z" transform="translate(-231.298 -93.296)" fill="#fff"/>
        <path id="Path_34034" data-name="Path 34034" d="M380,314.492a80.068,80.068,0,0,1,6.35-7.273,82.4,82.4,0,0,1,6.79-6.9,82.7,82.7,0,0,1-6.361,7.284A84.16,84.16,0,0,1,380,314.492Z" transform="translate(-227.938 -98.579)" fill="#fff"/>
        <path id="Path_34035" data-name="Path 34035" d="M403.385,372.231c-.121.11-3.669-4.01-7.932-9.174s-7.613-9.448-7.493-9.547,3.669,4.01,7.932,9.174S403.484,372.132,403.385,372.231Z" transform="translate(-227.153 -93.333)" fill="#fff"/>
        <path id="Path_34036" data-name="Path 34036" d="M266.352,346.12c.077.154-3.164,1.8-6.7,4.515s-6,5.394-6.13,5.273a7.824,7.824,0,0,1,1.494-1.868,33.8,33.8,0,0,1,4.285-3.856,34.3,34.3,0,0,1,4.856-3.1,8.271,8.271,0,0,1,2.2-.967Z" transform="translate(-240.412 -94.061)" fill="#fff"/>
        <path id="Path_34037" data-name="Path 34037" d="M273.947,324a23.411,23.411,0,0,1-2.582,4.394,23.068,23.068,0,0,1-3.065,4.087,23.674,23.674,0,0,1,2.582-4.395A22.742,22.742,0,0,1,273.947,324Z" transform="translate(-238.954 -96.243)" fill="#fff"/>
        <path id="Path_34038" data-name="Path 34038" d="M292.2,346.563a14.513,14.513,0,0,1-2.131-9.393c.165,0,.22,2.2.824,4.757S292.354,346.486,292.2,346.563Z" transform="translate(-236.817 -94.944)" fill="#fff"/>
        <path id="Path_34039" data-name="Path 34039" d="M295.517,276.8a16.873,16.873,0,0,1-4.23.89,16.27,16.27,0,0,1-4.318.319,17.037,17.037,0,0,1,4.241-.89,16.749,16.749,0,0,1,4.307-.319Z" transform="translate(-237.113 -100.901)" fill="#fff"/>
        <path id="Path_34040" data-name="Path 34040" d="M309.38,252.07a33.673,33.673,0,0,1-7.69,4.263,16.82,16.82,0,0,1,3.7-2.384,17.422,17.422,0,0,1,3.988-1.879Z" transform="translate(-235.661 -103.337)" fill="#fff"/>
        <path id="Path_34041" data-name="Path 34041" d="M348.62,263.466a39.948,39.948,0,0,1-4.241-5.1,39.55,39.55,0,0,1-3.779-5.438A76.581,76.581,0,0,1,348.62,263.466Z" transform="translate(-231.823 -103.253)" fill="#fff"/>
        <path id="Path_34042" data-name="Path 34042" d="M398.267,288.339a26.906,26.906,0,0,1-6.647-10.679c.165-.066,1.34,2.494,3.186,5.427S398.4,288.229,398.267,288.339Z" transform="translate(-226.791 -100.814)" fill="#fff"/>
        <path id="Path_34043" data-name="Path 34043" d="M417.124,293.64a64.03,64.03,0,0,1-5.054,11.129,33.984,33.984,0,0,1,2.274-5.68A32.257,32.257,0,0,1,417.124,293.64Z" transform="translate(-224.775 -99.237)" fill="#fff"/>
        <path id="Path_34044" data-name="Path 34044" d="M420.288,268.86a59.033,59.033,0,0,1-5.559-6.218,60.844,60.844,0,0,1-5.109-6.592A121.789,121.789,0,0,1,420.288,268.86Z" transform="translate(-225.016 -102.945)" fill="#fff"/>
        <path id="Path_34045" data-name="Path 34045" d="M390.364,247.608a25.813,25.813,0,0,1-.494-5.317,25.026,25.026,0,0,1,.077-5.35,25.819,25.819,0,0,1,.494,5.317,24.171,24.171,0,0,1-.077,5.35Z" transform="translate(-226.975 -104.83)" fill="#fff"/>
        <path id="Path_34046" data-name="Path 34046" d="M415.225,245.34a42.2,42.2,0,0,1-6.79,1.2,41.591,41.591,0,0,1-6.855.626,42.2,42.2,0,0,1,6.789-1.2,41.506,41.506,0,0,1,6.855-.626Z" transform="translate(-225.809 -104.001)" fill="#fff"/>
        <path id="Path_34047" data-name="Path 34047" d="M451.916,274.129a69.239,69.239,0,0,1-4.087-7.778,67.975,67.975,0,0,1-3.56-8.031,68.186,68.186,0,0,1,4.1,7.778A68.333,68.333,0,0,1,451.916,274.129Z" transform="translate(-221.599 -102.721)" fill="#fff"/>
        <path id="Path_34048" data-name="Path 34048" d="M445,297.473a71.417,71.417,0,0,1,2.483-12.393,35.643,35.643,0,0,1-.956,6.251A34.644,34.644,0,0,1,445,297.473Z" transform="translate(-221.527 -100.082)" fill="#fff"/>
        <path id="Path_34049" data-name="Path 34049" d="M462.78,316.533a69.409,69.409,0,0,1-3.3-8.437,70.3,70.3,0,0,1-2.714-8.635,72.58,72.58,0,0,1,3.3,8.448A71.912,71.912,0,0,1,462.78,316.533Z" transform="translate(-220.366 -98.663)" fill="#fff"/>
        <path id="Path_34050" data-name="Path 34050" d="M460.749,326.409a15.228,15.228,0,0,1-5.548-1.989,14.72,14.72,0,0,1-4.691-3.559c.11-.132,2.131,1.538,4.966,3.054S460.8,326.244,460.749,326.409Z" transform="translate(-220.983 -96.553)" fill="#fff"/>
        <path id="Path_34051" data-name="Path 34051" d="M482.307,351.46a31.369,31.369,0,0,1-3.417-7.69A31.364,31.364,0,0,1,482.307,351.46Z" transform="translate(-218.184 -94.293)" fill="#fff"/>
        <path id="Path_34052" data-name="Path 34052" d="M351.315,386.33a21.885,21.885,0,0,1-.857-4.867,22.226,22.226,0,0,1-.286-4.933,20.631,20.631,0,0,1,.912,4.911A21.455,21.455,0,0,1,351.315,386.33Z" transform="translate(-230.883 -91.062)" fill="#fff"/>
        <path id="Path_34053" data-name="Path 34053" d="M419.14,384.573a20.487,20.487,0,0,1,.714-4.757,20.774,20.774,0,0,1,1.285-4.636,20.117,20.117,0,0,1-.725,4.757,20.439,20.439,0,0,1-1.274,4.636Z" transform="translate(-224.077 -91.195)" fill="#fff"/>
      </g>
      <g id="freepik--speech-bubble--inject-100" transform="translate(472.508 112.693)">
        <path id="Path_34054" data-name="Path 34054" d="M432.16,193.205l9.712-16.963a45.549,45.549,0,1,1,10.909,12.085h0Z" transform="translate(-432.127 -106.66)" fill="#fafafa"/>
        <path id="Path_34055" data-name="Path 34055" d="M432.163,193.21l20.621-4.7h.209l-.132-.176h0l-.2.187a46.934,46.934,0,0,0,9.36,5.647,45.55,45.55,0,0,0,12.48,3.56,40.836,40.836,0,0,0,7.207.363c1.241-.066,2.494-.1,3.768-.2l3.845-.582a45.895,45.895,0,0,0,36.134-35.837,46.6,46.6,0,0,0-.538-20.248,44.967,44.967,0,0,0-9.756-18.677l-1.879-2.142c-.615-.692-1.34-1.252-2-1.89a17.842,17.842,0,0,0-2.065-1.8l-2.2-1.626a18.314,18.314,0,0,0-2.263-1.494l-2.307-1.406-2.417-1.176a22.943,22.943,0,0,0-2.439-1.1,46.648,46.648,0,0,0-20.4-3.131,44.824,44.824,0,0,0-18.677,5.493,46.142,46.142,0,0,0-21.632,26.62,49,49,0,0,0-1.978,14.8,45.045,45.045,0,0,0,2.2,12.777,46.469,46.469,0,0,0,4.559,9.8v-.143c-6.086,10.909-9.064,16.238-9.536,17.073.483-.824,3.538-6.119,9.767-16.941v-.132a45.746,45.746,0,0,1-4.417-9.767,44.968,44.968,0,0,1-2.2-12.689,49.175,49.175,0,0,1,2.01-14.656,45.824,45.824,0,0,1,21.434-26.257,44.286,44.286,0,0,1,18.512-5.493,46,46,0,0,1,20.149,3.109,22.34,22.34,0,0,1,2.406,1.1l2.4,1.165,2.307,1.428a19.079,19.079,0,0,1,2.2,1.472l2.2,1.615c.736.527,1.351,1.187,2.032,1.78A21.155,21.155,0,0,1,512.9,120.8l1.835,2.01a44.572,44.572,0,0,1,9.646,18.49,45.79,45.79,0,0,1,.538,20,44.769,44.769,0,0,1-7.581,17.391,45.472,45.472,0,0,1-28.1,18.116l-3.8.593c-1.263.1-2.5.143-3.735.209a41.2,41.2,0,0,1-7.141-.33,45.4,45.4,0,0,1-12.415-3.45,46.515,46.515,0,0,1-9.327-5.559l-.846-.648.648.846h0l.077-.22Z" transform="translate(-432.13 -106.664)" fill="#263238"/>
        <path id="Path_34056" data-name="Path 34056" d="M487.4,146.949a4.395,4.395,0,1,0,1.287-3.163A4.395,4.395,0,0,0,487.4,146.949Z" transform="translate(-426.679 -103.129)" fill="#263238"/>
        <path id="Path_34057" data-name="Path 34057" d="M471.21,146.949a4.395,4.395,0,1,0,1.267-3.143A4.395,4.395,0,0,0,471.21,146.949Z" transform="translate(-428.276 -103.129)" fill="#263238"/>
        <path id="Path_34058" data-name="Path 34058" d="M455.111,144.731a4.394,4.394,0,1,0,2.691-2.087A4.395,4.395,0,0,0,455.111,144.731Z" transform="translate(-429.919 -103.13)" fill="#263238"/>
      </g>
    </g>
  </g>
</svg>
